<?xml version="1.0" encoding="UTF-8"?>
<svg id="Layer_1" data-name="Layer 1" xmlns="http://www.w3.org/2000/svg" viewBox="0 0 287.74 241.84">
  <defs>
    <style>
      .cls-1 {
        fill: #231f20;
        stroke-width: 0px;
      }
    </style>
  </defs>
  <path class="cls-1" d="M209.16,241.84c-.81,0-1.67-.04-2.57-.13l-.95-4.65c.41.06.82.11,1.23.14.2.01.43.02.67.02.55,0,1.21-.04,1.98-.12,1.13-.12,2.1-.4,2.89-.83.82-.46,1.51-1.23,2.04-2.31.53-1.07.71-2.42.54-4.01l-.08-.82-.69.46c-2.04,1.35-4.17,2.07-6.34,2.12h-.25c-2.04,0-3.77-.68-5.26-2.07-1.54-1.44-2.38-3.55-2.5-6.28.06-3.49,1.31-6.21,3.71-8.06,1.53-1.18,3.3-1.78,5.27-1.78,1.12,0,2.32.19,3.58.57l.64.19v-2.33l4.62-.39c.09.56.2,1.28.33,2.17.17,1.15.29,1.97.35,2.44,1.09,7.05,1.59,12.03,1.5,14.81-.12,5.04-1.73,8.32-4.79,9.76-1.56.73-3.55,1.11-5.91,1.11ZM209.74,217.95c-1.37,0-2.58.44-3.59,1.32-1.05.91-1.5,2.15-1.32,3.7.14,1.37.62,2.42,1.42,3.1.74.63,1.6.94,2.54.94.07,0,.15,0,.22,0,.97-.05,1.92-.28,2.83-.67.93-.4,1.66-.91,2.17-1.49l.12-.14v-.19c0-.93-.14-2.77-.43-5.64l-.03-.33-.32-.09c-1.11-.33-2.32-.49-3.62-.49ZM113.12,241.84c-.81,0-1.67-.04-2.57-.13l-.95-4.65c.41.06.82.11,1.23.14.2.01.43.02.67.02.55,0,1.21-.04,1.98-.12,1.13-.12,2.1-.4,2.89-.83.82-.46,1.51-1.23,2.04-2.31.52-1.07.71-2.42.54-4.01l-.08-.82-.69.46c-2.04,1.35-4.17,2.07-6.34,2.12h-.26c-2.04,0-3.77-.68-5.26-2.07-1.54-1.44-2.38-3.55-2.5-6.28.06-3.49,1.31-6.21,3.71-8.06,1.53-1.18,3.3-1.78,5.27-1.78,1.12,0,2.32.19,3.58.57l.64.19v-2.33l4.62-.39c.09.56.19,1.28.33,2.17.17,1.16.29,1.97.35,2.44,1.09,7.06,1.59,12.04,1.5,14.81-.12,5.04-1.73,8.32-4.79,9.76-1.56.73-3.55,1.11-5.91,1.11ZM113.71,217.95c-1.37,0-2.58.44-3.59,1.32-1.05.91-1.5,2.15-1.32,3.7.14,1.37.61,2.42,1.42,3.1.74.63,1.6.94,2.54.94.07,0,.15,0,.22,0,.96-.05,1.92-.28,2.83-.67.93-.4,1.66-.91,2.17-1.49l.12-.14v-.19c0-.93-.14-2.78-.43-5.64l-.03-.33-.32-.09c-1.11-.33-2.32-.49-3.62-.49ZM6.71,208.33l-6.24.47-.47-5.25,17.89-1.11v5.11l-6.03.47.8,25.99-5.34.59-.61-26.29ZM226.22,202.83l4.75-.47.57,3.81.72-.89c.97-1.21,2.16-2.06,3.53-2.54.88-.31,1.76-.46,2.62-.46.5,0,.99.05,1.49.15,1.38.29,2.68.81,3.88,1.56,1.17.73,2.08,1.78,2.73,3.13.65,1.35.9,2.83.75,4.39-.06,2.23-.75,4.13-2.05,5.69-1.29,1.56-2.9,2.52-4.78,2.86-.46.08-.95.13-1.43.13-1.5,0-3.13-.4-4.85-1.19l-.8-.37,1.59,15.41-4.98.55-3.73-31.75ZM237.21,206.9c-.86,0-1.73.23-2.57.68-1.13.6-1.88,1.61-2.22,3l-.02.09.41,3.62.21.13c1.39.86,2.77,1.3,4.09,1.3.1,0,.19,0,.29,0,1.42-.07,2.65-.53,3.64-1.39,1.02-.88,1.52-1.92,1.49-3.07-.04-1.12-.54-2.09-1.49-2.88-.91-.76-1.93-1.23-3.04-1.4-.26-.04-.51-.06-.77-.06ZM68.7,234.34c-3.01,0-5.63-1.1-7.77-3.26-2.15-2.16-3.24-4.8-3.24-7.85s1.09-5.68,3.24-7.85c2.15-2.16,4.76-3.26,7.77-3.26s5.62,1.1,7.77,3.26c2.15,2.16,3.24,4.8,3.24,7.85s-1.09,5.68-3.24,7.85c-2.15,2.16-4.76,3.26-7.77,3.26ZM68.65,216.68c-1.79,0-3.34.64-4.6,1.91-1.27,1.27-1.91,2.82-1.91,4.61s.64,3.34,1.91,4.6c1.27,1.27,2.81,1.91,4.6,1.91s3.34-.64,4.6-1.91c1.27-1.26,1.91-2.81,1.91-4.6s-.64-3.34-1.91-4.61c-1.27-1.27-2.82-1.91-4.6-1.91ZM169.95,229.15l-.65,1.66c-.77,1.97-2.51,2.92-5.31,2.92-2.14,0-3.88-.43-5.15-1.28-1.27-.84-2.04-1.88-2.35-3.18-.33-1.36-.46-2.85-.39-4.44.08-1.59.37-3.16.87-4.66.51-1.53,1.02-2.86,1.53-3.97.43-.93.8-1.6,1.11-2l5.13.16c-.51.85-1.02,1.87-1.52,3.02-.65,1.51-1.21,3.14-1.67,4.84-.48,1.79-.46,3.35.07,4.62.57,1.37,1.77,2.07,3.58,2.07,3.12,0,4.63-4.05,4.63-12.39v-.37l4.67-.2c.05.97.09,2.7.13,5.15.05,2.96.15,5.64.31,7.96.13,2,.34,3.51.64,4.59l-4.76.54-.88-5.05ZM49.02,229.15l-.65,1.66c-.77,1.97-2.51,2.92-5.31,2.92-2.14,0-3.88-.43-5.15-1.28-1.27-.84-2.04-1.88-2.35-3.18-.33-1.36-.46-2.85-.39-4.44.08-1.59.37-3.16.87-4.66.51-1.53,1.02-2.86,1.53-3.97.43-.93.8-1.6,1.11-2l5.13.16c-.51.86-1.02,1.87-1.52,3.02-.65,1.51-1.21,3.13-1.67,4.84-.48,1.79-.46,3.35.07,4.62.57,1.37,1.77,2.07,3.59,2.07,3.12,0,4.63-4.05,4.63-12.39v-.37l4.67-.2c.05.97.09,2.7.13,5.15.05,2.96.15,5.64.31,7.96.13,2,.34,3.51.64,4.59l-4.75.54-.88-5.05ZM258.12,234.17c-.9,0-1.82-.1-2.73-.31-1.54-.34-2.93-.93-4.12-1.76-1.18-.82-2.18-1.94-2.97-3.33-.79-1.4-1.23-3-1.32-4.76-.27-4.51,1.09-7.87,4.18-10.29,2.07-1.65,4.41-2.48,6.98-2.48.37,0,.75.02,1.13.05,3,.3,5.16,1.53,6.62,3.77,1.4,2.15,1.75,4.92,1.04,8.24l-14.79,1.43.1.53c.31,1.72,1.18,2.97,2.58,3.73.84.46,1.77.69,2.76.69.62,0,1.28-.09,1.95-.27,1.6-.43,3.05-1.33,4.33-2.67l4.06,2.38c-.96,1.27-2.11,2.33-3.44,3.16-1.47.92-2.98,1.5-4.49,1.74-.62.1-1.25.15-1.88.15ZM258.55,215.97c-1.65,0-3.11.35-4.33,1.05-1.31.74-2.04,2.01-2.18,3.78l-.05.58,10.59-.78v-.48c-.08-2.58-1.46-4.01-4.01-4.15h-.03ZM139.11,234c-2,0-4.25-.36-6.69-1.07l1.56-30.62c1.06-.14,2.09-.21,3.08-.21,1.41,0,2.77.14,4.04.42,2.27.5,4.18,1.33,5.68,2.47,1.51,1.15,2.8,2.56,3.83,4.19,1.03,1.63,1.74,3.39,2.12,5.24.38,1.86.49,3.77.34,5.69-.21,2.3-.81,4.44-1.78,6.37-.96,1.91-2.33,3.58-4.07,4.95-1.72,1.36-3.85,2.19-6.35,2.48-.56.06-1.15.1-1.75.1ZM138.8,207.66l-1.37,20.9.41.1c.76.17,1.49.26,2.18.26,1.93,0,3.58-.69,4.91-2.04,1.77-1.8,2.79-4.19,3.05-7.12.26-3.1-.38-5.92-1.88-8.36-1.53-2.48-3.79-3.74-6.73-3.74h-.58ZM280.45,233.89c-1.19,0-2.25-.25-3.15-.73-1.04-.56-1.84-1.34-2.39-2.3-.57-1.01-1.04-2.15-1.39-3.39-.35-1.25-.56-2.52-.62-3.79-.06-1.28-.08-2.48-.05-3.56.03-1.07.07-1.95.12-2.63.07-1.09.06-1.22-.11-1.41l-.15-.16h-.22s-3.06.04-3.06.04l-.3-4.21h3.73l-.09-6.91h5.01l.05,6.53h4.42l.08,4.54h-4.5v.5c0,.34-.02,1.07-.05,2.19-.03,1.13-.04,2.19-.02,3.15.02.97.08,2,.19,3.05.12,1.11.37,2.02.77,2.71.57.98,1.33,1.19,1.87,1.19.96,0,1.67-.51,2.04-1.47.32-.84.43-1.89.31-3.12-.11-1.17-.25-2.19-.41-3.03-.11-.59-.23-1.13-.36-1.62l5.02-.19c.33,1.4.52,2.88.54,4.38.03,1.64-.15,3.26-.53,4.8-.37,1.5-1.09,2.76-2.16,3.75-1.05.98-2.41,1.54-4.04,1.65-.19.01-.38.02-.57.02ZM15.66,212.38l4.73-.39.17,4.64.83-.95c.8-.92,1.66-1.61,2.55-2.07.8-.4,1.56-.61,2.27-.61.07,0,.13,0,.2,0,.79.04,1.58.24,2.33.59.73.34,1.35.86,1.85,1.55.52.73.94,1.54,1.25,2.41.3.86.43,1.85.37,2.95-.05,1-.28,2.01-.67,3l-4.38-.38c.54-1.43.38-2.83-.46-4.15-.65-1.07-1.48-1.62-2.46-1.62-.21,0-.44.03-.66.08-1.02.22-1.88,1.07-2.55,2.54l-.05.11.5,13.21-5.02.35-.81-21.27ZM178.64,214.48h4.92l.11,2.13.69-.35c2.45-1.25,4.58-1.88,6.35-1.88.66,0,1.28.09,1.85.27,2.09.65,3.56,1.93,4.51,3.92.96,2.02,1.42,4.42,1.36,7.13-.06,2.61-.57,5.07-1.52,7.33l-5.22-.08c.37-1.1.69-2.3.94-3.6.3-1.56.49-3.13.55-4.68.07-1.61-.2-3.01-.78-4.15-.63-1.22-1.61-1.9-2.92-2.01-.26-.03-.53-.04-.78-.04-1.9,0-3.22.79-3.94,2.35-.28.67-.45,1.49-.54,2.54-.08,1-.1,1.93-.07,2.76.03.82.11,2,.24,3.52.11,1.29.18,2.33.22,3.09l-5.25.4-.71-18.65ZM82.61,214.48h4.92l.11,2.13.69-.35c2.45-1.25,4.58-1.88,6.35-1.88.66,0,1.28.09,1.85.27,2.09.65,3.56,1.93,4.51,3.92.96,2.02,1.42,4.42,1.36,7.13-.06,2.61-.57,5.07-1.52,7.33l-5.22-.08c.37-1.1.69-2.3.94-3.6.3-1.55.49-3.13.55-4.68.07-1.61-.2-3.01-.78-4.15-.63-1.22-1.61-1.9-2.92-2.01-.27-.03-.53-.04-.78-.04-1.9,0-3.22.79-3.94,2.35-.28.67-.46,1.49-.54,2.54-.08,1-.1,1.93-.07,2.76.03.82.11,1.97.24,3.52.11,1.3.18,2.34.22,3.09l-5.25.4-.71-18.65ZM143.87,196.39c-22.45,0-44.77-.29-64.54-.83-20.48-.57-37.87-1.41-50.3-2.43-1.14-.09-2.24-.19-3.29-.28l-.3-.03c-15.37-1.42-16.73-2.72-16.85-2.96.1-.13,1.17-1.22,12.66-2.46.65-.07,1.32-.14,2.01-.21,3.97-.4,8.76-.78,14.23-1.13l.66-.04-.22-.62c-.61-1.71-.46-3.23-.46-3.24l.03-.28-.23-.17c-3.37-2.51-.88-8.42-.86-8.48l.1-.23-.13-.22c-1.25-2.12-1.62-4.05-1.09-5.74.78-2.48,3.28-3.63,3.3-3.64l.28-.13v-.31c.17-5.54,3.47-5.96,4.48-5.96.11,0,.19,0,.2,0l.28.03.17-.22c.12-.16,3-4.01.87-8.77-1.93-4.31.15-10.76.17-10.83l.25-.75-.79.1c-.1.01-.2.02-.29.02-.91,0-1.18-.64-1.21-.71l-.35-.93-.54.83c-1.68,2.63-4.64,4.2-7.91,4.2-2.58,0-5.09-.95-7.26-2.74-4.54-3.75-3.36-10.06-2.85-12.76.09-.47.16-.85.18-1.09.12-1.25,2.02-6.16,9.23-7.17.7-.1,1.37-.15,1.98-.15,3.27,0,4.58,1.4,5.97,2.89.73.78,1.49,1.59,2.52,2.14,2.29,1.22,1.48,6.27.97,8.12l-.2.74.76-.11c.1-.01.2-.02.28-.02.52,0,.67.25.68.28l.25.47.46-.26c12.46-7.58,26-8.71,32.96-8.71,2.44,0,3.92.15,3.93.15,0,0,.08,0,.22,0,.79,0,4.81-.27,6.1-5.66l.1-.41-.39-.17c-2.63-1.13-3.82-2.06-3.83-2.07l-.29-.23-.31.22s-1.74,1.22-3.68,1.22-3.48-1.25-4.49-3.7l-.15-.37-.4.07s-.2.03-.47.03c-1.07,0-2.42-.41-2.76-2.34l-.06-.31-.31-.08c-.08-.02-7.67-2.09-7.18-7.05l.05-.54h-.54c-11.18-.18-19.14-7.6-20.28-18.93-1.4-13.87,11.54-21.16,11.67-21.23l.32-.18-.07-.36s-.84-4.26,1.14-6.73c.93-1.16,2.35-1.76,4.23-1.81h.54s-.05-.55-.05-.55c0-.03-.27-2.89,1.28-4.66.79-.9,1.94-1.38,3.41-1.42l.61-.02-.14-.6s-.57-2.53.66-4.31c.67-.97,1.77-1.56,3.26-1.77l.33-.05.08-.33s1.16-4.43,4.29-4.43c.94,0,2,.39,3.14,1.15l.72.48.06-.87c.01-.23.41-5.55,5.58-5.55,1.36,0,2.94.36,4.71,1.08l.47.19.18-.48s1.32-3.36,3.71-3.36c1.27,0,2.68.92,4.18,2.72l.51.61.33-.72s1.58-3.34,4.13-3.34c1.58,0,3.28,1.25,5.04,3.7l.36.5.42-.46s2.82-3.05,5.73-3.05c2.23,0,4,1.81,5.24,5.39l.18.53.5-.24s2.32-1.09,4.89-1.09c4.39,0,6.83,3.02,7.26,8.98l.04.62.6-.18s1.69-.5,3.55-.5,3.29.51,4.09,1.52c.92,1.15,1.1,3,.53,5.47l-.14.61h.63c.12,0,2.96.02,4.4,2.06,1.11,1.56,1.12,3.93.03,7.02l-.25.72.77-.06s.13,0,.33,0c.85,0,2.94.15,3.96,1.58.78,1.09.79,2.74.05,4.9l-.12.35.3.22c.12.08,11.56,8.52,11.16,20.72-.4,12-13.66,12.7-14.22,12.72l-.38.02-.08.37c-.03.14-.38,1.36-2.03,1.36-.25,0-.52-.03-.8-.08l-1.21-.24.71,1.01c.62.88.93,1.87.93,2.93,0,3.85-3.03,5.28-3.16,5.34l-.33.15.04.36s.19,2.02-1.13,3.5c-.99,1.09-2.57,1.65-4.7,1.65-.21,0-.44,0-.67-.02l-.32-.02-.15.28s-3.02,5.2-15.98,6.24l-.22.02-.14.17c-2.16,2.78-.36,7.65-.1,8.33.04.51.27,3.99-1.62,5.83l-.43.42.49.35s2.58,1.86,2.93,4.41c.17,1.29-.25,2.57-1.26,3.8l-.4.49.56.28c.09.05,2.35,1.27,1.56,5.35-.38,1.98-.77,2.98-1.07,3.79-.4,1.06-.69,1.82-.69,3.83v.34l.31.13s1.81.74,2.25,2.23c.26.88,0,1.88-.78,2.98l-.31.44.46.28c.05.03,1.29.8,1.64,2.54.37,1.82-.35,4.01-2.13,6.5l-.19.26.16.28s2.49,4.51.59,8.62l-.13.28.2.24s.41.51.68,1.22l.12.33h.35c6.63-.05,13.46-.08,20.29-.08,6.46,0,13.08.02,19.67.07-.27,1.46-.35,3.67,1,5.52,1.4,1.91,3.98,2.99,7.68,3.22l1.95.02v-.21c.47.05.95.09,1.45.13l-.18-.08.69-.63-.09-.11c-1.5-1.6-2.23-4.43-2.15-8.22v-.2c.05-1.43.19-2.72.32-3.63,6.13-2.64,13.25-3.98,21.16-3.98h.63c4.38,0,8.99.5,15,1.63.67.13,1.58.31,2.61.51,3.04.6,6.81,1.35,8.72,1.54.84.11,1.61.16,2.32.16,4.26,0,6.52-1.98,6.73-5.88l.03-.48-1.09-.1-.04.5c-.25,3.13-1.92,4.58-5.24,4.58-.75,0-1.57-.07-2.52-.22-1.84-.24-5.49-1.05-8.43-1.7-1.08-.24-2.04-.45-2.75-.6-3.39-.7-7.56-1.48-11.98-1.85-.02-.34-.06-.67-.1-1.01-.05-.4-.1-.78-.1-1.16-.11-1.91.05-3.83.46-5.58.82-3.03,2.85-5.97,5.72-8.27l.35-.28-.57-.89-.42.27c-2.86,1.82-5.17,4.45-6.5,7.42-1.48,3.02-1.53,6.41-.16,9.4-1.19-.08-2.39-.12-3.59-.12-.51,0-1.02,0-1.52.02.59-.63,1.15-1.37,1.75-2.27,2.25-3.61,2.76-6.73,1.52-9.28-.25-.45-.51-.84-.78-1.2l-.25-.32-.81.4.08.38c.89,4.41-.05,8.46-2.8,12.04l-.25.33c-1.06.07-2.1.17-3.11.3-5.47.78-10.01,2.19-13.84,4.29l.11-.7-.04.02c.23-1.49.85-3.53,1.84-6.09l.22-.41c.64-1.61.69-3.38.69-4.92-.22-4.47-.65-9.6-2.9-14.2l-.18-.38-.9.26.03.4c.18,2.5.71,4.95,1.23,7.31.48,2.18.97,4.42,1.17,6.68.05.5.09,1.04.1,1.59-.57-1.16-1.42-2.43-2.38-3.87-2.53-3.79-5.98-8.99-6.95-16.04-1.03-7.54-.29-16.48,0-17.2l.29-.43-.47-.23c-5.3-3.23-8.27-8.73-8.14-15.08.2-10.24,7.07-13.55,7.36-13.68l.28-.13v-.31c.07-3.96.83-14.56,3.53-16.14.22-.13.46-.19.73-.19,2.92,0,8.19,6.56,9.98,9.09l.16.22h.45c1.23,0,12.23.25,19.24,9.13l.19.24.3-.06c.05,0,5.12-.99,9.07-.99,2.98,0,3.89.56,4.17.89,1.58,1.87-5.52,12.78-6.74,13.85l-.18.16v.24s.15,2.95-.83,6.38l-.17.59.61.05c1.11.08,27.29,2.35,38.6,25.28,7.26,14.72,10.85,25.92,10.66,33.29v.38c0,.58-.19,1.67-.69,2.83l-.28.65.7.05c3.38.25,6.47.51,9.19.78.7.07,1.37.14,2.02.21,11.49,1.24,12.56,2.34,12.66,2.54-.12.17-1.49,1.47-16.85,2.88l-53.91,2.74c-19.76.54-42.08.83-64.53.83ZM63.72,154.8c.43,2.5-1.22,4.45-1.24,4.46l-.52.6.77.21c.44.12.72.34.86.7.51,1.24-.67,3.69-1.16,4.53l-.25.42.41.26c2.11,1.33-.28,5.8-.31,5.84l-.16.28.19.26c1.54,2.08,1.12,3.42.52,5.28-.36,1.13-.77,2.41-.73,4.02.02.69-.28,1.52-.87,2.39l-.56.82.99-.04c8.59-.34,17.96-.62,27.85-.84l1.22-.03-.89-.84c-2.33-2.19-.08-5.07.01-5.19l.15-.19-.05-.24c-.53-2.31,1.07-3.79,1.14-3.86l.51-.46-.59-.34c-.07-.04-1.82-1.16-1.52-5.08.31-3.87,3.12-4.4,3.24-4.42l.4-.07.02-.41c.02-.5,0-.96-.05-1.41v-.09s.04,0,.04,0c.22-.89-.06-1.93-.31-2.84-.08-.3-.16-.59-.21-.86-1.11-3.08-.56-6.94,2.61-8.15l-.27-.96c-2.56.47-4.34,3.4-4.39,5.85-.22,1.78.38,3.44.96,5.04.19.51.38,1.04.53,1.56-14.47-.48-27.52-6.67-27.65-6.74l-.87-.42.16.95ZM107.77,162.08l.38.18c.75.35,1.23.88,1.42,1.58.24.86,0,1.93-.64,2.86l-.28.4.4.29c.46.33.73.63.86.94.45,1.27-.32,2.75-.94,3.76l-.26.42.42.26c3.11,1.96,2.39,6.29,2.09,7.57-.21.93-.46,1.81-.77,2.59l-.27.69h1.48s.13-.31.13-.31c.4-.91.69-1.77.9-2.63.76-2.77.65-6.45-1.84-8.62.85-1.7,1.2-3.93-.24-5.34.16-.35.29-.69.38-1.05.46-1.47-.09-3.1-1.31-4.09,4.23-3.33,6.84-8.27,7.03-13.34l-1-.06c-.46,5.24-3.49,10.24-7.91,13.04l-.7.44.67.39v.04ZM166.89,130.25c-.27.95-.38,3.05-.38,3.14l-.02.37.35.13c7.48,2.75,14.15,4.14,19.84,4.14,10.21,0,13.74-4.44,13.89-4.63l-.68-.72c-2.37,1.63-5.66,2.46-9.79,2.46-10.29,0-22.41-5.16-22.53-5.21l-.52-.23-.15.55ZM91.09,116.31c-.7,2.69-2.19,3.73-2.21,3.74l-.66.45.69.4c7.07,4.09,28.32,4.43,29.22,4.44h.6s-.1-.58-.1-.58c-.55-3.36.79-4.46.81-4.47l1.38-1.09-1.74.19c-1.6.18-3.3.27-5.07.27-11.23,0-22.16-3.66-22.27-3.7l-.51-.17-.13.52ZM179.82,117.06c.3,1.63,1.02,3.53,2.7,4.43.6.32,1.29.49,2.03.49.83,0,1.74-.2,2.72-.6.35-.15.55-.51.47-.89-.07-.36-.36-.61-.71-.61-.1,0-.19.02-.29.06-.85.35-1.57.52-2.2.52-.41,0-.79-.08-1.13-.23-.63-.28-1.16-.85-1.55-1.69-.29-.61-.5-1.35-.62-2.19-.03-.21-.05-.43-.07-.64.18-.31.33-.64.48-.96.08-.17.15-.34.23-.49l.22-.44c4.1-1.05,4.4-1.64,4.5-1.84.28-.55.29-1.21.04-1.83-.34-.8-1.11-1.52-2.31-2.13-1.13-.58-1.96-.85-2.61-.85-.92,0-1.41.52-1.8,1.07-.17.25-.7.99.95,4.6l-1.07,2.15c-.03.06-.05.12-.07.17-.76.77-2,1.59-3.21,1.59-.46,0-.88-.12-1.25-.36-.91-.59-1.45-1.72-1.77-2.52-.12-.3-.41-.49-.73-.49-.26,0-.5.12-.64.33-.13.2-.16.44-.06.67,1.01,2.5,2.46,3.81,4.29,3.89h.17c1.05,0,2.15-.41,3.29-1.22ZM210.86,103.55c-2.74,0-8.63,1.94-8.88,2.02l-.72.24.5.57c3.43,3.91,3.88,8.69,3.89,8.74l.12,1.32.79-1.07c1.07-1.46,6.37-8.82,6.05-10.87-.05-.34-.23-.53-.37-.63-.3-.21-.73-.31-1.37-.31ZM190.32,109.74c.56,0,1.11.16,1.57.47.48.32.91.8,1.31,1.48.13.22.36.35.61.35.26,0,.51-.15.64-.37.13-.22.12-.48,0-.71-.8-1.36-1.86-2.24-3.06-2.54-.33-.08-.68-.13-1.04-.13-.51,0-1.02.09-1.51.25-.19.06-.38.14-.55.23-.29.15-.43.47-.35.79.08.33.37.56.7.56.12,0,.24-.03.34-.09.22-.12.56-.22.91-.27.15-.02.29-.03.44-.03ZM109.98,104.79c-.28,0-.58.08-.9.25-.77.4-1.1,1.24-.87,2.18.38,1.56,2.19,3.22,4.79,3.22,2.9-.02,6.26-1.6,7.88-2.36.3-.14.61-.29.77-.35.12.06.35.18.55.28.98.53,2.62,1.41,4.17,1.41.19,0,.39-.01.58-.04,1.08-.17,1.96-.74,2.46-1.61.39-.68.51-1.47.3-2.02-.1-.26-.38-.69-1.14-.69-.55,0-1.11.23-1.17.25-.92.56-1.69.82-2.35.82-1.02,0-1.61-.65-1.91-1.15,1.57-.38,3.11-1.55,3.07-3.86-.05-2.58-3.17-3.96-5.41-3.96h-.11c-1.82.04-6.07.12-6.21,4.2-.04,1.07.26,1.94.88,2.59.8.83,1.94,1.07,2.67,1.13-.23.57-.92.99-3.62,1.29-.23.02-.43.04-.63.04-1.29,0-1.88-.5-2.4-.95-.39-.33-.79-.67-1.38-.67ZM179.59,105.51c.07.35.37.6.73.6.21,0,.4-.08.53-.23.13-.15.18-.34.16-.54-.2-1.55-1.33-2.95-2.83-3.49-.54-.19-1.15-.29-1.81-.29-.24,0-.48.01-.72.04-.39.04-.68.38-.66.77.02.38.31.66.68.66.26-.02.46-.03.65-.03.95,0,1.71.24,2.26.72.42.37.74.88.91,1.46.03.09.05.17.07.26,0,.03,0,.05.02.08ZM169.63,86.95c-1.8,0-2.45,6.82-2.69,12.53l-.05,1.33.92-.96s3.37-3.49,8.49-4.41l.74-.13-.41-.63c-1.17-1.79-5.13-7.64-6.95-7.72h-.04ZM60.45,60.45c-1.05,0-2.05.3-2.96.88-.1.05-11.37,6.74-11,18.15.37,11.22,7.6,19.08,17.99,19.57.5.02.98.04,1.46.04,7.98,0,13.41-3.44,14.94-9.46.85-.57,4.36-3.15,3.86-6.84-.45-3.26-2.22-4.96-2.94-5.52.22-1.14.8-4.89-.76-7.29-.62-.96-1.51-1.59-2.64-1.88-.27-1.4-1.55-6.46-6.1-6.76-.37-.02-.73-.04-1.06-.04-3.08,0-4.63.97-5.29,1.55-.85-.75-3.01-2.41-5.51-2.41ZM143.35,71.76c-3.07,1.31-2.75,5.17-2.12,7.09l.05.16.14.1c3.15,2.19,1.39,7.27,1.38,7.33l-.11.32.25.22c2.78,2.48,1.43,7.14,1.42,7.19l-.13.43.41.17c1.38.58,2.47,2,2.48,2.02l.13.17.22.02c.15.01.28.02.42.02,1.47,0,2.18-.85,2.44-1.51,4.94-.48,8.7-2.32,10.89-5.34,2.1-2.9,2.67-6.73,1.63-11.08-1.96-8.21-8.95-13.59-9.62-14.1-.27-.29-1.74-1.77-4.07-1.77-.58,0-1.17.09-1.75.28-2.67.84-2.86,3.57-2.54,5.26-.43.16-.78.44-1.04.81-.5.73-.52,1.67-.47,2.21ZM106.77,85.22c-1.08,0-2.14.18-3.15.53-1.81.64-3.52,1.78-4.94,3.31-.36.39-.64.72-.87,1.05-.22.32-.26.7-.09,1.02.18.35.59.59,1,.59.35,0,.68-.17.88-.46l.05-.08s.04-.04.08-.09c.2-.24.41-.48.63-.71.71-.73,1.48-1.35,2.29-1.83,1.3-.78,2.71-1.17,4.17-1.17s2.82.36,4.19,1.07c.16.08.33.13.5.13.49,0,.94-.36,1.06-.86.11-.47-.09-.91-.53-1.14-1.72-.9-3.55-1.37-5.29-1.37ZM129.19,87.87c1.07,0,2.09.29,3.04.85.6.36,1.16.81,1.69,1.35.17.17.32.35.48.53l.07.09c.21.29.53.46.89.46.42,0,.82-.24,1-.59.17-.32.14-.71-.09-1.02-1.65-2.34-4.43-3.85-7.08-3.85-1.37.01-2.72.38-4.08,1.08-.43.23-.64.67-.53,1.14.12.5.57.86,1.06.86.17,0,.34-.04.5-.13,1-.52,2.03-.78,3.05-.78ZM90.25,77.9c-.23,0-.44.09-.58.25-.14.16-.2.37-.17.59.15,1.09.53,3.98,2.92,4.45.21.04.42.06.63.06.99,0,2.08-.42,3.31-1.28.07-.05.18-.14.3-.26.04-.04.1-.09.16-.15.23.18.5.31.63.37.25.11.51.22.77.32.68.26,1.31.42,1.93.5.28.04.56.06.84.06,1.5,0,2.86-.58,3.82-1.62.44-.48.81-1.05,1.08-1.66,1.26.85,2.45,1.28,3.55,1.28,1.02,0,1.93-.37,2.71-1.1.78-.72,1.3-1.63,1.63-2.43,1.37,1.68,2.72,2.49,4.11,2.49.43,0,.86-.08,1.28-.24.67-.26,1.32-.72,1.87-1.35.94,1.75,2.32,2.85,4.03,3.2.45.09.92.14,1.41.14,1.21,0,2.55-.29,3.96-.86.15-.06.33-.16.53-.27.11-.07.28-.16.41-.23.19.29.42.53.42.54.51.46,1.06.81,1.65,1.05.66.27,1.39.41,2.16.41,1.01,0,2.05-.25,2.93-.7.32-.17.48-.51.4-.86-.09-.36-.42-.63-.78-.63-.13,0-.25.03-.37.09-.65.33-1.33.5-2.02.5-1.37,0-2.68-.67-3.6-1.83-.14-.17-.36-.27-.6-.27-.15,0-.29.04-.41.11-1.05.62-2.27,1.05-3.51,1.26-.36.06-.71.09-1.05.09-2.19,0-3.84-1.27-4.64-3.58-.11-.32-.43-.55-.78-.55-.29,0-.54.15-.68.41-.37.71-.92,1.31-1.52,1.66-.36.21-.71.31-1.07.31-1.12,0-2.37-1.02-3.73-3.03-.15-.23-.41-.36-.69-.36-.37,0-.68.24-.76.6-.23,1-.66,1.95-1.23,2.67-.59.76-1.28,1.12-2.11,1.12-1.24,0-2.53-.83-3.38-1.53-.15-.12-.34-.19-.54-.19-.37,0-.68.24-.76.6-.18.8-.64,1.62-1.23,2.19-.66.64-1.45.95-2.43.95-1.11,0-2.44-.41-3.96-1.23-.12-.06-.25-.1-.38-.1-.2,0-.39.08-.55.21-.68.61-1.46,1.09-2.2,1.36-.31.11-.59.17-.85.17-1.43,0-1.9-1.89-2.05-3.02-.06-.41-.4-.71-.83-.71ZM23.55,163.17c-3.71-11.96-5.59-24.43-5.59-37.27C17.97,56.48,74.45,0,143.87,0s125.91,56.48,125.91,125.91c0,12.82-1.87,25.27-5.57,37.22,2.77-10.58,4.17-21.51,4.17-32.69,0-69.85-55.85-126.68-124.51-126.68S19.37,60.57,19.37,130.43c0,11.2,1.4,22.15,4.19,32.74ZM192.35,68.77c-.29,0-.52-.23-.52-.52v-8.76c0-.84-.68-1.52-1.52-1.52h-8.77c-.29,0-.52-.23-.52-.52v-9.58c0-.29.23-.52.52-.52h8.77c.84,0,1.52-.68,1.52-1.52v-8.76c0-.29.23-.52.52-.52h9.58c.29,0,.52.23.52.52v8.76c0,.84.68,1.52,1.52,1.52h8.77c.29,0,.52.23.52.52v9.58c0,.29-.23.52-.52.52h-8.77c-.84,0-1.52.68-1.52,1.52v8.76c0,.29-.23.52-.52.52h-9.58Z"/>
</svg>