<svg width="262" height="65" viewBox="0 0 262 65" fill="none" xmlns="http://www.w3.org/2000/svg">
<path d="M85.3454 41.1393C85.3454 48.4628 83.4314 55.3377 80.0752 61.2949C79.8855 61.2732 79.6876 61.2501 79.4843 61.2285C72.879 60.5141 59.5599 60.0275 44.2049 60.0275C28.85 60.0275 15.5282 60.5155 8.92429 61.2285C8.72097 61.2501 8.52442 61.2732 8.33465 61.2949C4.97982 55.3377 3.06451 48.4615 3.06451 41.1393C3.06316 18.4192 21.4829 0 44.2049 0C66.927 0 85.3454 18.4192 85.3454 41.1393Z" fill="#F6B519"/>
<path d="M88.3967 61.9666C88.3967 62.3706 86.3512 62.7501 82.7673 63.0781H82.766L65.2138 63.97C58.9663 64.1435 51.8093 64.2424 44.205 64.2424C36.6007 64.2424 29.4411 64.1435 23.195 63.97C16.507 63.7829 10.8587 63.5105 6.81253 63.1784C6.40588 63.1445 6.01686 63.112 5.6441 63.0781C2.05747 62.7487 0.0133972 62.3706 0.0133972 61.9653C0.0133972 61.6156 1.54374 61.2821 4.27776 60.9866C4.48922 60.9636 4.70881 60.9406 4.93518 60.9189C12.286 60.1869 27.1137 59.6868 44.2064 59.6868C61.2991 59.6868 76.1241 60.1869 83.4762 60.9189C83.7026 60.9419 83.9236 60.965 84.135 60.9866C86.869 61.2835 88.3994 61.6142 88.3994 61.9653L88.3967 61.9666Z" fill="black"/>
<path d="M98.7962 57.1358C98.7386 57.1358 98.6834 57.1142 98.6402 57.0782C98.5898 57.035 98.5609 56.9726 98.5585 56.9054L98.2129 41.9908C98.2129 41.9908 94.876 42.2429 94.8688 42.2429C94.7464 42.2429 94.6432 42.1492 94.6336 42.0268L94.3095 38.426C94.3047 38.3612 94.3239 38.2988 94.3647 38.2508C94.4055 38.2027 94.4655 38.1715 94.5303 38.1691C94.5303 38.1691 105.453 37.4922 105.458 37.4922C105.518 37.4922 105.576 37.5162 105.621 37.557C105.669 37.6026 105.696 37.665 105.696 37.7298V41.249C105.696 41.3739 105.6 41.4771 105.477 41.4867L102.236 41.7387L102.69 56.4853C102.695 56.6101 102.601 56.7157 102.479 56.7277L98.8226 57.1334C98.8226 57.1334 98.8058 57.1334 98.7962 57.1334V57.1358Z" fill="#3FA3DB"/>
<path d="M104.077 56.5672C104.019 56.5672 103.962 56.5456 103.918 56.5072C103.87 56.4639 103.842 56.4039 103.839 56.3391L103.352 43.5034C103.347 43.3762 103.443 43.2682 103.57 43.2586L106.874 42.9873C106.874 42.9873 106.886 42.9873 106.893 42.9873C106.95 42.9873 107.008 43.0089 107.051 43.0473C107.099 43.0905 107.128 43.1505 107.13 43.2154L107.19 44.8981C107.582 44.5189 107.995 44.2188 108.422 44.0003C108.955 43.7291 109.476 43.5922 109.968 43.5922C110.016 43.5922 110.066 43.5922 110.114 43.597C110.638 43.6258 111.156 43.7555 111.651 43.9835C112.155 44.2164 112.582 44.5741 112.923 45.0494C113.25 45.5079 113.516 46.0192 113.713 46.5689C113.912 47.1282 113.994 47.7692 113.958 48.4749C113.919 49.1783 113.749 49.8841 113.451 50.573C113.413 50.6594 113.326 50.7171 113.233 50.7171C113.226 50.7171 113.218 50.7171 113.211 50.7171L110.071 50.4458C109.992 50.4386 109.922 50.393 109.884 50.3234C109.845 50.2537 109.845 50.1697 109.881 50.1001C110.294 49.3079 110.27 48.571 109.809 47.846C109.526 47.3827 109.209 47.1594 108.835 47.1594C108.753 47.1594 108.664 47.1715 108.576 47.1931C108.155 47.2843 107.791 47.6588 107.486 48.3093L107.781 56.0775C107.786 56.2047 107.687 56.3151 107.56 56.3247C107.56 56.3247 104.082 56.5696 104.077 56.5696V56.5672Z" fill="#3FA3DB"/>
<path d="M123.382 56.8906C123.27 56.8906 123.169 56.8089 123.15 56.6937L122.89 55.2126C122.266 56.1272 121.186 56.5905 119.673 56.5905C118.332 56.5905 117.234 56.312 116.413 55.7647C115.58 55.2102 115.05 54.4876 114.839 53.6186C114.635 52.788 114.555 51.8782 114.601 50.9108C114.647 49.9458 114.824 48.9952 115.127 48.0854C115.427 47.1876 115.729 46.4002 116.029 45.7472C116.339 45.0679 116.606 44.6142 116.843 44.3573C116.889 44.3093 116.951 44.2805 117.018 44.2805L120.627 44.3885C120.713 44.3909 120.792 44.4414 120.831 44.5182C120.869 44.595 120.864 44.6886 120.816 44.7582C120.446 45.3031 120.077 46.0065 119.714 46.8443C119.349 47.6893 119.035 48.6039 118.778 49.5593C118.531 50.4787 118.538 51.2613 118.795 51.8854C119.037 52.4712 119.553 52.7544 120.377 52.7544C121.8 52.7544 122.523 50.5291 122.523 46.1409V45.6536C122.523 45.5264 122.624 45.4208 122.751 45.416C122.751 45.416 126.006 45.2791 126.011 45.2791C126.134 45.2791 126.239 45.3752 126.249 45.4976C126.285 45.9729 126.318 47.0747 126.345 48.7743C126.371 50.4739 126.431 52.0103 126.52 53.3378C126.609 54.6533 126.758 55.6111 126.967 56.1824C126.991 56.252 126.983 56.3264 126.945 56.3889C126.907 56.4513 126.842 56.4921 126.77 56.4993L123.411 56.8786C123.411 56.8786 123.394 56.8786 123.385 56.8786L123.382 56.8906Z" fill="#3FA3DB"/>
<path d="M134.46 56.9466C132.58 56.9466 130.945 56.2624 129.606 54.9133C128.266 53.5642 127.587 51.9174 127.587 50.021C127.587 48.1246 128.266 46.4778 129.606 45.1287C130.945 43.7796 132.578 43.0955 134.46 43.0955C136.342 43.0955 137.974 43.7796 139.314 45.1287C140.653 46.4778 141.333 48.1246 141.333 50.021C141.333 51.9174 140.653 53.5642 139.314 54.9133C137.974 56.2624 136.342 56.9466 134.46 56.9466ZM134.433 46.7659C133.533 46.7659 132.786 47.0756 132.15 47.7117C131.514 48.3478 131.204 49.0944 131.204 49.9946C131.204 50.8948 131.514 51.6414 132.15 52.2775C132.786 52.9137 133.533 53.2233 134.433 53.2233C135.333 53.2233 136.08 52.9137 136.716 52.2775C137.352 51.6414 137.662 50.8948 137.662 49.9946C137.662 49.0944 137.352 48.3478 136.716 47.7117C136.08 47.0756 135.333 46.7659 134.433 46.7659Z" fill="#3FA3DB"/>
<path d="M142.61 56.2691C142.552 56.2691 142.494 56.2475 142.451 56.2091C142.403 56.1659 142.374 56.1058 142.372 56.041L141.94 44.6961C141.937 44.6312 141.961 44.5688 142.007 44.5232C142.053 44.4776 142.113 44.4512 142.177 44.4512H145.589C145.716 44.4512 145.819 44.5496 145.826 44.6769L145.862 45.373C147.214 44.7249 148.414 44.396 149.435 44.396C149.869 44.396 150.28 44.456 150.656 44.5736C151.989 44.9889 152.971 45.8435 153.576 47.1086C154.166 48.3473 154.447 49.8092 154.411 51.4536C154.375 53.0932 154.039 54.6415 153.417 56.053C153.379 56.1394 153.295 56.1947 153.199 56.1947L149.593 56.1394C149.516 56.1394 149.444 56.0986 149.401 56.0362C149.358 55.9714 149.348 55.8922 149.375 55.8178C149.639 55.1144 149.857 54.3174 150.027 53.446C150.196 52.5794 150.299 51.6985 150.335 50.8271C150.368 49.9893 150.236 49.2715 149.941 48.6978C149.663 48.1576 149.252 47.872 148.683 47.824C148.539 47.8096 148.405 47.8024 148.277 47.8024C147.394 47.8024 146.808 48.1456 146.482 48.8514C146.35 49.1635 146.261 49.598 146.218 50.1381C146.175 50.695 146.16 51.2087 146.177 51.6672C146.194 52.1257 146.239 52.8003 146.311 53.6741C146.386 54.5671 146.429 55.22 146.448 55.6737V55.765C146.448 55.8898 146.352 55.993 146.23 56.0026C146.23 56.0026 142.617 56.2739 142.61 56.2739V56.2691Z" fill="#3FA3DB"/>
<path d="M160.065 61.2664C159.52 61.2664 158.932 61.2328 158.318 61.168C158.214 61.156 158.13 61.0816 158.111 60.9783L157.434 57.6752C157.417 57.5984 157.441 57.5167 157.499 57.4591C157.545 57.4135 157.605 57.3895 157.667 57.3895C157.682 57.3895 157.698 57.3895 157.713 57.3943C158.066 57.4639 158.426 57.5143 158.781 57.5384C158.887 57.5456 159.002 57.5504 159.129 57.5504C159.429 57.5504 159.794 57.5288 160.217 57.4855C160.795 57.4255 161.29 57.2839 161.683 57.0679C162.063 56.859 162.384 56.4869 162.641 55.966C162.857 55.5267 162.953 54.977 162.929 54.3312C161.772 55.0274 160.567 55.3947 159.34 55.4283C159.285 55.4283 159.232 55.4283 159.18 55.4283C157.881 55.4283 156.738 54.977 155.787 54.0888C154.796 53.1646 154.256 51.8251 154.181 50.1087C154.217 47.8978 155.005 46.1934 156.522 45.0219C157.497 44.2706 158.627 43.8889 159.88 43.8889C160.483 43.8889 161.124 43.9777 161.791 44.1529V43.2479C161.791 43.1255 161.885 43.0223 162.01 43.0103L165.205 42.739C165.205 42.739 165.219 42.739 165.224 42.739C165.339 42.739 165.44 42.823 165.459 42.9383C165.515 43.2815 165.589 43.7881 165.69 44.4578C165.788 45.1276 165.858 45.5981 165.894 45.8693C166.525 49.9598 166.816 52.8621 166.763 54.4921C166.689 57.6056 165.659 59.6532 163.702 60.575C162.735 61.0311 161.513 61.264 160.07 61.264L160.065 61.2664ZM160.401 47.4945C159.732 47.4945 159.168 47.7009 158.675 48.1282C158.202 48.5387 158.01 49.0861 158.092 49.8038C158.157 50.4616 158.371 50.9465 158.726 51.2465C159.062 51.5298 159.429 51.6666 159.852 51.6666C159.885 51.6666 159.919 51.6666 159.955 51.6642C160.447 51.6378 160.934 51.5226 161.402 51.3186C161.827 51.1337 162.166 50.9105 162.411 50.6584C162.404 50.1327 162.327 49.1437 162.185 47.7129C161.635 47.5689 161.035 47.4945 160.401 47.4945Z" fill="#3FA3DB"/>
<path d="M97.6085 56.0658C97.5221 56.0658 97.438 56.0346 97.3732 55.977C97.2988 55.9122 97.2532 55.8162 97.2508 55.7177L96.9075 40.9304L93.7075 41.1729C93.7075 41.1729 93.6883 41.1729 93.6811 41.1729C93.4986 41.1729 93.3426 41.0336 93.3258 40.8488L93.0017 37.2456C92.9921 37.1495 93.0233 37.0535 93.0857 36.9815C93.1481 36.9095 93.237 36.8639 93.333 36.8591C93.333 36.8591 104.261 36.1821 104.268 36.1821C104.359 36.1821 104.445 36.2157 104.513 36.2781C104.585 36.3454 104.625 36.439 104.625 36.5374V40.0566C104.625 40.2438 104.481 40.3975 104.297 40.4119L101.169 40.6567L101.617 55.2904C101.622 55.4753 101.485 55.6361 101.301 55.6553L97.6445 56.061C97.6325 56.061 97.6181 56.061 97.6061 56.061L97.6085 56.0658Z" fill="#221F1F"/>
<path d="M102.889 55.4972C102.802 55.4972 102.716 55.4659 102.651 55.4059C102.579 55.3411 102.536 55.2499 102.534 55.1539L102.046 42.3182C102.039 42.1285 102.183 41.9653 102.373 41.9485L105.676 41.6772C105.676 41.6772 105.695 41.6772 105.705 41.6772C105.791 41.6772 105.875 41.7084 105.942 41.7685C106.014 41.8333 106.058 41.9245 106.062 42.0229L106.113 43.4464C106.456 43.1416 106.814 42.8943 107.181 42.7071C107.731 42.4262 108.269 42.287 108.78 42.287C108.83 42.287 108.881 42.287 108.931 42.2918C109.471 42.3206 110.002 42.455 110.511 42.6903C111.034 42.9327 111.478 43.3048 111.829 43.7945C112.162 44.2626 112.434 44.7835 112.633 45.3453C112.837 45.919 112.921 46.5768 112.883 47.2969C112.844 48.0147 112.671 48.7324 112.366 49.4358C112.309 49.5678 112.182 49.6518 112.04 49.6518C112.03 49.6518 112.021 49.6518 112.009 49.6518L108.869 49.3806C108.751 49.371 108.646 49.3014 108.588 49.1981C108.53 49.0949 108.528 48.9677 108.583 48.8621C108.974 48.1107 108.953 47.4121 108.518 46.7256C108.257 46.2983 107.973 46.0942 107.644 46.0942C107.572 46.0942 107.493 46.1038 107.414 46.123C107.035 46.2047 106.701 46.5479 106.418 47.1481L106.713 54.8874C106.72 55.0795 106.574 55.2427 106.382 55.2571L102.915 55.4996C102.915 55.4996 102.898 55.4996 102.891 55.4996L102.889 55.4972Z" fill="#221F1F"/>
<path d="M122.196 55.8212C122.025 55.8212 121.877 55.6987 121.845 55.5259L121.634 54.316C120.972 55.1178 119.918 55.5235 118.487 55.5235C117.056 55.5235 116.002 55.2402 115.162 54.6785C114.303 54.1072 113.758 53.3606 113.537 52.4628C113.33 51.6226 113.251 50.6984 113.297 49.7214C113.342 48.7468 113.523 47.7842 113.83 46.8647C114.13 45.9621 114.435 45.1724 114.737 44.5146C115.054 43.8257 115.325 43.36 115.57 43.0935C115.637 43.0191 115.733 42.9783 115.832 42.9783C115.834 42.9783 119.445 43.0863 119.445 43.0863C119.574 43.0911 119.692 43.1655 119.752 43.2807C119.812 43.396 119.803 43.5352 119.731 43.6432C119.366 44.1833 118.998 44.8795 118.638 45.7101C118.276 46.5503 117.964 47.4577 117.707 48.4107C117.467 49.3037 117.472 50.0599 117.719 50.66C117.86 51.0009 118.165 51.4546 119.19 51.4546C120.516 51.4546 121.216 49.2077 121.216 44.9611V44.4738C121.216 44.2818 121.368 44.1257 121.557 44.1185C121.557 44.1185 124.817 43.9817 124.822 43.9817C125.007 43.9817 125.163 44.1233 125.177 44.3106C125.213 44.7883 125.247 45.8925 125.274 47.5945C125.3 49.2917 125.36 50.8256 125.449 52.1531C125.535 53.459 125.684 54.4049 125.888 54.9666C125.926 55.0698 125.914 55.1826 125.857 55.2762C125.799 55.3699 125.703 55.4299 125.593 55.4419L122.234 55.8212C122.22 55.8212 122.208 55.8212 122.194 55.8212H122.196Z" fill="#221F1F"/>
<path d="M133.272 55.8763C131.358 55.8763 129.697 55.1802 128.334 53.8071C126.97 52.4364 126.281 50.7608 126.281 48.8307C126.281 46.9007 126.972 45.2275 128.334 43.8544C129.697 42.4813 131.358 41.7852 133.272 41.7852C135.185 41.7852 136.846 42.4813 138.21 43.8544C139.573 45.2275 140.262 46.9007 140.262 48.8307C140.262 50.7608 139.571 52.434 138.21 53.8071C136.846 55.1802 135.185 55.8763 133.272 55.8763ZM133.245 45.6956C132.379 45.6956 131.658 45.9933 131.046 46.6054C130.434 47.2176 130.136 47.9377 130.136 48.8043C130.136 49.6709 130.434 50.3887 131.046 51.0032C131.658 51.6154 132.379 51.913 133.245 51.913C134.112 51.913 134.832 51.6154 135.444 51.0032C136.056 50.3911 136.356 49.6709 136.356 48.8043C136.356 47.9377 136.059 47.2176 135.444 46.6054C134.832 45.9933 134.112 45.6932 133.245 45.6932V45.6956Z" fill="#221F1F"/>
<path d="M141.421 55.2C141.335 55.2 141.248 55.1688 141.183 55.1087C141.111 55.0439 141.068 54.9527 141.063 54.8567L140.631 43.5117C140.627 43.4157 140.663 43.3221 140.73 43.2501C140.797 43.178 140.891 43.1396 140.987 43.1396H144.398C144.588 43.1396 144.744 43.2885 144.753 43.4781L144.78 43.9966C146.083 43.3893 147.245 43.082 148.244 43.082C148.69 43.082 149.113 43.142 149.499 43.2645C150.865 43.6918 151.871 44.5656 152.49 45.8618C153.09 47.1173 153.374 48.5985 153.338 50.262C153.302 51.9184 152.963 53.4812 152.332 54.9071C152.274 55.0367 152.147 55.1183 152.005 55.1183L148.397 55.0631C148.282 55.0631 148.174 55.0031 148.109 54.9071C148.044 54.8111 148.03 54.6886 148.071 54.5806C148.332 53.8845 148.551 53.0923 148.719 52.2281C148.887 51.3663 148.988 50.4925 149.024 49.6283C149.057 48.8097 148.928 48.1136 148.642 47.559C148.383 47.0573 148.004 46.7933 147.48 46.7501C147.339 46.7356 147.207 46.7285 147.084 46.7285C146.254 46.7285 145.701 47.0501 145.397 47.7079C145.272 48.0031 145.185 48.4256 145.144 48.9537C145.101 49.5059 145.087 50.0148 145.104 50.4685C145.12 50.9246 145.166 51.5991 145.238 52.4705C145.313 53.3659 145.356 54.0213 145.375 54.475V54.571C145.375 54.7583 145.231 54.9119 145.046 54.9263L141.445 55.1976C141.445 55.1976 141.428 55.1976 141.419 55.1976L141.421 55.2Z" fill="#221F1F"/>
<path d="M158.88 60.1977C158.33 60.1977 157.737 60.1641 157.12 60.0993C156.966 60.0825 156.839 59.9697 156.808 59.816L156.131 56.5129C156.107 56.3953 156.143 56.2752 156.227 56.1912C156.294 56.124 156.385 56.0856 156.479 56.0856C156.503 56.0856 156.525 56.0856 156.549 56.0928C156.897 56.1624 157.252 56.2104 157.603 56.2368C157.706 56.244 157.819 56.2488 157.941 56.2488C158.236 56.2488 158.599 56.2272 159.017 56.184C159.578 56.1264 160.058 55.9896 160.438 55.7807C160.795 55.5839 161.1 55.2286 161.348 54.7293C161.532 54.3524 161.626 53.8915 161.628 53.3514C160.507 53.9899 159.343 54.3308 158.157 54.362C158.102 54.362 158.047 54.362 157.992 54.362C156.662 54.362 155.492 53.9011 154.518 52.9913C153.502 52.0455 152.95 50.6772 152.876 48.9296C152.914 46.6755 153.716 44.9375 155.262 43.7444C156.258 42.9763 157.413 42.585 158.692 42.585C159.261 42.585 159.862 42.6618 160.486 42.8154V42.064C160.486 41.8792 160.627 41.7256 160.812 41.7088L164.007 41.4375C164.007 41.4375 164.027 41.4375 164.039 41.4375C164.211 41.4375 164.363 41.5647 164.389 41.7376C164.444 42.0808 164.521 42.5874 164.62 43.2571C164.718 43.9269 164.788 44.3974 164.824 44.671C165.455 48.7664 165.748 51.6758 165.693 53.3154C165.618 56.4769 164.564 58.5582 162.565 59.5016C161.58 59.9649 160.342 60.2025 158.882 60.2025L158.88 60.1977ZM159.216 46.4258C158.575 46.4258 158.037 46.6227 157.567 47.0284C157.125 47.41 156.947 47.9238 157.024 48.6007C157.086 49.2297 157.286 49.6858 157.617 49.9666C157.929 50.2307 158.272 50.3603 158.668 50.3603C158.7 50.3603 158.733 50.3603 158.764 50.3579C159.242 50.3339 159.715 50.2211 160.171 50.0218C160.563 49.8514 160.877 49.6498 161.107 49.4241C161.095 48.9032 161.023 47.9622 160.891 46.6203C160.373 46.4906 159.811 46.4258 159.218 46.4258H159.216Z" fill="#221F1F"/>
<path d="M93.6846 40.8149L93.3606 37.2141L104.274 36.5371V40.0563L100.807 40.3276L101.268 55.3021L97.612 55.7078L97.2592 40.5436L93.6846 40.8149Z" fill="#3FA3DB"/>
<path d="M102.403 42.3052L105.707 42.0339L105.788 44.2808C106.276 43.7215 106.794 43.3014 107.346 43.0206C107.896 42.7397 108.419 42.6149 108.916 42.6413C109.413 42.6677 109.896 42.7901 110.366 43.0062C110.834 43.2222 111.228 43.5535 111.545 43.9952C111.862 44.4369 112.114 44.9242 112.304 45.4571C112.493 45.99 112.57 46.595 112.534 47.2719C112.498 47.9489 112.335 48.621 112.047 49.2884L108.907 49.0171C109.358 48.1505 109.332 47.3199 108.825 46.5253C108.429 45.8748 107.932 45.6227 107.337 45.7668C106.83 45.8748 106.408 46.3093 106.064 47.0655L106.362 54.8912L102.896 55.1361L102.408 42.3004L102.403 42.3052Z" fill="#3FA3DB"/>
<path d="M115.36 54.3822C114.575 53.8589 114.083 53.1916 113.883 52.3778C113.684 51.5664 113.607 50.6854 113.653 49.7372C113.699 48.789 113.869 47.8696 114.167 46.9766C114.464 46.0836 114.762 45.3106 115.06 44.6625C115.357 44.0119 115.614 43.5702 115.83 43.335L119.431 43.443C119.052 44.0023 118.678 44.7105 118.308 45.5675C117.938 46.4245 117.621 47.3415 117.36 48.3161C117.098 49.2907 117.108 50.1165 117.386 50.7934C117.664 51.4704 118.267 51.8089 119.186 51.8089C120.776 51.8089 121.57 49.526 121.57 44.9577V44.4704L124.821 44.336C124.857 44.8065 124.888 45.8915 124.914 47.5983C124.941 49.3051 125.001 50.8295 125.09 52.1738C125.181 53.5181 125.334 54.4879 125.55 55.0856L122.192 55.4649L121.813 53.2996C121.325 54.5455 120.214 55.1672 118.483 55.1672C117.184 55.1672 116.14 54.9056 115.355 54.3822H115.36Z" fill="#3FA3DB"/>
<path d="M133.273 55.5179C131.448 55.5179 129.888 54.8626 128.589 53.5543C127.291 52.246 126.64 50.6712 126.64 48.83C126.64 46.9888 127.291 45.414 128.589 44.1057C129.888 42.7974 131.451 42.1421 133.273 42.1421C135.095 42.1421 136.658 42.7974 137.956 44.1057C139.255 45.414 139.906 46.9888 139.906 48.83C139.906 50.6712 139.255 52.246 137.956 53.5543C136.658 54.8626 135.095 55.5179 133.273 55.5179ZM133.246 45.3372C132.289 45.3372 131.472 45.6757 130.795 46.3526C130.118 47.0296 129.78 47.8458 129.78 48.8036C129.78 49.7614 130.118 50.5776 130.795 51.2545C131.472 51.9315 132.289 52.27 133.246 52.27C134.204 52.27 135.021 51.9315 135.698 51.2545C136.374 50.5776 136.713 49.7614 136.713 48.8036C136.713 47.8458 136.374 47.0296 135.698 46.3526C135.021 45.6757 134.204 45.3372 133.246 45.3372Z" fill="#3FA3DB"/>
<path d="M141.424 54.8411L140.991 43.4962H144.403L144.458 44.5524C146.479 43.5226 148.126 43.2081 149.401 43.6042C150.673 44.0027 151.597 44.8045 152.176 46.0143C152.754 47.2242 153.023 48.6357 152.987 50.2513C152.951 51.8669 152.627 53.3696 152.013 54.7595L148.412 54.7043C148.683 53.9818 148.904 53.18 149.074 52.2942C149.245 51.4108 149.35 50.525 149.386 49.6416C149.422 48.7582 149.283 48.0068 148.966 47.3947C148.649 46.7801 148.167 46.4465 147.516 46.3936C146.306 46.2664 145.495 46.6553 145.08 47.5579C144.936 47.9012 144.84 48.3573 144.796 48.9262C144.751 49.4951 144.736 50.0137 144.756 50.4842C144.772 50.9547 144.818 51.6268 144.89 52.5006C144.962 53.3768 145.008 54.0394 145.025 54.4907V54.5723L141.424 54.8435V54.8411Z" fill="#3FA3DB"/>
<path d="M156.481 56.4396C156.841 56.5116 157.209 56.562 157.578 56.5884C157.948 56.6148 158.44 56.598 159.055 56.5332C159.669 56.4708 160.188 56.3195 160.613 56.0867C161.038 55.8514 161.388 55.4505 161.669 54.8816C161.947 54.3127 162.043 53.5949 161.952 52.7283C160.726 53.5421 159.456 53.9646 158.147 54.0006C156.839 54.0366 155.711 53.6117 154.762 52.7283C153.814 51.8449 153.305 50.5726 153.233 48.9115C153.269 46.7822 154.018 45.1522 155.48 44.024C156.942 42.8957 158.731 42.6484 160.841 43.2798V42.0603L164.036 41.7891C164.091 42.1323 164.166 42.6389 164.266 43.3062C164.365 43.9736 164.432 44.4441 164.471 44.7153C165.102 48.813 165.392 51.6745 165.337 53.2997C165.265 56.3315 164.29 58.2904 162.413 59.1762C161.114 59.7907 159.362 59.978 157.161 59.7451L156.484 56.442L156.481 56.4396ZM157.389 50.239C157.794 50.5822 158.26 50.7407 158.783 50.7119C159.307 50.6855 159.816 50.563 160.313 50.347C160.81 50.1309 161.194 49.8693 161.463 49.562C161.463 49.0387 161.381 47.9632 161.218 46.3405C160.603 46.1604 159.936 46.0692 159.213 46.0692C158.491 46.0692 157.864 46.2997 157.331 46.7606C156.798 47.2215 156.577 47.848 156.669 48.6426C156.741 49.3652 156.981 49.8981 157.386 50.239H157.389Z" fill="#3FA3DB"/>
<path d="M175.044 56.7453C173.781 56.7453 172.36 56.5076 170.817 56.0419C170.711 56.0107 170.644 55.9123 170.649 55.8018L171.571 37.6873C171.575 37.5745 171.662 37.4809 171.775 37.4641C172.49 37.3585 173.193 37.3057 173.861 37.3057C174.711 37.3057 175.532 37.3921 176.302 37.5601C177.682 37.865 178.854 38.3739 179.781 39.0797C180.702 39.7806 181.485 40.64 182.112 41.6338C182.738 42.6277 183.173 43.7031 183.403 44.8266C183.631 45.9428 183.701 47.0951 183.61 48.2497C183.48 49.6493 183.117 50.948 182.529 52.1146C181.939 53.2861 181.101 54.3063 180.04 55.1465C178.972 55.9915 177.651 56.51 176.115 56.6852C175.772 56.7236 175.414 56.7453 175.047 56.7453H175.044ZM174.629 52.6739C174.958 52.7387 175.275 52.77 175.572 52.77C176.549 52.77 177.354 52.4363 178.028 51.7497C178.96 50.8015 179.5 49.5316 179.639 47.9689C179.778 46.2981 179.44 44.7834 178.631 43.4703C177.87 42.234 176.799 41.6098 175.359 41.569L174.629 52.6739Z" fill="#E669A0"/>
<path d="M193.091 56.8891C192.978 56.8891 192.877 56.8075 192.858 56.6922L192.599 55.2111C191.975 56.1257 190.895 56.589 189.382 56.589C188.04 56.589 186.943 56.3106 186.122 55.7632C185.289 55.2087 184.759 54.4861 184.547 53.6172C184.343 52.7866 184.264 51.8744 184.31 50.9093C184.355 49.9467 184.533 48.9961 184.835 48.0839C185.133 47.1885 185.438 46.4011 185.738 45.7458C186.048 45.0664 186.314 44.6127 186.552 44.3559C186.597 44.3079 186.66 44.2791 186.727 44.2791L190.335 44.3871C190.422 44.3895 190.501 44.4399 190.539 44.5167C190.578 44.5935 190.573 44.6871 190.525 44.7568C190.155 45.3017 189.785 46.005 189.423 46.8428C189.058 47.6854 188.744 48.6 188.487 49.5578C188.239 50.4772 188.247 51.2598 188.504 51.884C188.746 52.4697 189.262 52.753 190.086 52.753C191.509 52.753 192.232 50.5277 192.232 46.1395V45.6522C192.232 45.5249 192.332 45.4193 192.46 45.4145C192.46 45.4145 195.715 45.2777 195.72 45.2777C195.842 45.2777 195.948 45.3737 195.957 45.4961C195.993 45.969 196.027 47.0733 196.053 48.7729C196.08 50.4676 196.14 52.004 196.229 53.3363C196.317 54.6518 196.466 55.6096 196.675 56.1809C196.699 56.2506 196.692 56.325 196.654 56.3874C196.615 56.4498 196.55 56.4906 196.478 56.4978L193.12 56.8771C193.12 56.8771 193.101 56.8771 193.093 56.8771L193.091 56.8891Z" fill="#E669A0"/>
<path d="M197.965 56.2679C197.907 56.2679 197.85 56.2463 197.807 56.2078C197.759 56.1646 197.73 56.1046 197.727 56.0398L197.295 44.6948C197.295 44.63 197.317 44.5676 197.363 44.522C197.408 44.4764 197.468 44.45 197.533 44.45H200.944C201.072 44.45 201.175 44.5484 201.182 44.6756L201.218 45.3718C202.569 44.7237 203.77 44.3948 204.79 44.3948C205.225 44.3948 205.635 44.4548 206.01 44.5724C207.342 44.9877 208.324 45.8423 208.929 47.1074C209.519 48.3461 209.8 49.808 209.764 51.4524C209.728 53.0919 209.392 54.6403 208.77 56.0518C208.732 56.1382 208.648 56.1934 208.552 56.1934L204.946 56.1382C204.869 56.1382 204.797 56.0974 204.754 56.035C204.711 55.9702 204.701 55.891 204.728 55.8166C204.992 55.1132 205.21 54.3162 205.381 53.4448C205.549 52.5782 205.652 51.6972 205.688 50.8258C205.721 49.988 205.589 49.2703 205.294 48.6965C205.016 48.1564 204.605 47.8708 204.036 47.8228C203.892 47.8084 203.758 47.8011 203.628 47.8011C202.745 47.8011 202.159 48.1444 201.832 48.8502C201.7 49.1598 201.612 49.5967 201.568 50.1369C201.525 50.6938 201.511 51.2075 201.528 51.666C201.544 52.1293 201.59 52.7847 201.662 53.6729C201.736 54.5707 201.78 55.2236 201.799 55.6725V55.7637C201.799 55.8886 201.703 55.9918 201.58 56.0014C201.58 56.0014 197.968 56.2727 197.96 56.2727L197.965 56.2679Z" fill="#E669A0"/>
<path d="M215.42 61.2657C214.875 61.2657 214.287 61.2321 213.673 61.1672C213.569 61.1552 213.485 61.0808 213.464 60.9776L212.787 57.6745C212.77 57.5976 212.794 57.516 212.852 57.4584C212.897 57.4128 212.957 57.3888 213.02 57.3888C213.034 57.3888 213.051 57.3888 213.065 57.3936C213.418 57.4632 213.778 57.5136 214.134 57.5376C214.239 57.5448 214.354 57.5496 214.479 57.5496C214.779 57.5496 215.144 57.528 215.567 57.4848C216.145 57.4248 216.64 57.2832 217.034 57.0671C217.413 56.8583 217.735 56.4862 217.991 55.9653C218.207 55.526 218.306 54.9762 218.282 54.3305C217.125 55.0267 215.92 55.3939 214.693 55.4275C214.64 55.4275 214.585 55.4275 214.532 55.4275C213.233 55.4275 212.091 54.9762 211.14 54.088C210.149 53.1638 209.608 51.8243 209.534 50.1079C209.57 47.897 210.357 46.1903 211.875 45.0212C212.849 44.2698 213.98 43.8881 215.233 43.8881C215.836 43.8881 216.477 43.977 217.144 44.1522V43.2472C217.144 43.1248 217.238 43.0215 217.362 43.0095L220.558 42.7383C220.558 42.7383 220.572 42.7383 220.577 42.7383C220.692 42.7383 220.793 42.8223 220.812 42.9375C220.867 43.2808 220.944 43.7873 221.043 44.4571C221.141 45.1268 221.211 45.5973 221.247 45.8686C221.878 49.9591 222.168 52.8638 222.116 54.4913C222.041 57.6048 221.011 59.6525 219.055 60.5743C218.087 61.0304 216.866 61.2633 215.423 61.2633L215.42 61.2657ZM215.756 47.4938C215.087 47.4938 214.523 47.7002 214.03 48.1275C213.557 48.538 213.365 49.0853 213.447 49.8031C213.512 50.4608 213.726 50.9457 214.081 51.2458C214.417 51.5291 214.784 51.6659 215.207 51.6659C215.24 51.6659 215.274 51.6659 215.308 51.6635C215.8 51.6371 216.287 51.5219 216.755 51.3178C217.182 51.133 217.519 50.9097 217.763 50.6577C217.756 50.1344 217.679 49.1453 217.538 47.7122C216.988 47.5682 216.388 47.4938 215.754 47.4938H215.756Z" fill="#E669A0"/>
<path d="M173.855 55.6748C172.58 55.6748 171.147 55.4372 169.594 54.9667C169.438 54.9187 169.332 54.7698 169.342 54.6066L170.264 36.4921C170.273 36.3217 170.401 36.1824 170.569 36.1584C171.291 36.0528 171.999 36 172.671 36C173.529 36 174.359 36.0864 175.137 36.2593C176.534 36.5665 177.72 37.085 178.661 37.8004C179.592 38.5086 180.387 39.38 181.021 40.3858C181.655 41.3916 182.094 42.4791 182.327 43.6169C182.557 44.7452 182.629 45.9094 182.536 47.0737C182.406 48.49 182.036 49.8031 181.443 50.9842C180.846 52.1725 179.996 53.2047 178.923 54.0545C177.838 54.9139 176.496 55.4396 174.938 55.6172C174.59 55.658 174.227 55.6772 173.855 55.6772V55.6748ZM173.567 51.3851C173.85 51.4355 174.126 51.4595 174.386 51.4595C175.329 51.4595 176.104 51.1378 176.755 50.4729C177.665 49.5463 178.198 48.298 178.332 46.764C178.469 45.1197 178.135 43.6289 177.341 42.3398C176.623 41.1732 175.619 40.5682 174.28 40.4986L173.565 51.3827L173.567 51.3851Z" fill="#221F1F"/>
<path d="M191.902 55.8209C191.731 55.8209 191.582 55.6985 191.551 55.5257L191.34 54.3158C190.677 55.1176 189.623 55.5232 188.193 55.5232C186.762 55.5232 185.708 55.24 184.868 54.6783C184.008 54.1069 183.463 53.3604 183.243 52.4626C183.036 51.62 182.957 50.6982 183.002 49.7211C183.048 48.7465 183.228 47.7863 183.535 46.8645C183.835 45.9643 184.14 45.1745 184.443 44.5144C184.76 43.8254 185.031 43.3597 185.276 43.0932C185.343 43.0188 185.439 42.978 185.538 42.978C185.54 42.978 189.15 43.086 189.15 43.086C189.28 43.0908 189.398 43.1653 189.458 43.2805C189.518 43.3957 189.508 43.5349 189.436 43.643C189.071 44.1831 188.704 44.8768 188.344 45.7098C187.981 46.5476 187.669 47.4574 187.412 48.4104C187.172 49.3034 187.177 50.0596 187.424 50.6598C187.566 51.0006 187.871 51.4543 188.896 51.4543C190.221 51.4543 190.922 49.2074 190.922 44.9609V44.4736C190.922 44.2815 191.073 44.1255 191.263 44.1183C191.263 44.1183 194.523 43.9815 194.528 43.9815C194.713 43.9815 194.869 44.1231 194.883 44.3103C194.919 44.7856 194.953 45.8923 194.979 47.5943C195.006 49.2866 195.066 50.8206 195.154 52.1529C195.241 53.4564 195.39 54.4046 195.594 54.9663C195.632 55.0696 195.62 55.1824 195.562 55.276C195.505 55.3696 195.409 55.4296 195.298 55.4416L191.94 55.8209C191.926 55.8209 191.914 55.8209 191.899 55.8209H191.902Z" fill="#221F1F"/>
<path d="M196.777 55.199C196.69 55.199 196.604 55.1678 196.539 55.1078C196.467 55.0429 196.424 54.9517 196.419 54.8557L195.987 43.5107C195.982 43.4147 196.018 43.3211 196.086 43.2491C196.153 43.1795 196.246 43.1387 196.342 43.1387H199.754C199.943 43.1387 200.099 43.2875 200.109 43.4771L200.135 43.9957C201.439 43.3883 202.601 43.0811 203.599 43.0811C204.046 43.0811 204.468 43.1411 204.855 43.2635C206.221 43.6908 207.227 44.5646 207.846 45.8609C208.446 47.1164 208.73 48.5951 208.694 50.2611C208.655 51.9174 208.319 53.4802 207.688 54.9061C207.63 55.0358 207.503 55.1174 207.361 55.1174L203.753 55.0622C203.638 55.0622 203.53 55.0021 203.465 54.9061C203.4 54.8101 203.386 54.6877 203.427 54.5796C203.688 53.8835 203.907 53.0913 204.075 52.2271C204.243 51.3653 204.344 50.4915 204.38 49.6273C204.413 48.8087 204.286 48.1126 204 47.5581C203.741 47.0563 203.362 46.7923 202.838 46.7491C202.697 46.7347 202.565 46.7275 202.442 46.7275C201.612 46.7275 201.06 47.0491 200.755 47.7069C200.63 48.0022 200.543 48.4247 200.503 48.9528C200.459 49.5049 200.445 50.0162 200.462 50.4675C200.479 50.9284 200.524 51.5838 200.596 52.4696C200.671 53.3674 200.714 54.0227 200.733 54.474V54.57C200.733 54.7573 200.589 54.9109 200.404 54.9253L196.803 55.1966C196.803 55.1966 196.786 55.1966 196.777 55.1966V55.199Z" fill="#221F1F"/>
<path d="M214.232 60.1977C213.682 60.1977 213.089 60.1641 212.472 60.0993C212.318 60.0825 212.191 59.9697 212.16 59.816L211.483 56.5129C211.459 56.3953 211.495 56.2752 211.579 56.1912C211.646 56.124 211.737 56.0856 211.831 56.0856C211.855 56.0856 211.877 56.0856 211.901 56.0928C212.249 56.1624 212.604 56.2104 212.955 56.2368C213.058 56.244 213.171 56.2488 213.293 56.2488C213.588 56.2488 213.951 56.2272 214.369 56.184C214.93 56.1264 215.41 55.9896 215.79 55.7807C216.147 55.5839 216.452 55.2286 216.697 54.7293C216.882 54.3524 216.976 53.8915 216.978 53.3514C215.857 53.9899 214.693 54.3308 213.507 54.362C213.452 54.362 213.396 54.362 213.341 54.362C212.011 54.362 210.842 53.9011 209.867 52.9913C208.852 52.0455 208.3 50.6772 208.225 48.9296C208.264 46.6755 209.066 44.9375 210.612 43.7444C211.608 42.9763 212.763 42.585 214.042 42.585C214.611 42.585 215.211 42.6618 215.835 42.8154V42.064C215.835 41.8792 215.977 41.7256 216.162 41.7088L219.357 41.4375C219.357 41.4375 219.376 41.4375 219.388 41.4375C219.561 41.4375 219.712 41.5647 219.739 41.7376C219.794 42.0808 219.871 42.5874 219.969 43.2571C220.068 43.9269 220.137 44.3974 220.173 44.671C220.805 48.7664 221.097 51.6782 221.042 53.3154C220.965 56.4769 219.914 58.5582 217.914 59.5016C216.93 59.9649 215.691 60.2025 214.232 60.2025V60.1977ZM214.568 46.4258C213.927 46.4258 213.389 46.6227 212.919 47.0284C212.477 47.41 212.299 47.9238 212.376 48.6007C212.438 49.2297 212.638 49.6858 212.969 49.9666C213.281 50.2307 213.624 50.3603 214.02 50.3603C214.052 50.3603 214.085 50.3603 214.116 50.3579C214.594 50.3339 215.067 50.2211 215.523 50.0218C215.915 49.8514 216.229 49.6498 216.459 49.4241C216.447 48.9032 216.375 47.9622 216.243 46.6203C215.725 46.4906 215.163 46.4258 214.57 46.4258H214.568Z" fill="#221F1F"/>
<path d="M170.62 36.5112C172.226 36.276 173.707 36.3072 175.061 36.6049C176.415 36.9025 177.543 37.3946 178.446 38.0812C179.349 38.7678 180.107 39.5983 180.722 40.573C181.336 41.5476 181.754 42.587 181.98 43.6865C182.205 44.7883 182.272 45.907 182.184 47.0448C182.056 48.4179 181.706 49.6758 181.127 50.8233C180.549 51.9707 179.742 52.9526 178.703 53.7759C177.663 54.5969 176.396 55.0938 174.898 55.2643C173.4 55.4371 171.667 55.2235 169.698 54.6281L170.62 36.5136V36.5112ZM173.193 51.6755C174.763 52.038 176.036 51.7211 177.01 50.7273C177.985 49.7358 178.544 48.4251 178.688 46.8C178.832 45.0668 178.484 43.5184 177.646 42.1573C176.806 40.7938 175.575 40.1217 173.95 40.1409L173.191 51.6755H173.193Z" fill="#E669A0"/>
<path d="M185.066 54.3822C184.281 53.8589 183.789 53.1916 183.59 52.3778C183.39 51.5664 183.314 50.6854 183.359 49.7372C183.405 48.789 183.575 47.8696 183.873 46.9766C184.171 46.0836 184.468 45.3106 184.766 44.6625C185.064 44.0119 185.32 43.5702 185.539 43.335L189.14 43.443C188.761 44.0023 188.386 44.7105 188.016 45.5675C187.647 46.4245 187.33 47.3415 187.068 48.3161C186.806 49.2907 186.816 50.1165 187.095 50.7934C187.375 51.4704 187.976 51.8089 188.895 51.8089C190.484 51.8089 191.279 49.526 191.279 44.9577V44.4704L194.529 44.336C194.565 44.8065 194.596 45.8915 194.623 47.5983C194.649 49.3051 194.709 50.8295 194.798 52.1738C194.887 53.5181 195.043 54.4879 195.259 55.0856L191.901 55.4649L191.521 53.2996C191.034 54.5455 189.925 55.1672 188.192 55.1672C186.893 55.1672 185.849 54.9056 185.064 54.3822H185.066Z" fill="#E669A0"/>
<path d="M196.777 54.8411L196.345 43.4962H199.756L199.811 44.5524C201.832 43.5226 203.479 43.2081 204.754 43.6042C206.026 44.0027 206.953 44.8045 207.529 46.0143C208.105 47.2242 208.376 48.6357 208.34 50.2513C208.304 51.8669 207.978 53.3696 207.366 54.7595L203.765 54.7043C204.036 53.9818 204.257 53.18 204.427 52.2942C204.598 51.4108 204.704 50.525 204.74 49.6416C204.776 48.7582 204.636 48.0068 204.319 47.3947C204.003 46.7801 203.52 46.4465 202.872 46.3936C201.662 46.2664 200.851 46.6553 200.435 47.5579C200.291 47.9012 200.195 48.3573 200.152 48.9262C200.106 49.4951 200.092 50.0137 200.111 50.4842C200.128 50.9547 200.174 51.6268 200.246 52.5006C200.318 53.3768 200.363 54.0394 200.38 54.4907V54.5723L196.779 54.8435L196.777 54.8411Z" fill="#E669A0"/>
<path d="M211.833 56.4396C212.193 56.5116 212.56 56.562 212.93 56.5884C213.3 56.6148 213.792 56.598 214.406 56.5332C215.021 56.4708 215.539 56.3195 215.964 56.0867C216.389 55.8514 216.74 55.4505 217.021 54.8816C217.302 54.3127 217.395 53.5949 217.304 52.7283C216.077 53.5421 214.807 53.9646 213.499 54.0006C212.191 54.0366 211.062 53.6117 210.114 52.7283C209.166 51.8449 208.657 50.5726 208.585 48.9115C208.621 46.7822 209.37 45.1522 210.832 44.024C212.294 42.8957 214.082 42.6484 216.192 43.2798V42.0603L219.388 41.7891C219.443 42.1323 219.52 42.6389 219.618 43.3062C219.717 43.9736 219.784 44.4441 219.822 44.7153C220.454 48.813 220.742 51.6745 220.689 53.2997C220.617 56.3315 219.642 58.2904 217.765 59.1762C216.466 59.7907 214.714 59.978 212.512 59.7451L211.835 56.442L211.833 56.4396ZM212.74 50.239C213.146 50.5822 213.612 50.7407 214.135 50.7119C214.658 50.6855 215.167 50.563 215.664 50.347C216.161 50.1309 216.545 49.8693 216.814 49.562C216.814 49.0387 216.733 47.9632 216.569 46.3405C215.955 46.1604 215.287 46.0692 214.565 46.0692C213.842 46.0692 213.216 46.2997 212.683 46.7606C212.15 47.2215 211.929 47.848 212.02 48.6426C212.092 49.3652 212.332 49.8981 212.738 50.239H212.74Z" fill="#E669A0"/>
<path d="M227.157 57.1073C227.037 57.1073 226.936 57.0185 226.922 56.8985L224.701 38.0254C224.694 37.963 224.711 37.8982 224.752 37.8478C224.792 37.7974 224.85 37.7662 224.912 37.7614L228.216 37.4373C228.216 37.4373 228.232 37.4373 228.24 37.4373C228.355 37.4373 228.456 37.5213 228.475 37.6389L228.669 38.9496C229.221 38.3807 229.867 37.963 230.597 37.7086C231.159 37.5117 231.725 37.4109 232.28 37.4109C232.599 37.4109 232.923 37.4445 233.242 37.5093C234.097 37.687 234.906 38.011 235.648 38.4743C236.406 38.9472 236.999 39.629 237.415 40.4956C237.828 41.3622 237.991 42.3056 237.897 43.3018C237.861 44.6701 237.422 45.8752 236.598 46.8714C235.77 47.8677 234.74 48.4846 233.533 48.7006C233.235 48.7534 232.926 48.7823 232.613 48.7823C231.785 48.7823 230.899 48.5902 229.978 48.2109L230.83 56.4712C230.844 56.6008 230.751 56.7185 230.619 56.7305L227.179 57.1097C227.179 57.1097 227.162 57.1097 227.152 57.1097L227.157 57.1073ZM229.546 44.5429C230.227 44.9486 230.895 45.155 231.526 45.155C231.574 45.155 231.62 45.155 231.668 45.1526C232.378 45.119 232.959 44.8982 233.446 44.4781C233.917 44.0724 234.138 43.6283 234.121 43.1218C234.104 42.6297 233.886 42.212 233.449 41.8471C232.998 41.4702 232.493 41.2374 231.953 41.1557C231.833 41.1365 231.711 41.1269 231.591 41.1269C231.18 41.1269 230.765 41.2374 230.355 41.4558C229.846 41.7271 229.514 42.1688 229.346 42.8049L229.546 44.5405V44.5429Z" fill="#F6B519"/>
<path d="M243.644 56.8435C243.087 56.8435 242.519 56.7787 241.957 56.6539C241.001 56.4402 240.14 56.073 239.395 55.5616C238.646 55.0479 238.015 54.3422 237.523 53.466C237.028 52.5898 236.75 51.5887 236.695 50.4917C236.529 47.7527 237.405 45.609 239.304 44.1183C240.588 43.0956 242.05 42.5747 243.649 42.5747C243.877 42.5747 244.11 42.5843 244.345 42.6059C246.22 42.7932 247.637 43.6045 248.558 45.0137C249.475 46.418 249.687 48.2208 249.187 50.3693C249.163 50.4677 249.079 50.5421 248.979 50.5517L240.824 51.3391C241.006 52.04 241.388 52.5418 241.988 52.8682C242.399 53.0915 242.85 53.2043 243.33 53.2043C243.642 53.2043 243.973 53.1563 244.317 53.0651C245.205 52.825 246.014 52.3041 246.72 51.5119C246.765 51.4591 246.83 51.4327 246.897 51.4327C246.938 51.4327 246.979 51.4423 247.017 51.4663L249.833 53.1179C249.891 53.1515 249.932 53.2067 249.946 53.2715C249.96 53.3363 249.946 53.4036 249.91 53.4588C249.281 54.3662 248.501 55.1127 247.593 55.6769C246.686 56.241 245.75 56.6035 244.811 56.7523C244.427 56.8123 244.036 56.8435 243.647 56.8435H243.644ZM243.884 46.3556C243.03 46.3556 242.278 46.538 241.652 46.8933C241.119 47.1958 240.804 47.6831 240.694 48.3792L245.671 48.0119C245.575 46.9485 245.001 46.4204 243.884 46.358V46.3556Z" fill="#F6B519"/>
<path d="M256.516 56.6857C255.741 56.6857 255.045 56.5224 254.449 56.1984C253.763 55.8263 253.23 55.3126 252.867 54.6716C252.517 54.0547 252.231 53.3561 252.02 52.6024C251.809 51.8462 251.681 51.0732 251.645 50.3026C251.609 49.5441 251.6 48.8407 251.619 48.2118C251.636 47.5948 251.66 47.0763 251.686 46.673C251.696 46.5218 251.703 46.4114 251.705 46.3345L249.905 46.3585C249.78 46.3585 249.677 46.2625 249.667 46.1377L249.451 43.1322C249.446 43.0674 249.47 43.0026 249.514 42.9522C249.557 42.9018 249.622 42.8754 249.687 42.8754H251.612L251.561 39.1353C251.561 39.0729 251.585 39.0105 251.631 38.9649C251.677 38.9193 251.737 38.8953 251.799 38.8953H255.266C255.395 38.8953 255.503 39.0009 255.503 39.1305L255.53 42.6593H257.839C257.969 42.6593 258.074 42.7625 258.077 42.8922L258.132 46.0873C258.132 46.1521 258.108 46.2121 258.065 46.2577C258.019 46.3033 257.959 46.3297 257.894 46.3297H255.53C255.525 46.5578 255.518 46.8987 255.506 47.3716C255.486 48.0197 255.484 48.6223 255.491 49.1624C255.501 49.7025 255.537 50.2786 255.599 50.874C255.659 51.4429 255.784 51.899 255.976 52.2279C256.195 52.6072 256.435 52.6504 256.595 52.6504C256.927 52.6504 257.145 52.4871 257.282 52.1391C257.438 51.7334 257.488 51.21 257.428 50.5811C257.366 49.9234 257.289 49.352 257.2 48.8839C257.112 48.4134 257.013 47.9981 256.908 47.65C256.886 47.5804 256.898 47.5036 256.941 47.4436C256.984 47.3836 257.052 47.3476 257.126 47.3452C257.126 47.3452 260.626 47.2107 260.628 47.2107C260.737 47.2107 260.83 47.2828 260.859 47.3884C261.097 48.3054 261.226 49.2704 261.245 50.2594C261.265 51.2508 261.157 52.2279 260.926 53.1641C260.691 54.1267 260.22 54.9405 259.531 55.5838C258.833 56.2344 257.942 56.6017 256.881 56.6761C256.756 56.6833 256.636 56.6881 256.516 56.6881V56.6857Z" fill="#F6B519"/>
<path d="M225.968 56.0372C225.79 56.0372 225.637 55.9027 225.615 55.7227L223.395 36.8496C223.383 36.7536 223.411 36.66 223.471 36.5856C223.531 36.5112 223.618 36.4632 223.714 36.4536L227.017 36.1295C227.017 36.1295 227.041 36.1295 227.053 36.1295C227.228 36.1295 227.38 36.2567 227.406 36.4343L227.567 37.5122C228.095 37.0153 228.698 36.6432 229.372 36.4079C229.946 36.2063 230.524 36.1055 231.096 36.1055C231.425 36.1055 231.756 36.1391 232.082 36.2063C232.951 36.3863 233.772 36.7152 234.529 37.1881C235.306 37.673 235.916 38.3716 236.341 39.2598C236.764 40.1456 236.932 41.1106 236.836 42.1284C236.8 43.5159 236.353 44.7474 235.51 45.7628C234.665 46.7807 233.609 47.412 232.375 47.6329C232.07 47.6881 231.753 47.7145 231.434 47.7145C230.644 47.7145 229.807 47.5441 228.938 47.208L229.768 55.2738C229.787 55.4682 229.648 55.6435 229.454 55.6651L226.014 56.0444C225.999 56.0444 225.987 56.0444 225.973 56.0444L225.968 56.0372ZM228.469 43.2807C229.115 43.6576 229.744 43.8472 230.34 43.8472C230.385 43.8472 230.431 43.8472 230.474 43.8448C231.156 43.8112 231.715 43.6024 232.181 43.1991C232.623 42.8198 232.829 42.4069 232.815 41.9364C232.8 41.4803 232.594 41.0914 232.186 40.7505C231.751 40.388 231.269 40.1648 230.748 40.0856C230.632 40.0688 230.517 40.0592 230.402 40.0592C230.011 40.0592 229.615 40.1648 229.221 40.3736C228.748 40.6257 228.438 41.0362 228.277 41.6267L228.467 43.2807H228.469Z" fill="#221F1F"/>
<path d="M242.455 55.776C241.889 55.776 241.312 55.7112 240.741 55.584C239.771 55.3679 238.895 54.9935 238.139 54.4749C237.375 53.9492 236.732 53.2315 236.23 52.3385C235.726 51.4455 235.443 50.4276 235.385 49.3114C235.217 46.5315 236.11 44.3543 238.04 42.8395C239.344 41.8001 240.832 41.272 242.46 41.272C242.69 41.272 242.928 41.2816 243.166 41.3032C245.079 41.4952 246.524 42.3234 247.468 43.7637C248.404 45.1969 248.62 47.0285 248.111 49.2106C248.077 49.3594 247.95 49.4698 247.799 49.4842L239.786 50.2572C239.97 50.8549 240.323 51.2894 240.854 51.5775C241.245 51.7911 241.68 51.8992 242.141 51.8992C242.441 51.8992 242.762 51.8536 243.096 51.7647C243.963 51.5319 244.75 51.0206 245.441 50.2476C245.511 50.1684 245.609 50.1276 245.708 50.1276C245.77 50.1276 245.833 50.1444 245.888 50.1756L248.704 51.8272C248.79 51.8776 248.85 51.9616 248.872 52.0576C248.893 52.1536 248.872 52.2569 248.817 52.3385C248.178 53.2603 247.386 54.0164 246.464 54.5902C245.545 55.1639 244.592 55.5312 243.636 55.6824C243.245 55.7448 242.846 55.776 242.453 55.776H242.455ZM242.693 45.2881C241.86 45.2881 241.13 45.4657 240.523 45.8114C240.062 46.0731 239.776 46.4835 239.651 47.0621L244.352 46.714C244.229 45.8018 243.694 45.3457 242.693 45.2881Z" fill="#221F1F"/>
<path d="M255.329 55.6143C254.532 55.6143 253.819 55.4463 253.204 55.115C252.496 54.7309 251.948 54.2028 251.574 53.5427C251.219 52.9161 250.928 52.2104 250.715 51.447C250.501 50.6836 250.374 49.901 250.338 49.1209C250.302 48.3599 250.292 47.6541 250.311 47.0228C250.328 46.4035 250.352 45.8849 250.378 45.4792C250.383 45.3976 250.388 45.328 250.39 45.268C250.39 45.268 248.717 45.2896 248.715 45.2896C248.528 45.2896 248.374 45.1456 248.36 44.9583L248.143 41.9529C248.136 41.8544 248.17 41.756 248.237 41.684C248.304 41.612 248.398 41.5712 248.499 41.5712H250.304L250.254 37.9511C250.254 37.8551 250.29 37.7639 250.357 37.6967C250.424 37.6295 250.515 37.5911 250.611 37.5911H254.078C254.275 37.5911 254.433 37.7495 254.433 37.9439L254.457 41.3551H256.649C256.843 41.3551 257.002 41.5112 257.004 41.7056L257.059 44.9007C257.059 44.9967 257.023 45.088 256.956 45.1576C256.889 45.2248 256.798 45.2632 256.702 45.2632H254.455C254.45 45.4864 254.443 45.7913 254.433 46.1898C254.416 46.8355 254.411 47.4381 254.421 47.9758C254.431 48.5135 254.464 49.0873 254.527 49.6778C254.584 50.2299 254.704 50.6692 254.887 50.9861C255.072 51.3078 255.261 51.3486 255.403 51.3486C255.602 51.3486 255.828 51.2958 255.977 50.9117C256.128 50.5228 256.174 50.0187 256.116 49.4089C256.053 48.7536 255.977 48.1871 255.89 47.7213C255.801 47.2556 255.705 46.8428 255.602 46.4995C255.571 46.3939 255.59 46.2786 255.653 46.1898C255.717 46.101 255.818 46.0458 255.929 46.041C255.929 46.041 259.431 45.9065 259.436 45.9065C259.597 45.9065 259.741 46.017 259.782 46.173C260.022 47.0996 260.154 48.0742 260.173 49.0729C260.192 50.0739 260.082 51.0629 259.851 52.0063C259.609 52.9905 259.129 53.8259 258.42 54.4837C257.703 55.151 256.786 55.5303 255.698 55.6071C255.569 55.6143 255.446 55.6191 255.326 55.6191L255.329 55.6143Z" fill="#221F1F"/>
<path d="M225.966 55.6821L223.746 36.809L227.049 36.485L227.32 38.2998C227.916 37.5604 228.638 37.0395 229.486 36.7418C230.333 36.4442 231.173 36.3818 232.004 36.5522C232.835 36.725 233.61 37.0347 234.333 37.486C235.055 37.9373 235.614 38.5782 236.011 39.4088C236.407 40.2394 236.56 41.1324 236.471 42.0902C236.435 43.4273 236.02 44.5724 235.226 45.5302C234.431 46.488 233.456 47.069 232.302 47.2778C231.147 47.4843 229.882 47.273 228.511 46.6417L229.404 55.3076L225.966 55.6869V55.6821ZM228.132 43.497C228.943 44.0035 229.728 44.2363 230.487 44.2003C231.245 44.1643 231.886 43.9195 232.41 43.4681C232.933 43.0168 233.185 42.5031 233.168 41.9246C233.149 41.3653 232.897 40.8828 232.41 40.4747C231.922 40.0666 231.385 39.8193 230.799 39.7305C230.213 39.6393 229.63 39.7497 229.051 40.0546C228.473 40.3618 228.093 40.8756 227.913 41.5981L228.129 43.4946L228.132 43.497Z" fill="#F6B519"/>
<path d="M238.26 43.1174C239.686 41.9795 241.312 41.4922 243.134 41.6555C244.939 41.8355 246.283 42.6037 247.169 43.9576C248.052 45.3115 248.252 47.0351 247.764 49.1308L239.343 49.9421C239.506 50.8447 239.953 51.4953 240.683 51.8914C241.415 52.2899 242.248 52.3619 243.186 52.1074C244.125 51.8554 244.965 51.3129 245.705 50.4823L248.521 52.1338C247.906 53.0196 247.157 53.7374 246.274 54.2871C245.39 54.8369 244.49 55.1849 243.58 55.329C242.67 55.473 241.748 55.4418 240.819 55.2329C239.89 55.0265 239.065 54.6736 238.342 54.1767C237.619 53.6798 237.019 53.0076 236.542 52.1603C236.064 51.3129 235.797 50.355 235.742 49.2892C235.579 46.6174 236.419 44.5601 238.26 43.115V43.1174ZM240.347 45.5011C239.679 45.8804 239.307 46.531 239.237 47.4504L244.735 47.0447C244.699 45.71 244.022 45.0042 242.704 44.9322C241.801 44.9322 241.016 45.1219 240.349 45.5011H240.347Z" fill="#F6B519"/>
<path d="M248.716 44.9326L248.499 41.9271H250.665L250.61 37.947H254.076L254.103 41.7111H256.647L256.702 44.9062H254.103C254.103 45.1054 254.093 45.5279 254.076 46.1785C254.057 46.829 254.054 47.4292 254.062 47.9789C254.071 48.5286 254.107 49.1071 254.17 49.7121C254.232 50.317 254.369 50.7995 254.575 51.162C254.782 51.5245 255.058 51.7045 255.401 51.7045C255.833 51.7045 256.136 51.4837 256.309 51.042C256.479 50.6003 256.534 50.0433 256.472 49.376C256.409 48.7086 256.333 48.1349 256.241 47.6572C256.15 47.1795 256.052 46.7594 255.944 46.3969L259.437 46.2625C259.672 47.1651 259.797 48.1037 259.816 49.0783C259.833 50.053 259.73 51.0012 259.504 51.9206C259.278 52.84 258.837 53.6082 258.176 54.2227C257.516 54.8372 256.683 55.1805 255.673 55.2525C254.787 55.3077 254.021 55.1565 253.37 54.806C252.72 54.4531 252.223 53.9754 251.882 53.3705C251.539 52.7656 251.263 52.0934 251.056 51.354C250.85 50.6147 250.727 49.8657 250.691 49.1071C250.655 48.3486 250.646 47.6572 250.665 47.0355C250.682 46.4137 250.706 45.9024 250.732 45.5063C250.758 45.1102 250.763 44.911 250.746 44.911L248.716 44.9374V44.9326Z" fill="#F6B519"/>
<path d="M98.0228 44.7087L97.7444 44.7147C97.7165 44.7153 97.6945 44.7384 97.6951 44.7662L97.8011 49.667C97.8017 49.6948 97.8248 49.7169 97.8526 49.7163L98.131 49.7103C98.1589 49.7097 98.181 49.6866 98.1803 49.6588L98.0743 44.758C98.0737 44.7302 98.0506 44.7081 98.0228 44.7087Z" fill="white"/>
<path d="M97.8622 44.4371C97.9669 44.4371 98.0518 44.3522 98.0518 44.2475C98.0518 44.1428 97.9669 44.0579 97.8622 44.0579C97.7574 44.0579 97.6725 44.1428 97.6725 44.2475C97.6725 44.3522 97.7574 44.4371 97.8622 44.4371Z" fill="white"/>
<path d="M105.454 53.8897L105.711 53.8776C105.736 53.8765 105.755 53.8551 105.754 53.8299L105.542 49.3339C105.541 49.3087 105.52 49.2893 105.495 49.2905L105.238 49.3026C105.213 49.3038 105.193 49.3251 105.195 49.3503L105.407 53.8463C105.408 53.8715 105.429 53.8909 105.454 53.8897Z" fill="white"/>
<path d="M105.612 54.4836C105.707 54.4836 105.785 54.4062 105.785 54.3108C105.785 54.2153 105.707 54.1379 105.612 54.1379C105.516 54.1379 105.439 54.2153 105.439 54.3108C105.439 54.4062 105.516 54.4836 105.612 54.4836Z" fill="white"/>
<path d="M193.866 51.1051L194.185 51.0967C194.217 51.0959 194.242 51.0694 194.242 51.0376L194.095 45.4271C194.094 45.3953 194.067 45.3701 194.035 45.371L193.716 45.3793C193.685 45.3802 193.659 45.4066 193.66 45.4385L193.807 51.049C193.808 51.0808 193.834 51.1059 193.866 51.1051Z" fill="white"/>
<path d="M194.066 51.8425C194.186 51.8425 194.282 51.7458 194.282 51.6265C194.282 51.5071 194.186 51.4104 194.066 51.4104C193.947 51.4104 193.85 51.5071 193.85 51.6265C193.85 51.7458 193.947 51.8425 194.066 51.8425Z" fill="white"/>
<path d="M226.306 53.6967L226.623 53.6595C226.655 53.6558 226.677 53.6272 226.674 53.5956L226.021 48.0212C226.017 47.9896 225.988 47.967 225.957 47.9707L225.64 48.0079C225.608 48.0116 225.585 48.0402 225.589 48.0718L226.242 53.6462C226.246 53.6778 226.274 53.7004 226.306 53.6967Z" fill="white"/>
<path d="M226.542 54.4309C226.661 54.4309 226.758 54.3342 226.758 54.2148C226.758 54.0955 226.661 53.9988 226.542 53.9988C226.423 53.9988 226.326 54.0955 226.326 54.2148C226.326 54.3342 226.423 54.4309 226.542 54.4309Z" fill="white"/>
<path d="M251.163 41.2283L251.315 41.2277C251.33 41.2276 251.343 41.2146 251.343 41.1987L251.332 38.4885C251.332 38.4726 251.319 38.4598 251.303 38.4599L251.152 38.4605C251.136 38.4605 251.123 38.4735 251.124 38.4894L251.134 41.1996C251.134 41.2155 251.147 41.2283 251.163 41.2283Z" fill="white"/>
<path d="M251.256 41.5818C251.314 41.5818 251.361 41.5346 251.361 41.4762C251.361 41.4179 251.314 41.3706 251.256 41.3706C251.197 41.3706 251.15 41.4179 251.15 41.4762C251.15 41.5346 251.197 41.5818 251.256 41.5818Z" fill="white"/>
<path d="M197.202 53.6529L197.459 53.6462C197.484 53.6456 197.504 53.6246 197.504 53.5994L197.385 49.0856C197.385 49.0604 197.364 49.0405 197.339 49.0412L197.082 49.0479C197.057 49.0485 197.037 49.0695 197.037 49.0947L197.156 53.6085C197.156 53.6337 197.177 53.6536 197.202 53.6529Z" fill="white"/>
<path d="M197.363 54.2462C197.459 54.2462 197.538 54.1678 197.538 54.071C197.538 53.9742 197.459 53.8958 197.363 53.8958C197.266 53.8958 197.187 53.9742 197.187 54.071C197.187 54.1678 197.266 54.2462 197.363 54.2462Z" fill="white"/>
<path d="M142.138 49.2594L141.882 49.2715C141.856 49.2727 141.837 49.2941 141.838 49.3192L142.05 53.8153C142.051 53.8404 142.073 53.8599 142.098 53.8587L142.355 53.8466C142.38 53.8454 142.399 53.824 142.398 53.7989L142.186 49.3028C142.185 49.2777 142.163 49.2582 142.138 49.2594Z" fill="white"/>
<path d="M141.986 49.0083C142.081 49.0083 142.159 48.9309 142.159 48.8354C142.159 48.74 142.081 48.6626 141.986 48.6626C141.89 48.6626 141.813 48.74 141.813 48.8354C141.813 48.9309 141.89 49.0083 141.986 49.0083Z" fill="white"/>
<path d="M163.632 43.8476L163.287 43.8951C163.253 43.8998 163.229 43.9312 163.234 43.9654L164.066 50.0178C164.071 50.052 164.102 50.0758 164.136 50.0712L164.481 50.0237C164.515 50.019 164.539 49.9875 164.534 49.9534L163.702 43.901C163.697 43.8668 163.666 43.8429 163.632 43.8476Z" fill="white"/>
<path d="M163.359 43.5325C163.489 43.5325 163.594 43.4272 163.594 43.2973C163.594 43.1673 163.489 43.062 163.359 43.062C163.229 43.062 163.124 43.1673 163.124 43.2973C163.124 43.4272 163.229 43.5325 163.359 43.5325Z" fill="white"/>
<path d="M218.967 43.5466L218.623 43.5955C218.589 43.6003 218.565 43.6319 218.57 43.666L219.427 49.7149C219.432 49.7491 219.464 49.7728 219.498 49.768L219.843 49.7191C219.877 49.7143 219.9 49.6827 219.896 49.6485L219.038 43.5997C219.033 43.5655 219.001 43.5418 218.967 43.5466Z" fill="white"/>
<path d="M218.692 43.2335C218.822 43.2335 218.927 43.1281 218.927 42.9982C218.927 42.8683 218.822 42.7629 218.692 42.7629C218.562 42.7629 218.457 42.8683 218.457 42.9982C218.457 43.1281 218.562 43.2335 218.692 43.2335Z" fill="white"/>
<path d="M246.507 48.7726L246.479 48.4497C246.476 48.418 246.448 48.3946 246.416 48.3973L240.744 48.8926C240.712 48.8954 240.688 48.9233 240.691 48.955L240.719 49.2779C240.722 49.3096 240.75 49.333 240.782 49.3303L246.454 48.835C246.486 48.8322 246.51 48.8043 246.507 48.7726Z" fill="white"/>
<path d="M247.026 48.7637C247.148 48.7637 247.247 48.6649 247.247 48.5429C247.247 48.4209 247.148 48.322 247.026 48.322C246.904 48.322 246.805 48.4209 246.805 48.5429C246.805 48.6649 246.904 48.7637 247.026 48.7637Z" fill="white"/>
<path d="M171.04 46.8249L170.666 46.8063C170.629 46.8045 170.597 46.833 170.595 46.8701L170.267 53.4562C170.266 53.4933 170.294 53.5249 170.331 53.5267L170.705 53.5453C170.742 53.5472 170.774 53.5186 170.776 53.4815L171.104 46.8954C171.105 46.8583 171.077 46.8268 171.04 46.8249Z" fill="white"/>
<path d="M170.859 46.4445C171 46.4445 171.114 46.3305 171.114 46.19C171.114 46.0495 171 45.9355 170.859 45.9355C170.719 45.9355 170.605 46.0495 170.605 46.19C170.605 46.3305 170.719 46.4445 170.859 46.4445Z" fill="white"/>
<path d="M124.243 45.7453L123.986 45.751C123.961 45.7515 123.941 45.7724 123.941 45.7976L124.04 50.2975C124.041 50.3227 124.062 50.3426 124.087 50.3421L124.344 50.3364C124.369 50.3359 124.389 50.315 124.388 50.2898L124.289 45.7899C124.289 45.7647 124.268 45.7447 124.243 45.7453Z" fill="white"/>
<path d="M124.084 45.4944C124.18 45.4944 124.257 45.417 124.257 45.3215C124.257 45.2261 124.18 45.1487 124.084 45.1487C123.989 45.1487 123.911 45.2261 123.911 45.3215C123.911 45.417 123.989 45.4944 124.084 45.4944Z" fill="white"/>
<path d="M63.3009 39.772H63.2968C63.2819 39.772 63.267 39.7747 63.2534 39.7815C63.2399 39.7855 63.2277 39.7937 63.2182 39.8045C63.2073 39.814 63.1992 39.8262 63.1951 39.8397C63.1884 39.8533 63.1843 39.8669 63.1857 39.8831L63.1897 39.9129C63.1951 39.9319 63.2046 39.9482 63.2182 39.9617L63.2412 39.9794C63.2589 39.9888 63.2778 39.9943 63.2982 39.9943H63.3022C63.3171 39.9943 63.332 39.9916 63.3456 39.9848C63.3592 39.9807 63.3714 39.9726 63.3808 39.9617C63.3917 39.9522 63.3998 39.94 63.4039 39.9265C63.4107 39.9129 63.4147 39.8994 63.4134 39.8831L63.4093 39.8533C63.4039 39.8343 63.3944 39.8181 63.3808 39.8045L63.3578 39.7869C63.3402 39.7774 63.3212 39.772 63.3009 39.772Z" fill="black"/>
<path d="M80.7168 59.6785C80.7168 60.2519 80.2465 62.0031 78.5494 62.0546C76.851 62.1061 68.7004 62.3162 64.7302 62.159C60.76 62.0018 53.0012 63.57 51.7745 61.4799C51.1455 60.4118 52.0822 59.1038 53.9825 58.113C54.0151 57.4962 54.316 56.565 54.6779 55.6461C54.8867 54.3136 51.9493 52.1991 51.4017 48.1924C51.0588 45.6835 51.3055 42.669 51.4207 42.4982C49.3807 41.2552 48.6555 39.241 48.6921 37.4491C48.7612 33.967 51.1821 32.8514 51.1821 32.8514C51.1821 32.8514 51.2607 28.1317 52.4102 27.4622C53.5596 26.7926 56.1107 30.4062 56.1107 30.4062C56.1107 30.4062 60.0673 30.2788 62.5628 33.441C62.5628 33.441 66.3853 32.6956 67.0291 33.4627C67.673 34.2286 65.0962 37.9561 64.817 38.1987C64.817 38.1987 64.8671 39.1692 64.5377 40.3295C64.7451 40.3457 73.4826 41.0411 77.2332 48.6479C81.03 56.3441 80.7168 59.1052 80.7168 59.6799V59.6785Z" fill="white"/>
<path d="M80.5496 59.6787C80.5455 60.2589 80.2636 60.8919 79.8691 61.308C79.5885 61.6035 79.2266 61.7959 78.8254 61.8637C78.5828 61.9044 78.3293 61.8962 78.0839 61.903C76.6092 61.9437 75.1344 61.9762 73.6596 62.002C71.7118 62.0359 69.7626 62.0589 67.8148 62.0508C66.1692 62.044 64.5209 61.941 62.8781 62.0155C60.9912 62.1009 59.1112 62.3002 57.2243 62.3801C56.3595 62.4167 55.4907 62.4344 54.6272 62.3747C53.9766 62.33 53.2948 62.2527 52.6889 61.9979C52.186 61.7865 51.7617 61.4002 51.7482 60.816C51.7265 59.882 52.6509 59.1338 53.353 58.6757C53.4791 58.593 53.6065 58.5144 53.7366 58.4398C53.8451 58.3775 54.062 58.3097 54.1284 58.1986C54.1799 58.1118 54.1623 57.9641 54.1758 57.8665C54.1975 57.7201 54.2287 57.5751 54.2626 57.4327C54.3358 57.1291 54.4293 56.8296 54.5296 56.5327C54.5825 56.3768 54.6381 56.2223 54.695 56.0692C54.7478 55.9268 54.8265 55.7805 54.8482 55.63C54.9213 55.1258 54.6015 54.5998 54.3507 54.1905C53.9495 53.5318 53.494 52.9082 53.0955 52.2481C52.5858 51.4064 52.1534 50.5186 51.8715 49.5738C51.5299 48.4298 51.4364 47.2289 51.4039 46.0402C51.3767 45.0602 51.393 44.0707 51.4893 43.0948C51.5015 42.9755 51.5136 42.8549 51.534 42.7369C51.5408 42.6976 51.5489 42.6583 51.557 42.619C51.5597 42.6041 51.5652 42.5905 51.5679 42.577C51.576 42.5499 51.5475 42.6136 51.5652 42.5851C51.6126 42.5065 51.5814 42.4049 51.5055 42.3574C50.6339 41.822 49.9169 41.0779 49.4547 40.1629C49.0521 39.3673 48.8596 38.4727 48.8582 37.5835C48.8582 36.0464 49.3855 34.5012 50.5689 33.4779C50.779 33.2962 51.0135 33.1173 51.2683 32.9994C51.3212 32.975 51.3496 32.9099 51.351 32.8557C51.3673 31.8676 51.4499 30.87 51.6099 29.8954C51.7129 29.2705 51.8349 28.5996 52.1385 28.0371C52.2348 27.8581 52.3622 27.6603 52.552 27.5816C52.7241 27.5112 52.9437 27.5667 53.1213 27.6426C53.7028 27.8934 54.1853 28.3895 54.6123 28.8422C55.0393 29.2949 55.3998 29.7314 55.7563 30.2044C55.8268 30.298 55.8919 30.3969 55.9651 30.4877C56.0437 30.584 56.1196 30.5731 56.2267 30.5745C56.6455 30.5799 57.0657 30.6273 57.4778 30.7005C59.141 30.996 60.7256 31.7415 61.9143 32.956C62.1027 33.1485 62.2789 33.3504 62.4457 33.5605C62.4836 33.608 62.5527 33.6134 62.607 33.6039C63.2074 33.4873 63.8174 33.4033 64.426 33.345C64.9059 33.2989 65.3898 33.2691 65.871 33.2922C66.1773 33.3071 66.6043 33.326 66.8456 33.5185C66.9269 33.5836 66.9527 33.6459 66.9622 33.7462C66.9757 33.8913 66.9486 34.039 66.9134 34.1786C66.8117 34.5907 66.6301 34.9824 66.4389 35.3606C66.0323 36.1657 65.5511 36.9383 65.0252 37.6703C64.9411 37.7882 64.8666 37.8912 64.7839 37.9915C64.7134 38.0755 64.6524 38.1338 64.6524 38.2504C64.6524 38.9417 64.5629 39.6208 64.3772 40.2876C64.3461 40.3988 64.4315 40.4896 64.5372 40.4977C64.8218 40.5194 65.0184 40.5492 65.2854 40.5913C65.9089 40.6902 66.527 40.8258 67.1357 40.9898C69.0293 41.5008 70.8524 42.3032 72.4695 43.4174C73.4536 44.0951 74.355 44.8935 75.1412 45.7948C76.0887 46.8833 76.7935 48.1072 77.4157 49.4031C78.5448 51.7534 79.5994 54.1932 80.2053 56.7388C80.4276 57.674 80.5753 58.5984 80.5523 59.5622C80.5523 59.6015 80.5496 59.6408 80.5496 59.6814C80.5496 59.8956 80.8817 59.8956 80.8817 59.6814C80.8817 59.4198 80.8912 59.1596 80.8776 58.898C80.8478 58.3246 80.7597 57.754 80.6445 57.1915C80.1633 54.8357 79.2347 52.568 78.2412 50.3885C77.5933 48.9666 76.9277 47.5529 75.9775 46.3018C75.2171 45.3001 74.3265 44.4069 73.3316 43.6383C71.6901 42.3683 69.7978 41.4438 67.8161 40.8393C66.7737 40.5208 65.6934 40.2714 64.6063 40.1711C64.5833 40.1684 64.5602 40.167 64.5358 40.1656L64.6958 40.3757C64.8896 39.6804 65.017 38.9268 64.9804 38.2016L64.9316 38.3195C65.0794 38.1853 65.1946 37.9996 65.3098 37.8383C65.524 37.5401 65.7259 37.2352 65.9225 36.9261C66.3847 36.1942 66.8361 35.4283 67.1275 34.6097C67.2278 34.3277 67.3227 34.0119 67.2888 33.7083C67.2576 33.4263 67.0841 33.242 66.828 33.1336C66.4972 32.994 66.1217 32.9668 65.7666 32.9546C65.3247 32.9411 64.8815 32.9682 64.4409 33.0089C63.7957 33.0699 63.1505 33.158 62.5148 33.2813L62.6761 33.3247C61.2149 31.4867 58.9593 30.4376 56.6401 30.2614C56.4625 30.2478 56.2836 30.237 56.106 30.2424L56.2497 30.3251C55.9203 29.8588 55.5584 29.4101 55.1816 28.9805C54.6259 28.3461 53.9752 27.6223 53.1714 27.3078C52.88 27.194 52.5425 27.1682 52.2741 27.3526C51.9908 27.5464 51.8254 27.8744 51.6994 28.1835C51.3469 29.0442 51.2304 30.0079 51.1355 30.9269C51.069 31.5667 51.023 32.2119 51.0121 32.8543L51.0948 32.7107C50.8576 32.8205 50.6394 32.9858 50.4374 33.1498C49.9508 33.5443 49.5455 34.0417 49.2432 34.5893C48.3418 36.2199 48.2876 38.3277 49.0223 40.0287C49.4967 41.1253 50.3208 42.0199 51.3334 42.6434L51.2737 42.4157C51.2263 42.4943 51.2168 42.5973 51.2032 42.6854C51.1761 42.863 51.1572 43.0433 51.1409 43.2222C51.0907 43.7901 51.0677 44.3608 51.0596 44.9301C51.0406 46.3587 51.0826 47.8375 51.4283 49.2309C51.721 50.4088 52.2456 51.5108 52.88 52.5409C53.3463 53.2973 53.9129 54.0089 54.31 54.8059C54.4469 55.0824 54.5838 55.4199 54.4767 55.6978C54.1785 56.465 53.8627 57.285 53.8126 58.1145L53.8952 57.9709C53.1836 58.345 52.4733 58.8085 51.965 59.4415C51.6045 59.8888 51.3374 60.4432 51.4323 61.0301C51.576 61.9234 52.4286 62.3273 53.2216 62.513C54.3276 62.7719 55.4974 62.7637 56.6252 62.7326C58.0024 62.6946 59.3755 62.5807 60.7486 62.4804C61.9902 62.3896 63.2386 62.292 64.4843 62.3191C65.6839 62.3449 66.8835 62.3801 68.0845 62.3829C70.7792 62.3896 73.4726 62.3449 76.1673 62.2839C76.9602 62.2663 77.7546 62.2527 78.5489 62.2215C79.1656 62.1972 79.7403 61.9532 80.1538 61.4896C80.4818 61.1223 80.7055 60.6587 80.8166 60.1802C80.8546 60.0162 80.883 59.8468 80.8844 59.6787C80.8857 59.4646 80.5536 59.4646 80.5523 59.6787H80.5496Z" fill="black"/>
<path d="M72.5397 56.2837C72.2347 59.6561 68.0421 57.0224 62.0861 56.651C61.9072 56.6388 61.7242 56.6307 61.5412 56.6239C61.2132 56.6117 60.8879 56.6076 60.568 56.6131C57.9193 56.6537 55.6001 57.2705 53.9789 58.1149" fill="white"/>
<path d="M72.373 56.2841C72.3377 56.6501 72.251 57.0445 72.007 57.3332C71.7982 57.5813 71.5014 57.7087 71.1896 57.7683C70.7803 57.8469 70.3492 57.8171 69.9385 57.7724C69.3841 57.7127 68.8338 57.603 68.2875 57.4918C66.8832 57.2058 65.4871 56.8886 64.0665 56.6894C62.3315 56.4468 60.5748 56.3586 58.8303 56.5579C57.1278 56.7517 55.4239 57.1787 53.8977 57.9703C53.7079 58.0692 53.876 58.3566 54.0657 58.2576C57.0641 56.7016 60.6385 56.5484 63.9242 57.0025C65.3705 57.2017 66.7924 57.5257 68.2211 57.8158C69.1835 58.0123 70.2327 58.2631 71.2181 58.099C71.6058 58.0353 71.9839 57.87 72.2442 57.5677C72.5519 57.2099 72.6644 56.7436 72.7078 56.2841C72.7281 56.0713 72.3947 56.0726 72.3757 56.2841H72.373Z" fill="black"/>
<path d="M54.8363 55.6912C54.9814 55.3116 54.999 54.8819 54.9949 54.4794C54.9895 53.9657 54.9312 53.4533 54.8594 52.9464C54.7225 51.9935 54.5178 51.0514 54.2806 50.1189C54.2304 49.9196 54.1776 49.7204 54.122 49.5211C54.0664 49.3219 53.7425 49.4032 53.8007 49.6092C53.9539 50.146 54.084 50.6895 54.2047 51.2344C54.4243 52.2307 54.6195 53.2473 54.6588 54.2693C54.675 54.7112 54.6777 55.1829 54.5178 55.6017C54.4405 55.8023 54.7631 55.889 54.8391 55.6898L54.8363 55.6912Z" fill="black"/>
<path d="M64.1011 51.2415C64.1011 51.2415 60.9767 53.2719 62.0909 56.6673L64.1011 51.2415Z" fill="white"/>
<path d="M64.0169 51.0978C63.6279 51.3513 63.2796 51.6874 62.9746 52.0331C62.3294 52.7664 61.859 53.6569 61.7262 54.6315C61.6299 55.3323 61.714 56.0398 61.9308 56.7108C61.9959 56.9141 62.3172 56.8273 62.2521 56.6226C61.9064 55.5532 61.9485 54.42 62.4459 53.4062C62.7794 52.7271 63.2701 52.132 63.8461 51.6454C63.9749 51.537 64.0454 51.4774 64.1864 51.3852C64.3653 51.2686 64.1986 50.9799 64.0183 51.0978H64.0169Z" fill="black"/>
<path d="M59.8941 56.5611C59.8941 56.5611 61.8134 54.4941 60.8375 52.4907L59.8941 56.5611Z" fill="white"/>
<path d="M60.0125 56.6797C60.7214 55.9125 61.2528 54.8282 61.2799 53.7777C61.2921 53.3006 61.1863 52.8383 60.9817 52.4087C60.8895 52.2148 60.6021 52.3843 60.6943 52.5767C61.105 53.4402 60.9654 54.4107 60.5615 55.2497C60.3568 55.6753 60.0979 56.0969 59.7753 56.4452C59.6302 56.6024 59.8647 56.8383 60.0111 56.6811L60.0125 56.6797Z" fill="black"/>
<path d="M56.8646 43.9283C62.1849 45.0113 63.9524 42.3763 64.5353 40.3296L56.8646 43.9283Z" fill="white"/>
<path d="M56.8218 44.0889C58.4037 44.4075 60.1387 44.5254 61.669 43.91C62.6951 43.4966 63.541 42.7633 64.0967 41.8077C64.3583 41.3591 64.5549 40.8725 64.6972 40.3736C64.7568 40.1676 64.4356 40.0795 64.3759 40.2855C64.1279 41.149 63.7077 41.969 63.0679 42.6088C62.2153 43.46 61.0564 43.8829 59.8703 43.9859C58.8794 44.0713 57.8818 43.9656 56.9099 43.7691C56.7012 43.727 56.6117 44.0469 56.8218 44.0903V44.0889Z" fill="black"/>
<path d="M56.5173 37.0684C56.5173 37.0684 55.8666 35.7767 56.0754 35.4812C56.2841 35.1857 56.4997 35.0461 57.3035 35.4582C58.1073 35.8702 58.0774 36.3229 57.9717 36.529C57.8673 36.7336 56.5173 37.0684 56.5173 37.0684Z" fill="black"/>
<path d="M56.4698 36.8166C56.3302 37.0971 56.1906 37.3777 56.051 37.6583C55.9846 37.7911 56.009 37.9145 56.0266 38.0581C56.1011 38.6369 56.3167 39.3065 56.8656 39.6007C57.3129 39.8406 57.8375 39.747 58.2875 39.5641C58.4624 39.4922 58.3851 39.2049 58.2089 39.2781C57.8592 39.4204 57.4404 39.5329 57.0757 39.3743C56.8168 39.2618 56.6447 39.0341 56.5268 38.7833C56.4224 38.5637 56.36 38.3048 56.3248 38.0554C56.318 38.0134 56.3289 38.0866 56.3234 38.0446C56.3221 38.0324 56.3207 38.0216 56.3194 38.0094C56.318 37.9917 56.3153 37.9741 56.3139 37.9551C56.3099 37.9185 56.3072 37.8819 56.3045 37.8453C56.3045 37.8304 56.3072 37.8087 56.3017 37.7938C56.2909 37.764 56.2557 37.8955 56.2936 37.8345C56.3885 37.6813 56.4576 37.5051 56.5376 37.3438L56.7274 36.9629C56.8128 36.7922 56.5566 36.6417 56.4712 36.8125L56.4698 36.8166Z" fill="black"/>
<path d="M56.0485 37.6822C55.673 38.0753 54.9871 38.4738 54.4422 38.1241C54.144 37.9316 53.961 37.586 53.8309 37.2675C53.7604 37.0926 53.4717 37.1685 53.5449 37.3461C53.7767 37.9194 54.1738 38.528 54.857 38.5579C55.2894 38.5768 55.6987 38.3545 56.0295 38.0943C56.1095 38.0319 56.1881 37.9655 56.2586 37.8923C56.3914 37.7541 56.1813 37.544 56.0485 37.6822Z" fill="black"/>
<path d="M58.8296 35.8823C58.8377 35.8783 58.8472 35.8742 58.8553 35.8701C58.8648 35.8661 58.8743 35.862 58.8838 35.8579C58.8472 35.8742 58.8892 35.8552 58.9028 35.8512C58.9882 35.8186 59.0763 35.7956 59.1658 35.782C59.2484 35.7685 59.3935 35.7671 59.4924 35.7834C59.6375 35.8078 59.7717 35.8634 59.895 35.9447C60.0888 36.0735 60.2352 36.2632 60.3518 36.4625C60.4318 36.5994 60.6446 36.4747 60.5646 36.3378C60.3559 35.9813 60.0495 35.6668 59.6375 35.5625C59.3867 35.5001 59.117 35.5164 58.873 35.6004C58.816 35.6194 58.7591 35.6424 58.7062 35.6709C58.5666 35.7468 58.6913 35.9596 58.8309 35.8837L58.8296 35.8823Z" fill="black"/>
<path d="M56.1823 34.4658C56.1213 33.99 55.7797 33.5739 55.3297 33.4113C55.087 33.3232 54.82 33.3096 54.5652 33.334C54.4988 33.3408 54.4418 33.3855 54.4418 33.4574C54.4418 33.5197 54.4988 33.5875 54.5652 33.5807C54.7739 33.5604 54.9867 33.5644 55.1887 33.6241C55.331 33.6661 55.4734 33.742 55.575 33.8315C55.6767 33.9209 55.7363 33.9968 55.8041 34.1134C55.8177 34.1364 55.8299 34.1595 55.8407 34.1839C55.8461 34.1947 55.8515 34.2069 55.857 34.2178C55.8597 34.2232 55.8624 34.2286 55.8637 34.234C55.8543 34.2123 55.8705 34.2489 55.8637 34.234C55.88 34.2747 55.8949 34.3167 55.9071 34.3587C55.9166 34.3913 55.9247 34.4251 55.9315 34.4577C55.9342 34.4739 55.9424 34.5336 55.9342 34.4645C55.9424 34.5309 55.9844 34.5878 56.0576 34.5878C56.1172 34.5878 56.1891 34.5309 56.1809 34.4645L56.1823 34.4658Z" fill="black"/>
<path d="M54.7263 31.0633C54.7263 31.0633 53.1485 28.6493 52.5928 28.6249C52.037 28.6005 51.8757 32.5475 51.8757 32.5475C51.8757 32.5475 52.9859 31.3764 54.7263 31.0633Z" fill="#E669A0"/>
<path d="M63.1689 34.6781C63.1689 34.6781 65.907 33.7726 66.3584 34.1007C66.8084 34.4273 64.4743 37.6153 64.4743 37.6153C64.4743 37.6153 64.336 36.0064 63.1689 34.6781Z" fill="#E669A0"/>
<path d="M51.5676 42.5653C51.5676 42.5653 59.1258 45.8184 62.528 43.4694C62.528 43.4694 60.0231 46.732 51.4469 43.5778C51.4469 43.5778 51.4835 42.8689 51.5689 42.564L51.5676 42.5653Z" fill="#E669A0"/>
<path d="M6.04925 44.9412C7.85205 46.4295 10.2011 46.0337 11.2272 44.4288C11.2272 44.4288 11.3668 44.826 11.8887 44.7595C11.8887 44.7595 11.1771 46.9215 11.8385 48.4003C12.5 49.8777 11.5742 51.0895 11.5742 51.0895C11.5742 51.0895 9.94086 50.9133 9.8758 53.1864C9.8758 53.1864 7.71379 54.1569 9.08284 56.472C9.08284 56.472 8.20041 58.5214 9.41357 59.4269C9.41357 59.4269 9.12621 61.9629 12.1029 62.2611C15.0795 62.558 17.7932 60.6075 17.7593 59.2846C17.7254 57.9616 18.6756 57.3544 17.7932 56.1643C17.7932 56.1643 18.6756 54.5757 17.8379 54.0457C17.8379 54.0457 18.8302 52.3718 17.8379 52.1061C17.8379 52.1061 18.433 51.4216 18.2785 50.5189C18.2785 50.5189 22.6513 52.6185 27.5243 52.7323C27.5405 52.8679 27.5459 53.0115 27.5405 53.1647C27.5405 53.1647 26.4602 53.3409 26.349 54.7519C26.2393 56.1643 26.9238 56.5601 26.9238 56.5601C26.9238 56.5601 26.307 57.1118 26.5036 57.9725C26.5036 57.9725 25.491 59.229 26.7476 60.0667C26.7476 60.0667 26.1308 60.7064 26.4168 61.4126C26.7028 62.1188 28.1586 62.7586 30.4535 62.5593C31.8916 62.4346 33.079 61.8328 33.5453 61.128C34.1106 61.25 36.377 61.6905 37.2228 61.0372C38.1933 60.2876 37.3543 59.2737 37.3543 59.2737C38.0157 57.841 37.155 56.3188 37.155 56.3188C38.787 54.0457 37.2662 53.143 37.2662 53.143C38.2136 51.7971 36.7145 51.2034 36.7145 51.2034C36.7145 50.077 37.0005 50.2315 37.2865 48.7541C37.5752 47.2766 36.6914 46.8361 36.6914 46.8361C37.9927 45.2489 36.1167 43.9259 36.1167 43.9259C36.8446 43.2198 36.6914 41.8738 36.6914 41.8738C36.6914 41.8738 36.0015 40.1903 36.6914 39.3011C41.0724 38.9514 42.0212 37.1866 42.0212 37.1866C44.5221 37.3127 44.3052 35.3378 44.3052 35.3378C44.3052 35.3378 45.4289 34.8309 45.4289 33.451C45.4289 33.0254 45.2893 32.6798 45.0982 32.4046C46.0443 32.5903 46.2097 31.8651 46.2097 31.8651C46.2097 31.8651 50.859 31.674 50.9945 27.567C51.1301 23.4613 47.2968 20.6867 47.2968 20.6867C48.167 18.1669 45.719 18.3662 45.719 18.3662C46.8427 15.1755 44.1249 15.1944 44.1249 15.1944C44.903 11.7868 41.2594 12.8915 41.2594 12.8915C40.9341 8.33992 37.0723 10.1901 37.0723 10.1901C35.8036 6.5453 33.2268 9.37413 33.2268 9.37413C31.2139 6.56428 29.9628 9.28331 29.9628 9.28331C28.0787 7.01835 27.1176 9.53814 27.1176 9.53814C23.7262 8.15964 23.5459 11.1321 23.5459 11.1321C21.514 9.77399 20.8797 12.2938 20.8797 12.2938C19.0145 12.5459 19.4659 14.4693 19.4659 14.4693C17.5628 14.5235 17.7796 16.6271 17.7796 16.6271C15.2788 16.6814 15.8765 19.601 15.8765 19.601C15.8765 19.601 11.5241 21.9934 11.9958 26.6697C12.4173 30.8567 15.4252 32.9237 18.757 32.9739C18.5821 34.7468 21.2158 35.4422 21.2158 35.4422C21.4056 36.5157 22.4534 36.3273 22.4534 36.3273C23.3914 38.6112 25.3582 37.207 25.3582 37.207C25.3582 37.207 25.7486 37.5174 26.6405 37.9023C26.2013 39.739 24.7604 39.617 24.7604 39.617C24.7604 39.617 18.3435 38.965 12.6532 42.4268C12.6532 42.4268 12.5542 42.195 12.1679 42.2506C12.1679 42.2506 12.7955 39.9667 11.7708 39.4218C10.7447 38.8755 10.6132 37.4848 8.26412 37.8156C5.91641 38.1463 5.17225 39.7525 5.1221 40.296C5.0733 40.8423 4.24645 43.4556 6.04925 44.9439V44.9412Z" fill="white"/>
<path d="M5.91177 45.0778C6.7725 45.7745 7.85012 46.1743 8.96433 46.0347C9.96197 45.91 10.8444 45.3665 11.3961 44.5261L11.0396 44.48C11.1724 44.8324 11.5316 44.9856 11.8895 44.9544L11.7011 44.7077C11.3907 45.6565 11.2605 46.7463 11.4354 47.7317C11.5032 48.1099 11.6726 48.4379 11.781 48.8012C11.8895 49.1645 11.9125 49.5562 11.8447 49.933C11.777 50.3098 11.636 50.688 11.4083 50.9902L11.5764 50.894C11.2537 50.8615 10.8932 50.9686 10.6207 51.1353C9.91724 51.565 9.7112 52.4135 9.68138 53.1861L9.77762 53.018C9.3764 53.201 9.01448 53.5344 8.7732 53.899C8.21474 54.7421 8.43704 55.7465 8.91418 56.572V56.3755C8.48855 57.3731 8.31776 58.8207 9.27609 59.5675L9.21916 59.4293C9.17443 59.8359 9.25711 60.2819 9.40215 60.66C9.72882 61.5153 10.4527 62.0805 11.3242 62.3205C12.6743 62.6905 14.1952 62.4574 15.4612 61.9057C16.4019 61.495 17.4917 60.801 17.8658 59.7885C17.9593 59.5364 17.9431 59.2978 17.9621 59.0349C17.9865 58.6675 18.1044 58.3205 18.2128 57.9722C18.4297 57.2741 18.3999 56.6764 17.9634 56.0664V56.263C18.3402 55.5784 18.7279 54.4168 17.9377 53.8774L18.0081 54.1444C18.3741 53.5222 18.8946 52.2224 17.8916 51.9174L17.9783 52.244C18.3945 51.7574 18.5598 51.0933 18.469 50.467L18.1816 50.688C20.1322 51.6219 22.2942 52.2373 24.4169 52.6087C25.4444 52.7889 26.4827 52.9001 27.5264 52.9272L27.3312 52.732C27.3461 52.877 27.3515 53.0194 27.3475 53.1644L27.4911 52.976C26.7687 53.1007 26.2956 53.8272 26.1872 54.5009C26.0787 55.1745 26.1316 56.3131 26.8283 56.7279L26.789 56.4215C26.3498 56.8228 26.2048 57.4585 26.3186 58.0237L26.3688 57.8339C26.1641 58.0901 26.0137 58.4046 25.954 58.7285C25.8374 59.3615 26.1411 59.8793 26.6521 60.2358L26.6128 59.9294C26.2576 60.3049 26.0448 60.8796 26.2034 61.3866C26.3417 61.8284 26.7429 62.1266 27.1441 62.3191C27.7663 62.6173 28.4644 62.7379 29.1489 62.7772C30.0408 62.8301 30.9666 62.7623 31.8192 62.4858C32.543 62.2513 33.2777 61.8677 33.7169 61.2266L33.496 61.3161C34.5329 61.5397 35.7474 61.7552 36.7871 61.457C37.351 61.2957 37.8511 60.8525 37.8864 60.2371C37.9094 59.8427 37.7413 59.4388 37.496 59.1352L37.5272 59.3724C37.965 58.3788 37.8566 57.167 37.3279 56.2209V56.4175C37.8389 55.6937 38.3269 54.7299 38.0152 53.8272C37.8999 53.4951 37.6763 53.1603 37.3699 52.9746L37.4404 53.2416C37.7861 52.7334 37.9271 52.1098 37.5326 51.5866C37.3415 51.3318 37.0663 51.1339 36.7708 51.0146L36.9145 51.2031C36.9199 50.2027 37.4852 49.3352 37.5407 48.3336C37.5733 47.7399 37.3754 46.9646 36.7952 46.6677L36.8345 46.974C37.3605 46.3099 37.5109 45.521 37.1043 44.7565C36.8982 44.3675 36.5797 44.0137 36.2205 43.7576L36.2598 44.0639C36.6244 43.6925 36.802 43.2018 36.8698 42.6935C36.9064 42.4224 36.9484 42.0931 36.8847 41.8206C36.8156 41.5306 36.6963 41.2568 36.642 40.9599C36.5458 40.4353 36.5363 39.8484 36.8657 39.4011L36.6976 39.4974C37.9921 39.3903 39.2988 39.1612 40.4849 38.6123C41.0379 38.3561 41.595 38.0172 41.9976 37.5509C42.0681 37.4683 42.1426 37.3815 42.1955 37.2853L42.0274 37.3815C42.8678 37.4168 43.8085 37.227 44.2585 36.4395C44.4415 36.1196 44.5459 35.7075 44.5066 35.3375L44.4104 35.5056C45.5801 34.9688 45.9719 33.3477 45.2738 32.3053L45.0529 32.5927C45.595 32.6862 46.2565 32.529 46.4043 31.9177L46.2159 32.0614C47.7259 31.9963 49.3863 31.3281 50.3271 30.1204C51.2678 28.9127 51.341 27.4555 51.0753 26.0689C50.8096 24.6823 50.079 23.3418 49.1641 22.2289C48.6476 21.6027 48.062 20.9982 47.4019 20.5197L47.4914 20.7406C47.7625 19.9328 47.8248 18.9243 46.9844 18.4391C46.6184 18.2276 46.1467 18.1395 45.7252 18.1721L45.9136 18.4188C46.2525 17.4388 46.4246 16.1565 45.4893 15.4462C45.1138 15.1616 44.6042 14.9976 44.1311 14.9989L44.3195 15.2456C44.5107 14.3822 44.531 13.2979 43.6621 12.7963C43.0806 12.4615 42.35 12.4873 41.7102 12.593C41.5435 12.6201 41.3768 12.654 41.2141 12.7028L41.4608 12.8912C41.3713 11.7201 41.0149 10.3633 39.8396 9.84281C39.1131 9.52021 38.2713 9.58799 37.5272 9.81435C37.3415 9.87127 37.1544 9.93634 36.9796 10.0204L37.2669 10.1369C36.947 9.23828 36.3832 8.20407 35.3137 8.13494C34.6291 8.09021 33.9799 8.47109 33.4688 8.88993C33.3387 8.99701 33.2099 9.11087 33.0947 9.23557L33.4011 9.27488C32.8223 8.47923 31.8775 7.5277 30.8175 8.06717C30.3756 8.29217 30.0083 8.73676 29.7995 9.18406L30.1059 9.14475C29.542 8.47923 28.6379 7.78117 27.7731 8.36943C27.3881 8.63104 27.1008 9.05394 26.9354 9.48633L27.1753 9.34943C26.3064 9.00243 25.2044 8.74489 24.3586 9.29656C23.8652 9.6178 23.5602 10.1519 23.4247 10.7144C23.3921 10.8513 23.365 10.9922 23.3555 11.1332L23.6497 10.9651C22.9137 10.4839 22.0163 10.3375 21.3589 11.0221C21.0431 11.3514 20.8086 11.8001 20.6961 12.2433L20.833 12.1064C20.0983 12.2162 19.4911 12.6459 19.2999 13.3846C19.2064 13.7479 19.1983 14.1559 19.2823 14.5218L19.4707 14.2751C18.6872 14.3077 18.042 14.694 17.7547 15.4381C17.6137 15.8054 17.55 16.2351 17.5893 16.6282L17.7845 16.433C16.7665 16.4655 15.9681 17.0159 15.7214 18.023C15.5927 18.5462 15.5872 19.1249 15.6943 19.6536L15.7838 19.4326C15.3053 19.6956 14.8648 20.048 14.4581 20.4086C13.5649 21.1974 12.8098 22.1652 12.3354 23.2631C11.1263 26.0621 11.9112 29.7327 14.3253 31.6547C15.5859 32.6578 17.1637 33.1403 18.7632 33.1701L18.568 32.9749C18.4514 34.4049 19.9628 35.309 21.1705 35.6316L21.0336 35.4947C21.1759 36.2077 21.794 36.6401 22.5111 36.5154L22.2901 36.4259C22.6317 37.2324 23.2851 37.9007 24.2204 37.822C24.6528 37.7854 25.1055 37.6269 25.462 37.3747L25.2248 37.3436C25.6192 37.6526 26.0909 37.8695 26.5464 38.0687L26.4569 37.8478C26.2604 38.6299 25.7209 39.4215 24.8317 39.4215C24.5402 39.4215 24.2475 39.3849 23.956 39.3767C21.7615 39.3212 19.5398 39.6017 17.4253 40.1846C15.7201 40.6536 14.0732 41.3408 12.5591 42.2571L12.8261 42.3276C12.7123 42.0876 12.4073 42.0321 12.1728 42.0538L12.3612 42.3004C12.5821 41.4899 12.7651 40.3147 12.2446 39.5855C12.0847 39.3618 11.861 39.2683 11.6482 39.1097C11.4638 38.9728 11.3066 38.802 11.1494 38.6353C10.7902 38.2517 10.4174 37.9034 9.91317 37.7217C9.18663 37.4601 8.33403 37.555 7.60342 37.7488C6.9311 37.9278 6.29131 38.2544 5.78977 38.7424C5.44684 39.0745 5.16218 39.4852 5.00766 39.9393C4.90193 40.251 4.88024 40.5655 4.82331 40.9003C4.56712 42.3967 4.67556 44.0314 5.91448 45.0805C6.1056 45.2418 6.38348 44.9666 6.191 44.804C5.15405 43.927 4.97784 42.5878 5.15269 41.3096C5.24893 40.6048 5.32078 39.9379 5.76402 39.3564C6.56511 38.3059 8.13612 37.7732 9.42248 37.9942C9.93621 38.0823 10.3361 38.3493 10.6926 38.7166C10.9976 39.0297 11.2768 39.351 11.6577 39.576C12.1714 39.8796 12.1917 40.556 12.1619 41.09C12.1416 41.4614 12.0833 41.8355 11.9857 42.1947C11.9545 42.3072 12.0454 42.4536 12.1741 42.4414C12.2717 42.4319 12.4384 42.4116 12.49 42.5214C12.5347 42.6163 12.6729 42.642 12.757 42.5919C15.3256 41.0385 18.2657 40.1683 21.2437 39.8728C22.1559 39.782 23.075 39.7427 23.9926 39.7671C24.2827 39.7752 24.5768 39.8186 24.8669 39.8091C25.9188 39.778 26.5965 38.9023 26.8364 37.9495C26.8554 37.8735 26.8256 37.7638 26.747 37.7285C26.4217 37.5862 26.1004 37.433 25.7941 37.25C25.7155 37.204 25.6382 37.1552 25.5623 37.1036C25.5447 37.0914 25.4227 36.9993 25.504 37.0643C25.4403 37.0142 25.3427 36.9803 25.2668 37.0332C24.9876 37.2311 24.6406 37.3707 24.303 37.4181C23.4653 37.536 22.9326 36.9396 22.629 36.224C22.5938 36.1399 22.4867 36.1209 22.4081 36.1345C22.4677 36.1237 22.3525 36.1386 22.3145 36.1399C22.2102 36.1426 22.1058 36.1331 22.0041 36.106C21.6503 36.0112 21.4796 35.7306 21.4104 35.3863C21.3969 35.3212 21.3359 35.267 21.2735 35.2494C20.2311 34.9715 18.8567 34.2165 18.9583 32.9695C18.9665 32.8624 18.8621 32.7757 18.7632 32.7743C17.4009 32.7486 16.0495 32.3826 14.919 31.6073C13.7885 30.832 12.9224 29.5917 12.5103 28.239C12.0589 26.7575 12.025 25.1594 12.5753 23.6996C12.9847 22.6112 13.6923 21.6515 14.5354 20.8613C14.9719 20.4519 15.4544 20.0575 15.9803 19.7661C16.0603 19.7227 16.0874 19.6292 16.0698 19.5451C15.9939 19.167 15.9871 18.6641 16.0698 18.2439C16.1376 17.901 16.2691 17.5621 16.5144 17.3046C16.8478 16.9562 17.3155 16.8342 17.7845 16.8193C17.8821 16.8166 17.9905 16.7326 17.9797 16.6241C17.9485 16.3164 17.9865 15.9925 18.0759 15.697C18.2752 15.0423 18.7943 14.6899 19.4694 14.6614C19.5995 14.656 19.6876 14.5408 19.6578 14.4147C19.5995 14.1599 19.5968 13.8427 19.6564 13.5662C19.796 12.9102 20.2949 12.5754 20.936 12.4792C20.9997 12.4697 21.0566 12.4019 21.0729 12.3423C21.161 12.0007 21.3291 11.6537 21.5555 11.384C22.0895 10.7442 22.8134 10.8797 23.4531 11.2972C23.5846 11.384 23.7378 11.2674 23.7473 11.1291C23.7541 11.0234 23.7744 10.9136 23.8164 10.7564C23.891 10.4731 24.0116 10.1979 24.1932 9.96616C24.9008 9.06749 26.1587 9.35756 27.0723 9.72218C27.1767 9.76419 27.2783 9.67473 27.3122 9.58527C27.3258 9.55003 27.3014 9.60425 27.3366 9.5297C27.3719 9.45515 27.4112 9.37925 27.4532 9.30605C27.5738 9.09731 27.7216 8.89535 27.9113 8.74489C28.6189 8.18645 29.3699 8.87095 29.8307 9.41584C29.908 9.50666 30.0869 9.48497 30.1371 9.37653C30.297 9.03225 30.5559 8.68932 30.8758 8.48058C31.7474 7.91265 32.581 8.80453 33.0636 9.46735C33.134 9.56359 33.2777 9.60832 33.3699 9.50666C33.7142 9.12984 34.1723 8.79369 34.6549 8.6229C35.0249 8.49278 35.4262 8.46703 35.7827 8.65408C36.3696 8.96177 36.6786 9.64491 36.8887 10.2359C36.9335 10.3619 37.0555 10.4094 37.1761 10.3525C37.1829 10.3484 37.191 10.3443 37.1978 10.3416C37.2629 10.3186 37.1992 10.3403 37.2385 10.324C37.3266 10.2888 37.4147 10.2549 37.5041 10.225C37.7847 10.1315 38.0748 10.0597 38.3689 10.0272C39.1565 9.9404 39.9494 10.1451 40.4361 10.8092C40.8712 11.4029 41.0121 12.1674 41.0677 12.8844C41.0772 13.0064 41.1856 13.1122 41.3144 13.0728C42.106 12.8343 43.4466 12.6974 43.8912 13.5798C44.1298 14.0528 44.0484 14.6398 43.94 15.1358C43.9129 15.2578 43.9956 15.3839 44.1284 15.3825C44.4808 15.3825 44.8915 15.4964 45.2074 15.716C46.0546 16.3056 45.8201 17.4794 45.5341 18.3076C45.4947 18.4215 45.6005 18.5638 45.7225 18.5543C46.0451 18.5285 46.4002 18.58 46.693 18.7197C47.4534 19.0816 47.3382 19.9531 47.1118 20.6281C47.082 20.7162 47.1335 20.7989 47.2013 20.8491C47.2637 20.8938 47.2393 20.8762 47.284 20.9114C47.387 20.9928 47.4887 21.0768 47.5876 21.1635C47.9143 21.4482 48.2247 21.7518 48.5161 22.0717C49.4067 23.049 50.1427 24.1997 50.525 25.4725C50.9194 26.7887 50.9818 28.3447 50.239 29.5524C49.709 30.4145 48.8252 30.9851 47.8845 31.3118C47.3463 31.4989 46.7716 31.6371 46.2132 31.6615C46.1291 31.6656 46.0451 31.7198 46.0247 31.8052C45.9353 32.1766 45.5042 32.2688 45.1532 32.2078C45 32.182 44.8292 32.3406 44.9322 32.4951C45.5205 33.3748 45.1925 34.7086 44.2084 35.1599C44.1528 35.1857 44.1054 35.267 44.1121 35.328C44.142 35.6099 44.0796 35.919 43.9522 36.1697C43.5903 36.8827 42.7499 37.0128 42.0247 36.9817C41.9583 36.9789 41.8878 37.021 41.8566 37.0779C41.7685 37.2392 41.6194 37.3856 41.4432 37.5401C40.9674 37.9589 40.3791 38.2517 39.7881 38.4686C39.3096 38.6448 38.8162 38.7749 38.3174 38.8752C38.0002 38.9389 37.6804 38.9891 37.3577 39.0284C37.1016 39.0596 36.6759 39.004 36.5065 39.2182C35.9711 39.8945 36.1907 41.0006 36.4441 41.7461C36.4604 41.7935 36.4767 41.841 36.4943 41.887C36.5228 41.9562 36.4916 41.8301 36.5011 41.8816C36.5255 42.0158 36.5146 42.1663 36.5106 42.3018C36.4916 42.8318 36.3642 43.3889 35.9819 43.7765C35.887 43.8728 35.9196 44.011 36.0212 44.0829C36.2232 44.2265 36.5214 44.541 36.6854 44.8053C37.0758 45.4315 37.0135 46.1093 36.5553 46.6853C36.4821 46.7775 36.4726 46.9293 36.5946 46.9917C37.168 47.2858 37.2005 48.1357 37.1002 48.6887C37.0135 49.1645 36.8657 49.6131 36.699 50.0645C36.5648 50.4304 36.5228 50.8018 36.5201 51.1895C36.5201 51.283 36.5824 51.3454 36.6637 51.3779C36.5838 51.3454 36.6651 51.3779 36.6868 51.3901C36.7315 51.4131 36.7749 51.4362 36.8183 51.4606C36.9484 51.5378 37.069 51.63 37.168 51.7452C37.5218 52.1492 37.3754 52.6263 37.0988 53.0316C37.0392 53.1197 37.0839 53.2471 37.1693 53.2986C37.2425 53.342 37.252 53.3542 37.3293 53.4314C37.4662 53.5683 37.5719 53.735 37.6356 53.918C37.9176 54.7191 37.4364 55.573 36.9877 56.2074C36.9484 56.2643 36.9552 56.347 36.9877 56.4039C37.4431 57.2185 37.5651 58.3016 37.187 59.1623C37.1476 59.2504 37.1571 59.3249 37.2181 59.3995C37.2073 59.3859 37.2276 59.413 37.2507 59.4469C37.2913 59.5093 37.3293 59.5716 37.3632 59.638C37.4567 59.8264 37.519 60.0433 37.4933 60.2548C37.4242 60.8322 36.8318 61.0721 36.3316 61.1426C35.433 61.27 34.4787 61.1182 33.599 60.9284C33.5082 60.9094 33.4295 60.9433 33.378 61.0179C32.9361 61.6617 32.1147 62.006 31.3841 62.1931C30.4556 62.4316 29.4227 62.4601 28.4779 62.3028C27.8937 62.2066 27.2146 62.0345 26.7849 61.5967C26.3905 61.1954 26.526 60.5746 26.8866 60.1938C26.9788 60.0962 26.9517 59.9593 26.8473 59.8874C26.2048 59.4388 26.2116 58.7556 26.6114 58.147C26.6263 58.124 26.644 58.1023 26.6602 58.0779C26.6196 58.1403 26.686 58.0494 26.6928 58.0142C26.7158 57.9044 26.667 57.7851 26.6629 57.674C26.6589 57.5628 26.6697 57.4422 26.6968 57.3297C26.7538 57.0938 26.8812 56.8539 27.0628 56.6886C27.1563 56.6032 27.1279 56.4432 27.0235 56.3822C26.9435 56.3348 26.8053 56.1586 26.7334 56.0203C26.5057 55.5771 26.4854 55.0024 26.5748 54.5212C26.6724 53.9953 27.0262 53.4409 27.5928 53.3433C27.6782 53.3284 27.7338 53.2349 27.7365 53.1549C27.7392 53.0099 27.7351 52.8662 27.7202 52.7225C27.7094 52.6154 27.6402 52.53 27.525 52.5273C24.5945 52.4514 21.6612 51.7222 18.9597 50.5972C18.7645 50.5158 18.568 50.4318 18.3768 50.341C18.2128 50.2624 18.0651 50.3911 18.0895 50.5619C18.16 51.0418 17.9973 51.611 17.6991 51.9594C17.6042 52.0705 17.6367 52.2413 17.7858 52.2861C18.4405 52.4853 17.8875 53.5683 17.6693 53.9397C17.6123 54.0359 17.6517 54.1471 17.7398 54.2067C18.305 54.593 17.8821 55.5934 17.6245 56.0583C17.5934 56.1152 17.5839 56.1992 17.6245 56.2548C17.9322 56.6831 18.0407 57.1006 17.9065 57.6143C17.7967 58.0345 17.6354 58.4344 17.5852 58.8681C17.5419 59.2314 17.5798 59.5323 17.3982 59.863C17.2165 60.1938 16.9563 60.4635 16.6743 60.7034C15.9234 61.3405 14.9719 61.7498 14.0135 61.9518C13.0552 62.1537 11.8935 62.1917 10.9677 61.7715C10.0419 61.3513 9.59599 60.473 9.60276 59.4889C9.60412 59.2707 9.42384 59.1989 9.29236 59.0362C9.0443 58.7285 8.96433 58.3287 8.96704 57.9424C8.96839 57.6116 9.02804 57.285 9.11614 56.9678C9.14596 56.8621 9.17985 56.7563 9.2178 56.652C9.22865 56.6221 9.24085 56.5923 9.25169 56.5625C9.28287 56.4798 9.25169 56.5991 9.25982 56.5408C9.29507 56.2995 9.05515 56.023 8.97246 55.794C8.89384 55.5771 8.83556 55.3494 8.82607 55.1176C8.8098 54.7489 8.90604 54.3965 9.11072 54.0888C9.3154 53.7811 9.63258 53.5033 9.97417 53.3487C10.0365 53.3203 10.0691 53.2444 10.0704 53.1807C10.0962 52.5111 10.267 51.7276 10.9257 51.4064C11.0694 51.3359 11.2429 51.2912 11.3879 51.2803C11.4747 51.2735 11.5926 51.2979 11.6712 51.2532C11.8081 51.1746 11.9017 50.9306 11.964 50.8005C12.128 50.4535 12.2311 50.0848 12.2622 49.7012C12.3056 49.1631 12.1565 48.6995 11.9681 48.2048C11.7987 47.7589 11.7458 47.2804 11.7512 46.806C11.7593 46.1364 11.8664 45.4451 12.0752 44.8067C12.1118 44.6928 12.0115 44.5491 11.8868 44.56C11.7417 44.5722 11.594 44.5695 11.4828 44.4624C11.4557 44.4366 11.3974 44.3309 11.4137 44.3729C11.3541 44.2143 11.1534 44.1791 11.0572 44.3268C10.5706 45.0683 9.77356 45.5495 8.89384 45.6511C7.91247 45.765 6.94601 45.4153 6.18693 44.7999C5.9931 44.6427 5.71522 44.9178 5.91041 45.0764L5.91177 45.0778Z" fill="black"/>
<path d="M24.6968 25.7551C24.7036 25.7618 24.709 25.77 24.7158 25.7781C24.7226 25.7862 24.7293 25.7944 24.7348 25.8025C24.7646 25.8391 24.7131 25.7713 24.7443 25.8147C24.8053 25.8974 24.8635 25.9828 24.9164 26.0709C25.0791 26.3393 25.2038 26.6307 25.2702 26.9384C25.3569 27.3328 25.3298 27.7435 25.1834 28.1203C25.0926 28.3562 24.953 28.5785 24.7903 28.7709C24.5694 29.0325 24.3078 29.221 24.0475 29.4378C23.9459 29.5219 23.9459 29.6262 23.9133 29.7455C23.8605 29.938 23.7941 30.1101 23.7209 30.2647C23.4403 30.861 23.0106 31.3829 22.4765 31.7692C21.4084 32.5445 20.0529 32.7899 18.7571 32.7763C18.5063 32.7736 18.5049 33.164 18.7571 33.1667C20.1966 33.1816 21.6998 32.882 22.8506 31.9725C23.4674 31.4846 23.9459 30.8285 24.2129 30.0884C24.2631 29.9502 24.3105 29.8052 24.3335 29.6588L24.2441 29.7753C25.0072 29.2372 25.6538 28.489 25.7067 27.5185C25.7392 26.9221 25.5372 26.323 25.22 25.8228C25.1455 25.7049 25.0642 25.587 24.9706 25.4813C24.8039 25.2915 24.5287 25.5694 24.6941 25.7578L24.6968 25.7551Z" fill="black"/>
<path d="M18.9918 32.9706C18.9945 32.9476 18.9972 32.9232 19 32.9002L18.9918 32.9625C18.9932 32.9517 18.9945 32.9408 18.9959 32.9313C19.0054 32.9002 19.0067 32.869 19 32.8392C18.9986 32.808 18.9891 32.7795 18.9728 32.7524C18.9579 32.7253 18.939 32.7036 18.9132 32.6874C18.8902 32.667 18.8644 32.6535 18.8346 32.6453L18.7722 32.6372C18.7302 32.6372 18.6909 32.6481 18.6557 32.6684L18.6082 32.705C18.5797 32.7334 18.5594 32.7687 18.5486 32.808C18.5404 32.8622 18.5337 32.9178 18.5269 32.972C18.5269 33.0045 18.5323 33.0344 18.5472 33.0615C18.5567 33.0899 18.573 33.1157 18.5947 33.136C18.6163 33.1591 18.6407 33.1753 18.6692 33.1835C18.6963 33.1984 18.7261 33.2051 18.7587 33.2038L18.821 33.1957C18.8603 33.1848 18.8942 33.1645 18.924 33.136L18.9606 33.0886C18.9823 33.052 18.9918 33.0127 18.9918 32.972V32.9706Z" fill="black"/>
<path d="M45.2688 32.3042C44.9638 31.8773 44.526 31.5276 44.0339 31.3392L44.1708 31.5791C44.4256 30.839 44.4677 30.0366 44.1437 29.3114C44.0163 29.0254 43.8252 28.7231 43.5758 28.5252L43.6259 28.715C43.8563 28.0156 43.9648 27.2213 43.6842 26.5192C43.5744 26.2454 43.4117 25.9729 43.1745 25.7927C42.9739 25.6408 42.7801 25.9797 42.978 26.1302C42.917 26.0841 42.9563 26.1125 42.9834 26.1383C43.0187 26.1735 43.0525 26.2074 43.0837 26.2454C43.1596 26.3348 43.2613 26.5043 43.3182 26.6493C43.5703 27.2796 43.4551 27.9858 43.2491 28.6106C43.2288 28.6703 43.2491 28.7597 43.2992 28.8004C44.0786 29.4226 44.0949 30.5991 43.794 31.4747C43.7574 31.5818 43.8374 31.6794 43.9309 31.7146C43.9431 31.7187 43.9743 31.7336 43.9255 31.7119C43.9512 31.7241 43.9783 31.735 44.0041 31.7472C44.0936 31.7905 44.1817 31.838 44.2671 31.8908C44.5246 32.0494 44.7564 32.2527 44.9326 32.4994C45.0776 32.7027 45.4165 32.5076 45.2701 32.3029L45.2688 32.3042Z" fill="black"/>
<path d="M42.2648 26.3066C42.1957 26.3432 42.1862 26.3445 42.1062 26.373C41.9544 26.4258 41.7945 26.4638 41.6345 26.476C41.1154 26.5139 40.6599 26.2903 40.3454 25.8782C40.2912 25.8064 40.2018 25.7671 40.1164 25.8186C39.4359 26.2185 38.4112 26.5017 37.6914 26.0463C37.3349 25.82 37.1207 25.4391 36.9893 25.0487C36.9459 24.9213 36.7534 24.8738 36.6829 25.0094C36.5541 25.2574 36.3549 25.4892 36.096 25.6221C35.4115 25.9731 34.7961 25.1748 34.4708 24.6841C34.3962 24.5716 34.1983 24.5757 34.1644 24.7234C34.0316 25.3184 33.6154 26.1114 32.8984 26.0544C32.4985 26.0233 32.1325 25.7671 31.8343 25.5204C31.7435 25.4459 31.5836 25.4608 31.5551 25.5936C31.4196 26.2063 30.8882 26.7227 30.201 26.6983C29.755 26.682 29.3294 26.4936 28.9444 26.2822C28.8767 26.2442 28.798 26.2578 28.7411 26.3079C28.5297 26.5004 28.2342 26.6969 27.9251 26.7891C27.7286 26.8487 27.5103 26.8637 27.3355 26.739C27.0495 26.5329 26.9736 26.0965 26.9329 25.7739C26.9071 25.5624 26.571 25.5597 26.5981 25.7739C26.6672 26.3337 26.8597 27.071 27.5225 27.1605C27.9427 27.2174 28.3643 27.0006 28.6977 26.7647C28.794 26.6969 28.8902 26.6251 28.9783 26.5451L28.775 26.5709C29.4121 26.9206 30.2077 27.212 30.918 26.8989C31.3152 26.724 31.6039 26.3743 31.7733 25.9813C31.8154 25.885 31.8547 25.7847 31.8777 25.6817L31.5985 25.7549C32.1258 26.1927 32.8482 26.6075 33.5287 26.2564C33.957 26.0355 34.2186 25.58 34.384 25.1449C34.4247 25.0365 34.4626 24.9254 34.4884 24.8115L34.182 24.8508C34.5358 25.3835 35.0739 26.0707 35.7924 26.0409C36.218 26.0219 36.565 25.7495 36.813 25.4228C36.8713 25.3455 36.9296 25.2642 36.9743 25.1775L36.668 25.1382C36.9174 25.8782 37.4311 26.4773 38.235 26.5871C38.8124 26.6658 39.3993 26.5126 39.9266 26.2849C40.0486 26.232 40.1706 26.1764 40.2858 26.1087L40.0567 26.049C40.4268 26.5329 40.9473 26.8393 41.5681 26.8162C41.8622 26.8054 42.1726 26.7362 42.4343 26.598C42.6254 26.4977 42.4559 26.209 42.2648 26.3093V26.3066Z" fill="black"/>
<path d="M27.5249 53.0118C27.5439 53.0131 27.5628 53.0131 27.5832 53.0131C27.6225 53.0145 27.6577 53.0063 27.6916 52.9887C27.7269 52.9779 27.7567 52.9575 27.7824 52.9304C27.8095 52.9047 27.8299 52.8749 27.8407 52.8396C27.8583 52.8057 27.8665 52.7691 27.8651 52.7312L27.8556 52.6566C27.8421 52.6092 27.8177 52.5672 27.7824 52.5319L27.7255 52.4872C27.6808 52.4615 27.6333 52.4493 27.5832 52.4493C27.5642 52.4493 27.5452 52.4493 27.5249 52.4479C27.4856 52.4465 27.4503 52.4547 27.4164 52.4723C27.3812 52.4831 27.3514 52.5035 27.3256 52.5306C27.2985 52.5563 27.2782 52.5862 27.2673 52.6214C27.2497 52.6553 27.2416 52.6919 27.2429 52.7298L27.2524 52.8044C27.266 52.8518 27.2904 52.8938 27.3256 52.9291L27.3826 52.9738C27.4273 52.9996 27.4747 53.0118 27.5249 53.0118Z" fill="black"/>
<path d="M34.999 48.3988C34.9177 49.9874 34.0719 51.4255 32.8411 52.4068C32.7869 52.4502 32.6757 52.5356 32.5809 52.5952C32.4629 52.6698 32.4453 52.8623 32.5809 52.9327C32.9441 53.1212 33.1759 53.4261 33.1109 53.8477C33.081 54.0456 33.0146 54.2231 32.9075 54.3871C32.8465 54.4807 32.894 54.5959 32.978 54.6542C33.466 54.9998 33.2179 55.7155 32.9523 56.1289C32.8913 56.2238 32.9387 56.3376 33.0227 56.3959C33.6883 56.8676 33.8116 57.7012 33.7086 58.4589C33.6652 58.772 33.5866 59.0797 33.4877 59.3793C33.4538 59.4782 33.4172 59.5772 33.3792 59.6748C33.3725 59.691 33.3657 59.7059 33.3603 59.7222C33.3847 59.6653 33.367 59.7059 33.3616 59.7181C33.3575 59.7276 33.3535 59.7358 33.3494 59.7452C33.3223 59.8035 33.306 59.8849 33.3494 59.9418C33.6178 60.2928 33.6124 60.6588 33.3779 61.0275C33.2423 61.2403 33.5798 61.4355 33.7154 61.224C34.0177 60.751 34.0353 60.1993 33.6869 59.7452V59.9418C34.0868 59.0702 34.3267 57.9222 33.9675 57.0045C33.8157 56.6155 33.5609 56.2997 33.2206 56.0584L33.2911 56.3254C33.6883 55.706 33.8591 54.7992 33.1759 54.3167L33.2464 54.5837C33.3928 54.356 33.4823 54.0781 33.508 53.8097C33.5582 53.2703 33.245 52.8379 32.7788 52.5952V52.9327C33.0946 52.7335 33.3819 52.4746 33.6449 52.2116C34.2373 51.6166 34.7157 50.9118 35.0234 50.1297C35.2417 49.5766 35.3596 48.9911 35.3894 48.3988C35.4016 48.148 35.0112 48.148 34.999 48.3988Z" fill="black"/>
<path d="M28.2396 48.5617C27.7015 48.7257 27.2555 49.1893 27.0481 49.7003C26.8407 50.2113 26.8421 50.7643 26.9505 51.2821C27.0522 51.7714 27.2691 52.2309 27.3287 52.7297C27.3585 52.9764 27.7489 52.9792 27.7191 52.7297C27.6635 52.2716 27.5022 51.8501 27.3829 51.4068C27.2514 50.9256 27.2175 50.4065 27.3789 49.928C27.4846 49.6122 27.6947 49.3303 27.9685 49.1392C28.0593 49.0755 28.1542 49.0212 28.2545 48.9738C28.3006 48.9521 28.2491 48.9738 28.3074 48.9521C28.3196 48.948 28.3318 48.9426 28.344 48.9399C28.5839 48.8667 28.4809 48.4899 28.2396 48.5631V48.5617Z" fill="black"/>
<path d="M35.9907 34.2073C35.9907 34.2073 34.7531 34.2887 34.7938 33.1609C34.8344 32.0318 35.9771 31.9641 36.6562 31.9505C37.3367 31.937 38.2747 32.345 38.2882 33.0796C38.3018 33.8143 37.7447 34.1545 37.2133 34.2087C37.2133 34.2087 37.5806 35.392 38.8995 34.5896C38.8995 34.5896 39.3482 34.4039 39.439 34.6397C39.5298 34.8756 39.3577 35.4923 38.6691 35.6008C37.9805 35.7092 37.1008 35.0572 36.9734 35.0572C36.846 35.0572 35.3604 35.9369 34.1716 35.945C32.9842 35.9545 32.3851 34.7943 32.9571 34.4947C33.5277 34.1952 33.4559 35.0748 34.6257 34.9474C35.7955 34.82 35.931 34.6031 35.9907 34.2087V34.2073Z" fill="black"/>
<path d="M29.7817 29.8434C29.7817 29.8434 29.7885 29.8339 29.7926 29.8285C29.8387 29.7661 29.7573 29.8691 29.7817 29.842C29.8251 29.7919 29.8658 29.7377 29.9105 29.6889C30.061 29.5194 30.2263 29.3636 30.4039 29.2199C30.4188 29.2077 30.4337 29.1955 30.45 29.1833C30.4459 29.1874 30.4134 29.2104 30.4432 29.1887C30.473 29.167 30.5001 29.1467 30.5286 29.1264C30.5937 29.0803 30.6587 29.0369 30.7265 28.9949C30.8661 28.9095 31.0112 28.8309 31.1616 28.7672C31.2565 28.7265 31.4598 28.6601 31.6022 28.6275C31.7838 28.5855 31.9261 28.5679 32.1186 28.5652C32.6106 28.5584 33.0851 28.7021 33.5188 28.9285C33.8862 29.1196 34.2128 28.5638 33.8441 28.3714C32.9983 27.9295 32.0264 27.7736 31.1115 28.0989C30.5001 28.3158 29.9525 28.6967 29.512 29.1697C29.4103 29.2795 29.3114 29.3961 29.2246 29.5194C29.1243 29.6618 29.1989 29.8786 29.3398 29.9613C29.5011 30.0562 29.6801 29.9884 29.7817 29.8461V29.8434Z" fill="black"/>
<path d="M41.7129 29.3321C41.1964 28.6015 40.3072 28.0715 39.4045 28.0797C38.945 28.0837 38.5058 28.2234 38.1005 28.4335C37.7318 28.6246 38.0585 29.1817 38.4258 28.9905C38.7932 28.7994 39.1808 28.6991 39.5929 28.7317C39.8748 28.7547 40.1717 28.8645 40.4292 29.0177C40.493 29.0556 40.5553 29.0963 40.6149 29.1396C40.6231 29.1451 40.7017 29.2033 40.6732 29.1817C40.6448 29.16 40.718 29.2183 40.7247 29.2237C40.8156 29.2982 40.901 29.3782 40.9836 29.4622C41.0406 29.5205 41.0934 29.5829 41.1463 29.6452C41.21 29.7211 41.1029 29.5815 41.1571 29.6588C41.2574 29.8011 41.4391 29.8675 41.599 29.774C41.74 29.6913 41.8159 29.4758 41.7142 29.3321H41.7129Z" fill="black"/>
<path d="M15.9667 19.7747C15.9667 19.7747 12.0412 22.0559 12.1727 26.0179C12.3041 29.9799 14.8836 32.5823 18.3456 32.7463C21.8075 32.909 23.5059 31.4072 23.9641 29.4905C23.9641 29.4905 25.4876 28.5648 25.3033 27.2147C25.1176 25.8647 24.2474 25.3198 24.2474 25.3198C24.2474 25.3198 24.9224 22.5005 23.0938 22.1576C23.0938 22.1576 22.816 19.9197 21.085 19.8058C19.354 19.692 18.8634 20.4104 18.8634 20.4104C18.8634 20.4104 17.3669 18.8747 15.9667 19.7733V19.7747Z" fill="#E669A0"/>
<path d="M43.0796 25.7202C43.0796 25.7202 42.4426 23.7765 43.8794 23.3034C43.8794 23.3034 43.6828 22.3397 44.4514 22.2096C44.4514 22.2096 44.0271 20.7077 45.2186 20.3309C46.4114 19.9555 47.1705 20.8365 47.1705 20.8365C47.1705 20.8365 49.9059 22.8399 50.6351 25.8991C51.3644 28.9584 49.8625 31.3751 46.0929 31.6883C46.0929 31.6883 45.9994 32.3009 45.2064 32.2237C45.2064 32.2237 44.7808 31.6611 44.2223 31.428C44.2223 31.428 44.7699 29.6076 43.6503 28.6114C43.6503 28.6114 44.3633 26.6134 43.0783 25.7202H43.0796Z" fill="#E669A0"/>
<path d="M26.831 37.9419C26.831 37.9419 31.9575 39.6823 36.5743 39.1618C36.5743 39.1618 36.0022 39.5833 36.2218 40.913C36.2218 40.913 28.4684 40.8087 25.9784 39.3678C25.9784 39.3678 26.5613 38.9802 26.831 37.9419Z" fill="#E669A0"/>
<path d="M66.952 15.7395V18.8584C66.952 19.0427 66.8029 19.1918 66.6186 19.1918H63.7653C63.5809 19.1918 63.4318 19.3409 63.4318 19.5253V22.3758C63.4318 22.5601 63.2827 22.7092 63.0984 22.7092H59.9821C59.7978 22.7092 59.6487 22.5601 59.6487 22.3758V19.5253C59.6487 19.3409 59.4996 19.1918 59.3152 19.1918H56.4619C56.2776 19.1918 56.1284 19.0427 56.1284 18.8584V15.7395C56.1284 15.5552 56.2776 15.4061 56.4619 15.4061H59.3152C59.4996 15.4061 59.6487 15.257 59.6487 15.0726V12.2221C59.6487 12.0378 59.7978 11.8887 59.9821 11.8887H63.0984C63.2827 11.8887 63.4318 12.0378 63.4318 12.2221V15.0726C63.4318 15.257 63.5809 15.4061 63.7653 15.4061H66.6186C66.8029 15.4061 66.952 15.5552 66.952 15.7395Z" fill="white"/>
<path d="M54.066 58.1032C54.066 58.1032 53.4641 61.1611 54.7451 62.4677C54.7451 62.4677 51.8172 62.5206 51.5827 60.8208C51.3469 59.1225 54.066 58.1018 54.066 58.1018V58.1032Z" fill="black"/>
<path d="M50.9354 59.3237C50.9354 59.3237 49.6219 62.3233 53.4444 62.5578C53.4444 62.5578 50.3661 61.773 51.7392 59.7155L50.9354 59.3237Z" fill="#F6B519"/>
</svg>
