<svg width="66" height="56" viewBox="0 0 66 56" fill="none" xmlns="http://www.w3.org/2000/svg">
<path d="M60.6411 29.0155C60.6411 34.122 59.3466 38.9156 57.0766 43.0694C56.9482 43.0543 56.8144 43.0382 56.6768 43.0231C52.2093 42.525 43.2008 42.1857 32.8153 42.1857C22.4298 42.1857 13.4195 42.526 8.95284 43.0231C8.81532 43.0382 8.68239 43.0543 8.55403 43.0694C6.28496 38.9156 4.98952 34.121 4.98952 29.0155C4.9886 13.1733 17.447 0.330078 32.8153 0.330078C48.1836 0.330078 60.6411 13.1733 60.6411 29.0155Z" fill="#F6B519"/>
<path d="M62.7049 43.5378C62.7049 43.8195 61.3214 44.0841 58.8974 44.3128H58.8965L47.0248 44.9347C42.7993 45.0557 37.9586 45.1247 32.8153 45.1247C27.6721 45.1247 22.8296 45.0557 18.605 44.9347C14.0815 44.8043 10.2612 44.6143 7.52452 44.3828C7.24948 44.3591 6.98636 44.3364 6.73424 44.3128C4.30838 44.0831 2.92585 43.8195 2.92585 43.5369C2.92585 43.293 3.96092 43.0605 5.8101 42.8545C5.95312 42.8384 6.10164 42.8224 6.25475 42.8072C11.2266 42.2969 21.2554 41.9481 32.8163 41.9481C44.3771 41.9481 54.4041 42.2969 59.3769 42.8072C59.53 42.8233 59.6794 42.8394 59.8224 42.8545C61.6716 43.0615 62.7067 43.2921 62.7067 43.5369L62.7049 43.5378Z" fill="black"/>
<path d="M3.10127 54.3737C3.07927 54.3737 3.05818 54.3652 3.04168 54.351C3.02243 54.334 3.01143 54.3094 3.01051 54.283L2.87849 48.4109C2.87849 48.4109 1.60414 48.5102 1.60139 48.5102C1.55463 48.5102 1.51521 48.4733 1.51154 48.4251L1.38777 47.0074C1.38594 46.9819 1.39327 46.9573 1.40886 46.9384C1.42444 46.9195 1.44736 46.9072 1.47212 46.9063C1.47212 46.9063 5.64356 46.6398 5.64539 46.6398C5.66831 46.6398 5.69031 46.6492 5.70773 46.6653C5.72607 46.6832 5.73615 46.7078 5.73615 46.7333V48.1189C5.73615 48.168 5.69948 48.2087 5.65273 48.2125L4.41505 48.3117L4.58832 54.1176C4.59015 54.1667 4.5544 54.2083 4.50764 54.213L3.11136 54.3728C3.11136 54.3728 3.10494 54.3728 3.10127 54.3728V54.3737Z" fill="#3FA3DB"/>
<path d="M5.11794 54.1497C5.09594 54.1497 5.07394 54.1411 5.05743 54.126C5.0391 54.109 5.0281 54.0854 5.02718 54.0599L4.84107 49.0063C4.83924 48.9562 4.87591 48.9137 4.9245 48.9099L6.18601 48.8031C6.18601 48.8031 6.1906 48.8031 6.19335 48.8031C6.21535 48.8031 6.23736 48.8116 6.25386 48.8267C6.27219 48.8437 6.2832 48.8674 6.28411 48.8929L6.30703 49.5554C6.45647 49.4061 6.61416 49.288 6.77735 49.2019C6.98088 49.0951 7.17983 49.0413 7.36777 49.0413C7.38611 49.0413 7.40536 49.0413 7.42369 49.0432C7.62356 49.0545 7.82159 49.1055 8.01045 49.1953C8.20297 49.287 8.36616 49.4278 8.49635 49.615C8.62103 49.7955 8.7228 49.9968 8.79798 50.2132C8.87407 50.4334 8.90524 50.6858 8.89149 50.9636C8.87682 51.2406 8.81173 51.5184 8.69805 51.7897C8.68338 51.8237 8.65037 51.8464 8.61462 51.8464C8.61187 51.8464 8.60912 51.8464 8.60637 51.8464L7.40719 51.7396C7.37694 51.7368 7.35035 51.7188 7.33568 51.6914C7.32101 51.664 7.32101 51.6309 7.33476 51.6035C7.49245 51.2916 7.48329 51.0015 7.30726 50.716C7.19908 50.5336 7.07806 50.4457 6.93504 50.4457C6.90387 50.4457 6.86995 50.4504 6.83603 50.459C6.67559 50.4949 6.53623 50.6423 6.4198 50.8984L6.53256 53.9569C6.5344 54.0069 6.49681 54.0504 6.44822 54.0542C6.44822 54.0542 5.11978 54.1506 5.11794 54.1506V54.1497Z" fill="#3FA3DB"/>
<path d="M12.4908 54.277C12.4477 54.277 12.4092 54.2448 12.4019 54.1995L12.3029 53.6163C12.0645 53.9764 11.652 54.1588 11.0744 54.1588C10.5619 54.1588 10.1429 54.0492 9.82936 53.8337C9.51123 53.6154 9.30862 53.3309 9.22794 52.9888C9.15001 52.6618 9.11975 52.3036 9.13717 51.9227C9.15459 51.5427 9.22244 51.1685 9.33795 50.8103C9.45255 50.4568 9.56807 50.1468 9.68267 49.8897C9.80094 49.6223 9.9027 49.4436 9.99346 49.3425C10.0109 49.3236 10.0347 49.3123 10.0604 49.3123L11.4383 49.3548C11.4713 49.3557 11.5016 49.3756 11.5163 49.4058C11.5309 49.4361 11.5291 49.4729 11.5108 49.5003C11.3696 49.7149 11.2284 49.9918 11.09 50.3216C10.9506 50.6543 10.8305 51.0144 10.7324 51.3906C10.638 51.7526 10.6407 52.0607 10.7388 52.3064C10.8314 52.537 11.0285 52.6485 11.343 52.6485C11.8867 52.6485 12.1626 51.7724 12.1626 50.0447V49.8529C12.1626 49.8028 12.2011 49.7612 12.2497 49.7593C12.2497 49.7593 13.4929 49.7054 13.4947 49.7054C13.5415 49.7054 13.5818 49.7432 13.5855 49.7914C13.5992 49.9786 13.6121 50.4124 13.6222 51.0815C13.6322 51.7507 13.6552 52.3555 13.6891 52.8782C13.723 53.3961 13.7798 53.7732 13.8596 53.9982C13.8688 54.0256 13.866 54.0549 13.8514 54.0795C13.8367 54.104 13.8119 54.1201 13.7844 54.1229L12.5018 54.2723C12.5018 54.2723 12.4954 54.2723 12.4917 54.2723L12.4908 54.277Z" fill="#3FA3DB"/>
<path d="M16.7213 54.2991C16.0034 54.2991 15.3791 54.0297 14.8675 53.4985C14.3559 52.9674 14.0965 52.319 14.0965 51.5724C14.0965 50.8257 14.3559 50.1774 14.8675 49.6462C15.3791 49.1151 16.0025 48.8457 16.7213 48.8457C17.44 48.8457 18.0634 49.1151 18.575 49.6462C19.0866 50.1774 19.3461 50.8257 19.3461 51.5724C19.3461 52.319 19.0866 52.9674 18.575 53.4985C18.0634 54.0297 17.44 54.2991 16.7213 54.2991ZM16.7112 50.2908C16.3674 50.2908 16.0822 50.4127 15.8393 50.6632C15.5963 50.9136 15.4781 51.2076 15.4781 51.562C15.4781 51.9164 15.5963 52.2103 15.8393 52.4608C16.0822 52.7113 16.3674 52.8332 16.7112 52.8332C17.055 52.8332 17.3401 52.7113 17.583 52.4608C17.826 52.2103 17.9443 51.9164 17.9443 51.562C17.9443 51.2076 17.826 50.9136 17.583 50.6632C17.3401 50.4127 17.055 50.2908 16.7112 50.2908Z" fill="#3FA3DB"/>
<path d="M19.8337 54.0325C19.8117 54.0325 19.7897 54.024 19.7732 54.0089C19.7549 53.9918 19.7439 53.9682 19.743 53.9427L19.578 49.4761C19.577 49.4505 19.5862 49.426 19.6036 49.408C19.621 49.39 19.644 49.3796 19.6687 49.3796H20.9715C21.0201 49.3796 21.0595 49.4184 21.0623 49.4685L21.076 49.7426C21.5922 49.4874 22.0506 49.3579 22.4402 49.3579C22.6061 49.3579 22.7629 49.3815 22.9069 49.4278C23.4157 49.5914 23.7907 49.9278 24.0217 50.4259C24.2472 50.9136 24.3545 51.4892 24.3407 52.1366C24.327 52.7821 24.1986 53.3917 23.9612 53.9474C23.9465 53.9814 23.9144 54.0032 23.8777 54.0032L22.5007 53.9814C22.4714 53.9814 22.4439 53.9654 22.4274 53.9408C22.4109 53.9153 22.4072 53.8841 22.4173 53.8548C22.5181 53.5779 22.6016 53.2641 22.6667 52.921C22.7308 52.5798 22.7703 52.233 22.784 51.8899C22.7968 51.56 22.7464 51.2775 22.6337 51.0516C22.5273 50.8389 22.3705 50.7264 22.1532 50.7075C22.0982 50.7019 22.0469 50.699 21.9983 50.699C21.6609 50.699 21.4372 50.8342 21.3125 51.1121C21.2621 51.2349 21.2282 51.406 21.2117 51.6186C21.1952 51.8379 21.1897 52.0402 21.1961 52.2207C21.2025 52.4012 21.2199 52.6668 21.2475 53.0108C21.2759 53.3624 21.2924 53.6195 21.2997 53.7981V53.834C21.2997 53.8832 21.263 53.9238 21.2163 53.9276C21.2163 53.9276 19.8365 54.0344 19.8337 54.0344V54.0325Z" fill="#3FA3DB"/>
<path d="M26.5002 56.0001C26.292 56.0001 26.0674 55.9869 25.8327 55.9614C25.7933 55.9567 25.7612 55.9274 25.7539 55.8867L25.4953 54.5862C25.4889 54.556 25.4981 54.5239 25.5201 54.5012C25.5375 54.4832 25.5604 54.4738 25.5843 54.4738C25.5898 54.4738 25.5962 54.4738 25.6017 54.4757C25.7365 54.5031 25.874 54.5229 26.0097 54.5324C26.05 54.5352 26.094 54.5371 26.1426 54.5371C26.2572 54.5371 26.3966 54.5286 26.5579 54.5116C26.7789 54.4879 26.9677 54.4322 27.1181 54.3471C27.2629 54.2649 27.3858 54.1184 27.4839 53.9133C27.5664 53.7404 27.6031 53.5239 27.5939 53.2697C27.152 53.5438 26.6918 53.6884 26.2233 53.7016C26.2022 53.7016 26.182 53.7016 26.1619 53.7016C25.6659 53.7016 25.2295 53.5239 24.8664 53.1742C24.4878 52.8104 24.2815 52.283 24.2531 51.6072C24.2668 50.7368 24.5675 50.0657 25.147 49.6045C25.5192 49.3087 25.951 49.1584 26.4296 49.1584C26.6597 49.1584 26.9045 49.1934 27.1593 49.2624V48.9061C27.1593 48.8579 27.1951 48.8172 27.2428 48.8125L28.463 48.7057C28.463 48.7057 28.4685 48.7057 28.4704 48.7057C28.5144 48.7057 28.5529 48.7388 28.5602 48.7841C28.5813 48.9193 28.6097 49.1187 28.6482 49.3824C28.6858 49.6461 28.7124 49.8313 28.7261 49.9381C28.9673 51.5486 29.0782 52.6913 29.058 53.333C29.0296 54.5588 28.6363 55.365 27.8891 55.7279C27.5196 55.9075 27.053 55.9992 26.502 55.9992L26.5002 56.0001ZM26.6285 50.578C26.3727 50.578 26.1573 50.6593 25.9693 50.8275C25.7887 50.9891 25.7154 51.2046 25.7465 51.4872C25.7713 51.7461 25.8529 51.9371 25.9886 52.0552C26.1169 52.1667 26.2572 52.2206 26.4186 52.2206C26.4314 52.2206 26.4442 52.2206 26.458 52.2197C26.6459 52.2093 26.832 52.1639 27.0108 52.0836C27.1731 52.0108 27.3024 51.9229 27.3959 51.8236C27.3931 51.6167 27.3638 51.2273 27.3097 50.664C27.0997 50.6073 26.8705 50.578 26.6285 50.578Z" fill="#3FA3DB"/>
<path d="M2.64769 53.9525C2.61468 53.9525 2.58259 53.9402 2.55784 53.9175C2.52942 53.892 2.512 53.8542 2.51108 53.8154L2.37998 47.9935L1.15789 48.0889C1.15789 48.0889 1.15055 48.0889 1.1478 48.0889C1.07813 48.0889 1.01853 48.0341 1.01212 47.9613L0.888349 46.5427C0.884681 46.5049 0.8966 46.4671 0.920437 46.4387C0.944273 46.4104 0.978195 46.3924 1.01487 46.3905C1.01487 46.3905 5.18814 46.124 5.19089 46.124C5.22573 46.124 5.25873 46.1373 5.2844 46.1618C5.31191 46.1883 5.32749 46.2252 5.32749 46.2639V47.6495C5.32749 47.7232 5.27248 47.7837 5.20189 47.7893L4.0073 47.8857L4.17874 53.6472C4.18058 53.72 4.12832 53.7833 4.05773 53.7909L2.66144 53.9506C2.65686 53.9506 2.65135 53.9506 2.64677 53.9506L2.64769 53.9525Z" fill="#221F1F"/>
<path d="M4.66427 53.7285C4.63127 53.7285 4.59826 53.7163 4.57351 53.6926C4.54601 53.6671 4.5295 53.6312 4.52859 53.5934L4.34248 48.5398C4.33973 48.4652 4.39473 48.4009 4.46716 48.3943L5.72868 48.2875C5.72868 48.2875 5.73601 48.2875 5.73968 48.2875C5.77268 48.2875 5.80477 48.2998 5.83044 48.3234C5.85795 48.3489 5.87445 48.3848 5.87628 48.4236L5.89553 48.984C6.02664 48.864 6.16324 48.7667 6.30351 48.6929C6.51346 48.5824 6.71882 48.5275 6.9141 48.5275C6.93335 48.5275 6.9526 48.5275 6.97186 48.5294C7.17814 48.5408 7.38075 48.5937 7.57511 48.6863C7.77497 48.7818 7.94458 48.9283 8.07843 49.1211C8.20587 49.3054 8.30947 49.5105 8.38556 49.7316C8.46349 49.9575 8.49558 50.2165 8.48091 50.5C8.46624 50.7826 8.40023 51.0652 8.2838 51.3421C8.26179 51.3941 8.2132 51.4272 8.15911 51.4272C8.15544 51.4272 8.15178 51.4272 8.14719 51.4272L6.94802 51.3204C6.9031 51.3166 6.86276 51.2892 6.84075 51.2485C6.81875 51.2079 6.81783 51.1578 6.83892 51.1162C6.98836 50.8204 6.98011 50.5454 6.81417 50.2751C6.71424 50.1068 6.60605 50.0265 6.48045 50.0265C6.45295 50.0265 6.42269 50.0303 6.39244 50.0378C6.24759 50.07 6.12015 50.2051 6.01197 50.4414L6.12473 53.4885C6.12748 53.5641 6.07156 53.6284 5.99822 53.634L4.67436 53.7295C4.67436 53.7295 4.66794 53.7295 4.66519 53.7295L4.66427 53.7285Z" fill="#221F1F"/>
<path d="M12.0377 53.8561C11.9726 53.8561 11.9158 53.8079 11.9039 53.7398L11.8232 53.2635C11.5701 53.5792 11.1677 53.7389 10.6213 53.7389C10.0748 53.7389 9.67236 53.6274 9.35148 53.4062C9.02327 53.1813 8.81515 52.8873 8.73081 52.5339C8.65196 52.2031 8.62171 51.8392 8.63913 51.4545C8.65655 51.0708 8.72531 50.6918 8.84266 50.3298C8.95726 49.9745 9.07369 49.6635 9.18921 49.4046C9.31023 49.1333 9.41383 48.95 9.50734 48.845C9.53301 48.8157 9.56968 48.7997 9.60727 48.7997C9.60819 48.7997 10.9871 48.8422 10.9871 48.8422C11.0366 48.8441 11.0815 48.8734 11.1044 48.9188C11.1273 48.9641 11.1237 49.0189 11.0962 49.0615C10.9568 49.2741 10.8165 49.5482 10.679 49.8752C10.5406 50.206 10.4214 50.5633 10.3233 50.9385C10.2316 51.2901 10.2334 51.5878 10.3279 51.8241C10.382 51.9583 10.4984 52.1369 10.8899 52.1369C11.3959 52.1369 11.6637 51.2523 11.6637 49.5803V49.3885C11.6637 49.3129 11.7214 49.2515 11.7938 49.2486C11.7938 49.2486 13.0389 49.1947 13.0407 49.1947C13.1113 49.1947 13.1709 49.2505 13.1764 49.3242C13.1901 49.5123 13.203 49.9471 13.213 50.6171C13.2231 51.2854 13.246 51.8893 13.28 52.4119C13.313 52.9261 13.3698 53.2985 13.4477 53.5196C13.4624 53.5603 13.4578 53.6047 13.4358 53.6415C13.4138 53.6784 13.3771 53.702 13.335 53.7068L12.0524 53.8561C12.0469 53.8561 12.0423 53.8561 12.0368 53.8561H12.0377Z" fill="#221F1F"/>
<path d="M16.2675 53.8778C15.5369 53.8778 14.9024 53.6037 14.3817 53.0631C13.8609 52.5235 13.5978 51.8638 13.5978 51.1039C13.5978 50.344 13.8619 49.6853 14.3817 49.1447C14.9024 48.604 15.5369 48.33 16.2675 48.33C16.9982 48.33 17.6327 48.604 18.1534 49.1447C18.6741 49.6853 18.9373 50.344 18.9373 51.1039C18.9373 51.8638 18.6732 52.5225 18.1534 53.0631C17.6327 53.6037 16.9982 53.8778 16.2675 53.8778ZM16.2575 49.8696C15.9265 49.8696 15.6515 49.9868 15.4177 50.2278C15.1839 50.4688 15.0702 50.7523 15.0702 51.0935C15.0702 51.4347 15.1839 51.7173 15.4177 51.9592C15.6515 52.2002 15.9265 52.3174 16.2575 52.3174C16.5884 52.3174 16.8635 52.2002 17.0972 51.9592C17.331 51.7182 17.4456 51.4347 17.4456 51.0935C17.4456 50.7523 17.3319 50.4688 17.0972 50.2278C16.8635 49.9868 16.5884 49.8686 16.2575 49.8686V49.8696Z" fill="#221F1F"/>
<path d="M19.3799 53.6114C19.3469 53.6114 19.3139 53.5991 19.2891 53.5755C19.2616 53.55 19.2451 53.5141 19.2433 53.4763L19.0783 49.0096C19.0764 48.9718 19.0902 48.935 19.1158 48.9066C19.1415 48.8783 19.1773 48.8631 19.2139 48.8631H20.5167C20.5891 48.8631 20.6487 48.9217 20.6524 48.9964L20.6625 49.2005C21.1603 48.9614 21.604 48.8405 21.9854 48.8405C22.156 48.8405 22.3173 48.8641 22.4649 48.9123C22.9866 49.0805 23.3707 49.4245 23.6072 49.9349C23.8364 50.4292 23.9446 51.0123 23.9309 51.6673C23.9171 52.3194 23.7879 52.9347 23.5467 53.4961C23.5247 53.5472 23.4761 53.5793 23.4221 53.5793L22.0441 53.5576C22.0001 53.5576 21.9588 53.5339 21.9341 53.4961C21.9093 53.4583 21.9038 53.4101 21.9194 53.3676C22.0193 53.0935 22.1028 52.7816 22.167 52.4414C22.2311 52.1021 22.2696 51.758 22.2834 51.4178C22.2962 51.0955 22.2467 50.8214 22.1376 50.6031C22.0386 50.4056 21.8937 50.3016 21.6939 50.2846C21.6398 50.2789 21.5894 50.2761 21.5426 50.2761C21.2254 50.2761 21.0145 50.4027 20.8981 50.6617C20.8504 50.7779 20.8174 50.9443 20.8018 51.1522C20.7853 51.3696 20.7798 51.57 20.7863 51.7486C20.7927 51.9282 20.8101 52.1937 20.8376 52.5368C20.866 52.8894 20.8825 53.1474 20.8899 53.326V53.3638C20.8899 53.4375 20.8348 53.498 20.7643 53.5037L19.3891 53.6105C19.3891 53.6105 19.3826 53.6105 19.379 53.6105L19.3799 53.6114Z" fill="#221F1F"/>
<path d="M26.0474 55.5794C25.8374 55.5794 25.611 55.5661 25.3753 55.5406C25.3167 55.534 25.2681 55.4896 25.2562 55.4291L24.9976 54.1286C24.9885 54.0823 25.0022 54.035 25.0343 54.002C25.06 53.9755 25.0948 53.9604 25.1306 53.9604C25.1397 53.9604 25.148 53.9604 25.1572 53.9632C25.2901 53.9906 25.4258 54.0095 25.5596 54.0199C25.599 54.0227 25.6421 54.0246 25.6889 54.0246C25.8017 54.0246 25.9401 54.0161 26.0996 53.9991C26.3142 53.9764 26.4975 53.9226 26.6424 53.8403C26.779 53.7628 26.8954 53.623 26.9898 53.4264C27.0604 53.278 27.0962 53.0965 27.0971 52.8839C26.669 53.1353 26.2243 53.2695 25.7714 53.2818C25.7503 53.2818 25.7292 53.2818 25.7081 53.2818C25.2002 53.2818 24.7538 53.1003 24.3815 52.7421C23.9937 52.3697 23.7829 51.831 23.7544 51.143C23.7691 50.2555 24.0753 49.5712 24.6657 49.1015C25.0462 48.7991 25.4872 48.645 25.9759 48.645C26.1931 48.645 26.4223 48.6752 26.6607 48.7357V48.4399C26.6607 48.3671 26.7148 48.3066 26.7854 48.3L28.0056 48.1932C28.0056 48.1932 28.013 48.1932 28.0176 48.1932C28.0836 48.1932 28.1413 48.2433 28.1514 48.3114C28.1725 48.4465 28.2018 48.6459 28.2394 48.9096C28.277 49.1733 28.3036 49.3586 28.3174 49.4663C28.5585 51.0787 28.6703 52.2242 28.6492 52.8697C28.6208 54.1144 28.2183 54.9338 27.4546 55.3053C27.0788 55.4877 26.6057 55.5813 26.0483 55.5813L26.0474 55.5794ZM26.1757 50.1572C25.9309 50.1572 25.7256 50.2347 25.5459 50.3944C25.3772 50.5447 25.3093 50.747 25.3387 51.0135C25.3625 51.2611 25.4386 51.4407 25.5651 51.5513C25.6843 51.6552 25.8154 51.7063 25.9667 51.7063C25.9786 51.7063 25.9914 51.7063 26.0034 51.7053C26.1858 51.6959 26.3664 51.6514 26.5406 51.573C26.69 51.5059 26.8101 51.4265 26.8982 51.3377C26.8936 51.1326 26.8661 50.7621 26.8156 50.2338C26.6176 50.1827 26.4031 50.1572 26.1766 50.1572H26.1757Z" fill="#221F1F"/>
<path d="M1.14916 47.948L1.02539 46.5303L5.19316 46.2638V47.6493L3.8693 47.7561L4.04533 53.6518L2.64904 53.8115L2.51427 47.8412L1.14916 47.948Z" fill="#3FA3DB"/>
<path d="M4.4789 48.5349L5.74041 48.4281L5.77158 49.3127C5.95769 49.0925 6.15572 48.9271 6.36659 48.8165C6.57653 48.706 6.7764 48.6568 6.96617 48.6672C7.15595 48.6776 7.34023 48.7258 7.51992 48.8109C7.6987 48.8959 7.84905 49.0264 7.97007 49.2003C8.09109 49.3742 8.18735 49.566 8.25978 49.7758C8.33221 49.9857 8.36154 50.2238 8.34779 50.4904C8.33404 50.7569 8.2717 51.0215 8.16168 51.2843L6.96251 51.1775C7.13487 50.8363 7.12478 50.5093 6.93134 50.1964C6.78006 49.9403 6.59029 49.8411 6.36292 49.8978C6.16948 49.9403 6.00812 50.1114 5.87702 50.4091L5.9907 53.4902L4.66684 53.5866L4.48073 48.533L4.4789 48.5349Z" fill="#3FA3DB"/>
<path d="M9.42701 53.2898C9.12721 53.0837 8.93927 52.821 8.86317 52.5006C8.78708 52.1811 8.75774 51.8343 8.77516 51.4609C8.79258 51.0876 8.85767 50.7256 8.97136 50.3741C9.08504 50.0225 9.19872 49.7181 9.31241 49.463C9.42609 49.2068 9.52419 49.0329 9.6067 48.9403L10.9819 48.9828C10.837 49.2031 10.694 49.4819 10.5528 49.8193C10.4116 50.1567 10.2906 50.5177 10.1907 50.9014C10.0908 51.2852 10.0944 51.6103 10.2008 51.8768C10.3071 52.1433 10.5373 52.2766 10.8884 52.2766C11.4953 52.2766 11.7988 51.3778 11.7988 49.5792V49.3873L13.0401 49.3344C13.0539 49.5197 13.0658 49.9469 13.0759 50.6188C13.086 51.2908 13.1089 51.891 13.1428 52.4202C13.1776 52.9495 13.2363 53.3313 13.3188 53.5667L12.0362 53.716L11.8914 52.8635C11.7053 53.354 11.2808 53.5988 10.6198 53.5988C10.1238 53.5988 9.72497 53.4958 9.42517 53.2898H9.42701Z" fill="#3FA3DB"/>
<path d="M16.2681 53.7369C15.5713 53.7369 14.9754 53.4789 14.4794 52.9638C13.9834 52.4487 13.7349 51.8287 13.7349 51.1038C13.7349 50.3789 13.9834 49.7589 14.4794 49.2438C14.9754 48.7287 15.5722 48.4707 16.2681 48.4707C16.9639 48.4707 17.5607 48.7287 18.0567 49.2438C18.5527 49.7589 18.8012 50.3789 18.8012 51.1038C18.8012 51.8287 18.5527 52.4487 18.0567 52.9638C17.5607 53.4789 16.9639 53.7369 16.2681 53.7369ZM16.258 49.7287C15.8922 49.7287 15.5805 49.8619 15.3219 50.1285C15.0634 50.395 14.9341 50.7163 14.9341 51.0934C14.9341 51.4705 15.0634 51.7919 15.3219 52.0584C15.5805 52.3249 15.8922 52.4582 16.258 52.4582C16.6238 52.4582 16.9355 52.3249 17.194 52.0584C17.4526 51.7919 17.5818 51.4705 17.5818 51.0934C17.5818 50.7163 17.4526 50.395 17.194 50.1285C16.9355 49.8619 16.6238 49.7287 16.258 49.7287Z" fill="#3FA3DB"/>
<path d="M19.3808 53.4705L19.2158 49.0038H20.5186L20.5396 49.4197C21.3116 49.0142 21.9405 48.8904 22.4273 49.0464C22.9132 49.2032 23.2662 49.5189 23.4872 49.9953C23.7081 50.4716 23.8108 51.0273 23.797 51.6634C23.7833 52.2995 23.6595 52.8911 23.4248 53.4383L22.0496 53.4166C22.1532 53.1321 22.2376 52.8164 22.3027 52.4677C22.3677 52.1199 22.4081 51.7711 22.4218 51.4233C22.4356 51.0755 22.3824 50.7797 22.2614 50.5387C22.1404 50.2968 21.9561 50.1654 21.7077 50.1446C21.2456 50.0945 20.9357 50.2476 20.7771 50.603C20.7221 50.7381 20.6854 50.9177 20.6689 51.1417C20.6515 51.3657 20.646 51.5698 20.6533 51.7551C20.6597 51.9403 20.6772 52.205 20.7047 52.549C20.7322 52.8939 20.7496 53.1548 20.756 53.3325V53.3646L19.3808 53.4714V53.4705Z" fill="#3FA3DB"/>
<path d="M25.1314 54.0999C25.2689 54.1282 25.4092 54.1481 25.5504 54.1585C25.6916 54.1689 25.8795 54.1622 26.1142 54.1367C26.3489 54.1122 26.5469 54.0526 26.7092 53.9609C26.8715 53.8683 27.0053 53.7105 27.1126 53.4865C27.219 53.2625 27.2556 52.9799 27.2208 52.6387C26.7523 52.9591 26.2673 53.1254 25.7677 53.1396C25.268 53.1538 24.8371 52.9865 24.475 52.6387C24.1128 52.2909 23.9185 51.79 23.891 51.136C23.9047 50.2976 24.1908 49.6559 24.7491 49.2117C25.3074 48.7675 25.9904 48.6701 26.7963 48.9187V48.4386L28.0166 48.3318C28.0377 48.4669 28.0661 48.6664 28.1046 48.9291C28.1422 49.1918 28.1678 49.3771 28.1825 49.4839C28.4236 51.0972 28.5346 52.2238 28.5135 52.8636C28.486 54.0573 28.1138 54.8286 27.3968 55.1773C26.9008 55.4193 26.2316 55.493 25.3909 55.4013L25.1323 54.1008L25.1314 54.0999ZM25.478 51.6586C25.6329 51.7938 25.8108 51.8561 26.0106 51.8448C26.2105 51.8344 26.4048 51.7862 26.5946 51.7011C26.7844 51.6161 26.9311 51.5131 27.0338 51.3921C27.0338 51.1861 27.0026 50.7626 26.9403 50.1237C26.7056 50.0529 26.4507 50.0169 26.1747 50.0169C25.8988 50.0169 25.6595 50.1077 25.456 50.2891C25.2524 50.4706 25.1681 50.7173 25.2029 51.0301C25.2304 51.3146 25.3221 51.5244 25.477 51.6586H25.478Z" fill="#3FA3DB"/>
<path d="M32.2206 54.2199C31.7384 54.2199 31.1957 54.1263 30.6062 53.943C30.5658 53.9307 30.5401 53.8919 30.542 53.8484L30.894 46.7166C30.8959 46.6721 30.9289 46.6353 30.972 46.6287C31.2452 46.5871 31.5138 46.5663 31.7687 46.5663C32.0932 46.5663 32.4067 46.6003 32.701 46.6665C33.2282 46.7865 33.6756 46.9869 34.0295 47.2647C34.3815 47.5407 34.6804 47.8791 34.9197 48.2703C35.159 48.6616 35.3249 49.085 35.4129 49.5273C35.5 49.9668 35.5266 50.4205 35.4918 50.8751C35.4423 51.4261 35.3038 51.9374 35.0792 52.3967C34.8537 52.858 34.5337 53.2596 34.1285 53.5904C33.7205 53.9231 33.2163 54.1273 32.6295 54.1963C32.4984 54.2114 32.3618 54.2199 32.2216 54.2199H32.2206ZM32.062 52.617C32.1876 52.6425 32.3086 52.6548 32.4223 52.6548C32.7955 52.6548 33.1026 52.5234 33.3602 52.2531C33.7159 51.8798 33.9222 51.3798 33.9754 50.7645C34.0286 50.1067 33.8993 49.5103 33.5903 48.9934C33.2997 48.5066 32.8908 48.2609 32.3407 48.2448L32.062 52.617Z" fill="#E669A0"/>
<path d="M39.1128 54.2765C39.0697 54.2765 39.0312 54.2444 39.0239 54.199L38.9249 53.6159C38.6865 53.9759 38.2739 54.1583 37.6964 54.1583C37.1839 54.1583 36.7649 54.0487 36.4513 53.8332C36.1332 53.6149 35.9306 53.3304 35.8499 52.9883C35.772 52.6613 35.7417 52.3021 35.7592 51.9222C35.7766 51.5432 35.8444 51.1689 35.9599 50.8098C36.0736 50.4573 36.19 50.1473 36.3046 49.8892C36.4229 49.6218 36.5247 49.4431 36.6154 49.342C36.6329 49.3231 36.6567 49.3118 36.6824 49.3118L38.0603 49.3543C38.0933 49.3552 38.1236 49.3751 38.1382 49.4053C38.1529 49.4356 38.1511 49.4724 38.1327 49.4998C37.9916 49.7144 37.8504 49.9913 37.7119 50.3212C37.5726 50.6529 37.4525 51.013 37.3544 51.3901C37.26 51.7521 37.2627 52.0602 37.3608 52.3059C37.4534 52.5365 37.6505 52.648 37.965 52.648C38.5086 52.648 38.7846 51.7719 38.7846 50.0442V49.8524C38.7846 49.8023 38.8231 49.7607 38.8717 49.7588C38.8717 49.7588 40.1149 49.7049 40.1167 49.7049C40.1635 49.7049 40.2038 49.7427 40.2075 49.7909C40.2212 49.9771 40.2341 50.4119 40.2441 51.081C40.2542 51.7483 40.2771 52.3532 40.3111 52.8777C40.345 53.3956 40.4018 53.7727 40.4816 53.9977C40.4908 54.0251 40.488 54.0544 40.4733 54.079C40.4587 54.1035 40.4339 54.1196 40.4064 54.1224L39.1238 54.2718C39.1238 54.2718 39.1165 54.2718 39.1137 54.2718L39.1128 54.2765Z" fill="#E669A0"/>
<path d="M40.9742 54.0319C40.9522 54.0319 40.9302 54.0234 40.9137 54.0082C40.8954 53.9912 40.8844 53.9676 40.8835 53.9421L40.7184 49.4754C40.7184 49.4499 40.7267 49.4254 40.7441 49.4074C40.7615 49.3894 40.7844 49.379 40.8092 49.379H42.112C42.1606 49.379 42.2 49.4178 42.2027 49.4679L42.2165 49.742C42.7326 49.4868 43.191 49.3573 43.5807 49.3573C43.7466 49.3573 43.9034 49.3809 44.0464 49.4272C44.5552 49.5907 44.9302 49.9272 45.1612 50.4253C45.3868 50.913 45.494 51.4886 45.4803 52.136C45.4665 52.7815 45.3382 53.3911 45.1007 53.9468C45.0861 53.9808 45.054 54.0026 45.0173 54.0026L43.6403 53.9808C43.6109 53.9808 43.5834 53.9648 43.5669 53.9402C43.5504 53.9147 43.5468 53.8835 43.5568 53.8542C43.6577 53.5773 43.7411 53.2635 43.8062 52.9204C43.8704 52.5792 43.9098 52.2324 43.9236 51.8893C43.9364 51.5594 43.886 51.2768 43.7732 51.051C43.6669 50.8383 43.5101 50.7258 43.2928 50.7069C43.2378 50.7013 43.1865 50.6984 43.1369 50.6984C42.7996 50.6984 42.5759 50.8336 42.4512 51.1114C42.4008 51.2334 42.3668 51.4054 42.3503 51.618C42.3338 51.8373 42.3283 52.0396 42.3347 52.2201C42.3412 52.4025 42.3586 52.6605 42.3861 53.0102C42.4145 53.3637 42.431 53.6207 42.4383 53.7975V53.8334C42.4383 53.8825 42.4017 53.9232 42.3549 53.927C42.3549 53.927 40.9751 54.0338 40.9724 54.0338L40.9742 54.0319Z" fill="#E669A0"/>
<path d="M47.6404 55.9998C47.4323 55.9998 47.2077 55.9865 46.973 55.961C46.9336 55.9563 46.9015 55.927 46.8932 55.8864L46.6347 54.5859C46.6283 54.5556 46.6375 54.5235 46.6595 54.5008C46.6769 54.4829 46.6998 54.4734 46.7236 54.4734C46.7291 54.4734 46.7356 54.4734 46.7411 54.4753C46.8758 54.5027 47.0133 54.5225 47.149 54.532C47.1894 54.5348 47.2334 54.5367 47.281 54.5367C47.3956 54.5367 47.535 54.5282 47.6964 54.5112C47.9173 54.4876 48.1062 54.4318 48.2565 54.3468C48.4014 54.2645 48.5242 54.118 48.6223 53.9129C48.7048 53.74 48.7424 53.5236 48.7333 53.2693C48.2914 53.5434 47.8311 53.688 47.3626 53.7012C47.3425 53.7012 47.3214 53.7012 47.3012 53.7012C46.8052 53.7012 46.3688 53.5236 46.0058 53.1739C45.6271 52.81 45.4209 52.2826 45.3924 51.6068C45.4062 50.7364 45.7069 50.0644 46.2863 49.6041C46.6585 49.3083 47.0904 49.158 47.5689 49.158C47.799 49.158 48.0438 49.193 48.2987 49.262V48.9057C48.2987 48.8575 48.3344 48.8168 48.3821 48.8121L49.6024 48.7053C49.6024 48.7053 49.6079 48.7053 49.6097 48.7053C49.6537 48.7053 49.6922 48.7384 49.6996 48.7838C49.7207 48.9189 49.75 49.1183 49.7876 49.382C49.8252 49.6457 49.8518 49.831 49.8655 49.9378C50.1066 51.5482 50.2176 52.6918 50.1974 53.3326C50.169 54.5585 49.7757 55.3647 49.0285 55.7276C48.659 55.9072 48.1923 55.9988 47.6414 55.9988L47.6404 55.9998ZM47.7688 50.5776C47.513 50.5776 47.2976 50.6589 47.1096 50.8271C46.929 50.9887 46.8557 51.2042 46.8868 51.4868C46.9116 51.7458 46.9932 51.9367 47.1289 52.0548C47.2572 52.1664 47.3975 52.2202 47.5588 52.2202C47.5717 52.2202 47.5845 52.2202 47.5973 52.2193C47.7853 52.2089 47.9714 52.1635 48.1502 52.0832C48.3134 52.0104 48.4417 51.9225 48.5352 51.8233C48.5325 51.6172 48.5031 51.2279 48.4491 50.6636C48.2391 50.6069 48.0099 50.5776 47.7679 50.5776H47.7688Z" fill="#E669A0"/>
<path d="M31.7665 53.7985C31.2797 53.7985 30.7323 53.7049 30.1392 53.5197C30.0796 53.5008 30.0392 53.4422 30.0429 53.3779L30.3949 46.246C30.3986 46.1789 30.4472 46.1241 30.5114 46.1146C30.7873 46.073 31.0578 46.0522 31.3145 46.0522C31.6418 46.0522 31.959 46.0863 32.256 46.1543C32.7896 46.2753 33.2425 46.4794 33.6019 46.7611C33.9576 47.0399 34.2611 47.383 34.5031 47.779C34.7452 48.175 34.9129 48.6031 35.0019 49.0511C35.0899 49.4953 35.1174 49.9537 35.0816 50.4121C35.0321 50.9697 34.8909 51.4867 34.6645 51.9517C34.4362 52.4195 34.1117 52.8259 33.7018 53.1605C33.2874 53.4989 32.775 53.7058 32.18 53.7758C32.047 53.7918 31.9086 53.7994 31.7665 53.7994V53.7985ZM31.6565 52.1095C31.7646 52.1294 31.8701 52.1388 31.9691 52.1388C32.3294 52.1388 32.6255 52.0122 32.874 51.7504C33.2214 51.3856 33.425 50.8941 33.4763 50.2902C33.5286 49.6428 33.4011 49.0558 33.0977 48.5483C32.8235 48.089 32.4403 47.8508 31.9287 47.8234L31.6555 52.1086L31.6565 52.1095Z" fill="#221F1F"/>
<path d="M38.6585 53.8562C38.5934 53.8562 38.5366 53.808 38.5246 53.74L38.444 53.2636C38.1909 53.5793 37.7885 53.739 37.242 53.739C36.6956 53.739 36.2932 53.6275 35.9723 53.4063C35.6441 53.1814 35.436 52.8875 35.3516 52.534C35.2728 52.2022 35.2425 51.8393 35.2599 51.4546C35.2773 51.0709 35.3461 50.6929 35.4635 50.33C35.5781 49.9755 35.6945 49.6646 35.81 49.4047C35.931 49.1334 36.0346 48.9501 36.1281 48.8452C36.1538 48.8159 36.1905 48.7998 36.2281 48.7998C36.229 48.7998 37.6078 48.8423 37.6078 48.8423C37.6574 48.8442 37.7023 48.8735 37.7252 48.9189C37.7481 48.9643 37.7445 49.0191 37.7169 49.0616C37.5776 49.2743 37.4373 49.5474 37.2998 49.8753C37.1614 50.2052 37.0422 50.5634 36.9441 50.9386C36.8524 51.2902 36.8542 51.5879 36.9487 51.8242C37.0028 51.9584 37.1192 52.137 37.5107 52.137C38.0167 52.137 38.2844 51.2524 38.2844 49.5805V49.3886C38.2844 49.313 38.3422 49.2516 38.4146 49.2487C38.4146 49.2487 39.6596 49.1949 39.6615 49.1949C39.7321 49.1949 39.7917 49.2506 39.7972 49.3243C39.8109 49.5115 39.8238 49.9472 39.8338 50.6173C39.8439 51.2836 39.8668 51.8875 39.9008 52.4121C39.9338 52.9253 39.9906 53.2986 40.0685 53.5197C40.0832 53.5604 40.0786 53.6048 40.0566 53.6417C40.0346 53.6785 39.9979 53.7021 39.9558 53.7069L38.6732 53.8562C38.6677 53.8562 38.6631 53.8562 38.6576 53.8562H38.6585Z" fill="#221F1F"/>
<path d="M40.5204 53.6112C40.4874 53.6112 40.4544 53.5989 40.4296 53.5753C40.4021 53.5497 40.3856 53.5138 40.3838 53.476L40.2188 49.0094C40.2169 48.9716 40.2307 48.9347 40.2564 48.9064C40.282 48.879 40.3178 48.8629 40.3545 48.8629H41.6572C41.7297 48.8629 41.7893 48.9215 41.7929 48.9962L41.803 49.2003C42.3008 48.9612 42.7446 48.8402 43.126 48.8402C43.2965 48.8402 43.4578 48.8638 43.6054 48.912C44.1271 49.0803 44.5112 49.4243 44.7478 49.9347C44.977 50.429 45.0852 51.0112 45.0714 51.6671C45.0567 52.3192 44.9284 52.9345 44.6873 53.4959C44.6653 53.5469 44.6167 53.579 44.5626 53.579L43.1846 53.5573C43.1406 53.5573 43.0994 53.5337 43.0746 53.4959C43.0499 53.4581 43.0444 53.4099 43.0599 53.3673C43.1599 53.0933 43.2433 52.7814 43.3075 52.4411C43.3717 52.1018 43.4102 51.7578 43.4239 51.4176C43.4367 51.0953 43.3882 50.8212 43.2791 50.6029C43.18 50.4053 43.0352 50.3014 42.8353 50.2844C42.7812 50.2787 42.7308 50.2759 42.6841 50.2759C42.3668 50.2759 42.156 50.4025 42.0395 50.6615C41.9919 50.7777 41.9589 50.944 41.9433 51.152C41.9268 51.3694 41.9213 51.5707 41.9277 51.7483C41.9341 51.9298 41.9515 52.1878 41.979 52.5366C42.0075 52.8901 42.024 53.1481 42.0313 53.3258V53.3636C42.0313 53.4373 41.9763 53.4978 41.9057 53.5034L40.5305 53.6102C40.5305 53.6102 40.5241 53.6102 40.5204 53.6102V53.6112Z" fill="#221F1F"/>
<path d="M47.1865 55.5791C46.9765 55.5791 46.7501 55.5659 46.5145 55.5404C46.4558 55.5338 46.4072 55.4893 46.3953 55.4288L46.1367 54.1284C46.1276 54.082 46.1413 54.0348 46.1734 54.0017C46.1991 53.9752 46.2339 53.9601 46.2697 53.9601C46.2788 53.9601 46.2871 53.9601 46.2963 53.963C46.4292 53.9904 46.5649 54.0093 46.6987 54.0197C46.7382 54.0225 46.7812 54.0244 46.828 54.0244C46.9408 54.0244 47.0792 54.0159 47.2387 53.9989C47.4533 53.9762 47.6366 53.9223 47.7815 53.8401C47.9181 53.7626 48.0345 53.6227 48.128 53.4261C48.1986 53.2777 48.2344 53.0963 48.2353 52.8836C47.8071 53.135 47.3625 53.2692 46.9096 53.2815C46.8885 53.2815 46.8674 53.2815 46.8463 53.2815C46.3384 53.2815 45.892 53.1001 45.5197 52.7419C45.1319 52.3695 44.9211 51.8308 44.8926 51.1427C44.9073 50.2552 45.2135 49.571 45.8039 49.1013C46.1844 48.7988 46.6254 48.6448 47.114 48.6448C47.3313 48.6448 47.5605 48.675 47.7989 48.7355V48.4397C47.7989 48.3669 47.853 48.3064 47.9236 48.2998L49.1438 48.193C49.1438 48.193 49.1512 48.193 49.1558 48.193C49.2218 48.193 49.2795 48.2431 49.2896 48.3111C49.3107 48.4463 49.34 48.6457 49.3776 48.9094C49.4152 49.1731 49.4418 49.3583 49.4555 49.4661C49.6967 51.0784 49.8085 52.2249 49.7874 52.8695C49.7581 54.1142 49.3565 54.9336 48.5928 55.305C48.217 55.4874 47.7439 55.581 47.1865 55.581V55.5791ZM47.3148 50.157C47.07 50.157 46.8647 50.2345 46.685 50.3942C46.5163 50.5445 46.4484 50.7467 46.4778 51.0132C46.5016 51.2609 46.5777 51.4404 46.7042 51.551C46.8234 51.655 46.9545 51.706 47.1058 51.706C47.1177 51.706 47.1305 51.706 47.1425 51.7051C47.3249 51.6956 47.5055 51.6512 47.6797 51.5727C47.8291 51.5056 47.9493 51.4263 48.0373 51.3374C48.0327 51.1323 48.0052 50.7618 47.9547 50.2335C47.7567 50.1825 47.5422 50.157 47.3157 50.157H47.3148Z" fill="#221F1F"/>
<path d="M30.531 46.2536C31.1443 46.161 31.71 46.1733 32.2271 46.2905C32.7441 46.4076 33.175 46.6014 33.5197 46.8717C33.8645 47.142 34.1542 47.469 34.3889 47.8527C34.6236 48.2365 34.7831 48.6457 34.8693 49.0786C34.9555 49.5124 34.9811 49.9528 34.9472 50.4008C34.8986 50.9414 34.7648 51.4366 34.5438 51.8884C34.3229 52.3402 34.0148 52.7267 33.6178 53.0509C33.2209 53.3741 32.7368 53.5698 32.1647 53.6369C31.5926 53.7049 30.9307 53.6208 30.1789 53.3864L30.531 46.2545V46.2536ZM31.5138 52.2239C32.1134 52.3666 32.5993 52.2419 32.9715 51.8506C33.3437 51.4603 33.5573 50.9442 33.6123 50.3044C33.6673 49.622 33.5344 49.0124 33.2144 48.4765C32.8936 47.9397 32.4233 47.6751 31.8026 47.6826L31.5129 52.2239H31.5138Z" fill="#E669A0"/>
<path d="M36.048 53.2898C35.7482 53.0837 35.5603 52.821 35.4842 52.5006C35.4081 52.1811 35.3787 51.8343 35.3962 51.4609C35.4136 51.0876 35.4787 50.7256 35.5924 50.3741C35.706 50.0225 35.8197 49.7181 35.9334 49.463C36.0471 49.2068 36.1452 49.0329 36.2286 48.9403L37.6038 48.9828C37.459 49.2031 37.3159 49.4819 37.1747 49.8193C37.0336 50.1567 36.9125 50.5177 36.8126 50.9014C36.7127 51.2852 36.7163 51.6103 36.8227 51.8768C36.93 52.1433 37.1592 52.2766 37.5103 52.2766C38.1172 52.2766 38.4207 51.3778 38.4207 49.5792V49.3873L39.662 49.3344C39.6758 49.5197 39.6877 49.9469 39.6978 50.6188C39.7079 51.2908 39.7308 51.891 39.7647 52.4202C39.7986 52.9495 39.8582 53.3313 39.9407 53.5667L38.6581 53.716L38.5133 52.8635C38.3272 53.354 37.9036 53.5988 37.2417 53.5988C36.7457 53.5988 36.3469 53.4958 36.0471 53.2898H36.048Z" fill="#E669A0"/>
<path d="M40.5204 53.4702L40.3553 49.0036H41.6581L41.6792 49.4194C42.4512 49.014 43.0801 48.8902 43.5669 49.0461C44.0528 49.203 44.4067 49.5187 44.6267 49.995C44.8467 50.4714 44.9503 51.0271 44.9366 51.6632C44.9228 52.2992 44.7982 52.8909 44.5644 53.4381L43.1892 53.4164C43.2928 53.1319 43.3771 52.8162 43.4422 52.4675C43.5073 52.1196 43.5476 51.7709 43.5614 51.4231C43.5751 51.0753 43.522 50.7795 43.401 50.5385C43.2799 50.2965 43.0957 50.1651 42.8481 50.1443C42.3861 50.0943 42.0762 50.2474 41.9176 50.6027C41.8626 50.7379 41.8259 50.9175 41.8094 51.1414C41.792 51.3654 41.7865 51.5696 41.7938 51.7548C41.8002 51.9401 41.8176 52.2047 41.8451 52.5487C41.8727 52.8937 41.8901 53.1546 41.8965 53.3322V53.3644L40.5213 53.4712L40.5204 53.4702Z" fill="#E669A0"/>
<path d="M46.2704 54.0999C46.4079 54.1282 46.5482 54.1481 46.6893 54.1585C46.8305 54.1689 47.0185 54.1622 47.2532 54.1367C47.4879 54.1122 47.6859 54.0526 47.8482 53.9609C48.0104 53.8683 48.1443 53.7105 48.2516 53.4865C48.3588 53.2625 48.3946 52.9799 48.3598 52.6387C47.8913 52.9591 47.4063 53.1254 46.9066 53.1396C46.407 53.1538 45.9761 52.9865 45.6139 52.6387C45.2518 52.2909 45.0574 51.79 45.0299 51.136C45.0437 50.2976 45.3297 49.6559 45.8881 49.2117C46.4464 48.7675 47.1294 48.6701 47.9353 48.9187V48.4386L49.1555 48.3318C49.1766 48.4669 49.206 48.6664 49.2435 48.9291C49.2811 49.1918 49.3068 49.3771 49.3215 49.4839C49.5626 51.0972 49.6726 52.2238 49.6524 52.8636C49.6249 54.0573 49.2527 54.8286 48.5358 55.1773C48.0398 55.4193 47.3705 55.493 46.5298 55.4013L46.2713 54.1008L46.2704 54.0999ZM46.6169 51.6586C46.7719 51.7938 46.9497 51.8561 47.1496 51.8448C47.3494 51.8344 47.5438 51.7862 47.7336 51.7011C47.9234 51.6161 48.07 51.5131 48.1727 51.3921C48.1727 51.1861 48.1416 50.7626 48.0792 50.1237C47.8445 50.0529 47.5896 50.0169 47.3137 50.0169C47.0377 50.0169 46.7984 50.1077 46.5949 50.2891C46.3914 50.4706 46.307 50.7173 46.3419 51.0301C46.3694 51.3146 46.4611 51.5244 46.616 51.6586H46.6169Z" fill="#E669A0"/>
<path d="M52.1227 54.3626C52.0768 54.3626 52.0383 54.3277 52.0328 54.2804L51.1848 46.8499C51.182 46.8253 51.1884 46.7998 51.204 46.7799C51.2196 46.7601 51.2416 46.7478 51.2655 46.7459L52.527 46.6183C52.527 46.6183 52.5334 46.6183 52.5361 46.6183C52.5801 46.6183 52.6187 46.6514 52.626 46.6977L52.7002 47.2137C52.9111 46.9897 53.1577 46.8253 53.4364 46.7251C53.651 46.6476 53.8673 46.6079 54.0791 46.6079C54.201 46.6079 54.3248 46.6211 54.4468 46.6467C54.7731 46.7166 55.0821 46.8442 55.3654 47.0266C55.6551 47.2128 55.8815 47.4812 56.0401 47.8224C56.1978 48.1636 56.2602 48.535 56.2244 48.9272C56.2107 49.466 56.0429 49.9404 55.7284 50.3326C55.4121 50.7249 55.0188 50.9678 54.5577 51.0528C54.444 51.0736 54.3257 51.085 54.2066 51.085C53.8903 51.085 53.552 51.0093 53.1999 50.86L53.5254 54.1122C53.5309 54.1632 53.4951 54.2095 53.4447 54.2143L52.1309 54.3636C52.1309 54.3636 52.1245 54.3636 52.1208 54.3636L52.1227 54.3626ZM53.0349 49.4159C53.2952 49.5756 53.5501 49.6569 53.7912 49.6569C53.8096 49.6569 53.827 49.6569 53.8453 49.6559C54.1167 49.6427 54.3386 49.5557 54.5247 49.3904C54.7044 49.2306 54.7887 49.0558 54.7823 48.8564C54.7759 48.6626 54.6925 48.4982 54.5256 48.3545C54.3532 48.2061 54.1607 48.1144 53.9544 48.0823C53.9086 48.0747 53.8618 48.071 53.816 48.071C53.6592 48.071 53.5006 48.1144 53.3438 48.2004C53.1495 48.3072 53.023 48.4811 52.9588 48.7316L53.0349 49.4149V49.4159Z" fill="#F6B519"/>
<path d="M58.4193 54.2588C58.2066 54.2588 57.9893 54.2333 57.7748 54.1841C57.4099 54.1 57.0808 53.9554 56.7966 53.7541C56.5105 53.5518 56.2694 53.274 56.0815 52.929C55.8926 52.584 55.7862 52.1899 55.7652 51.758C55.7019 50.6796 56.0365 49.8356 56.7617 49.2487C57.2522 48.8461 57.8105 48.641 58.4211 48.641C58.5082 48.641 58.5972 48.6448 58.687 48.6533C59.403 48.727 59.9439 49.0464 60.296 49.6012C60.6462 50.1541 60.7269 50.8639 60.5362 51.7098C60.527 51.7486 60.4949 51.7779 60.4564 51.7816L57.3421 52.0916C57.4117 52.3676 57.5575 52.5651 57.7867 52.6937C57.9435 52.7816 58.1158 52.826 58.2992 52.826C58.4184 52.826 58.5449 52.8071 58.676 52.7712C59.0152 52.6767 59.3242 52.4716 59.5937 52.1597C59.6111 52.1389 59.6359 52.1285 59.6616 52.1285C59.6771 52.1285 59.6927 52.1323 59.7074 52.1417L60.7828 52.792C60.8048 52.8052 60.8204 52.8269 60.8259 52.8525C60.8314 52.878 60.8259 52.9044 60.8121 52.9262C60.5719 53.2834 60.274 53.5774 59.9274 53.7995C59.5809 54.0216 59.2233 54.1643 58.8649 54.2229C58.7182 54.2465 58.5687 54.2588 58.4202 54.2588H58.4193ZM58.511 50.1296C58.1846 50.1296 57.8976 50.2014 57.6583 50.3413C57.4548 50.4604 57.3347 50.6522 57.2925 50.9263L59.1931 50.7817C59.1564 50.363 58.9373 50.1551 58.511 50.1305V50.1296Z" fill="#F6B519"/>
<path d="M63.3351 54.1968C63.039 54.1968 62.7731 54.1325 62.5457 54.0049C62.2835 53.8584 62.08 53.6562 61.9416 53.4038C61.8077 53.1609 61.6986 52.8859 61.6179 52.5891C61.5372 52.2914 61.4887 51.9871 61.4749 51.6837C61.4611 51.3851 61.4575 51.1081 61.4648 50.8605C61.4712 50.6176 61.4804 50.4135 61.4905 50.2547C61.4942 50.1952 61.4969 50.1517 61.4978 50.1214L60.8102 50.1309C60.7625 50.1309 60.7231 50.0931 60.7195 50.0439L60.637 48.8606C60.6351 48.8351 60.6443 48.8096 60.6608 48.7898C60.6773 48.7699 60.702 48.7595 60.7268 48.7595H61.4621L61.4428 47.287C61.4428 47.2624 61.452 47.2379 61.4694 47.2199C61.4868 47.202 61.5097 47.1925 61.5336 47.1925H62.8574C62.9069 47.1925 62.9482 47.2341 62.9482 47.2851L62.9583 48.6745H63.8402C63.8898 48.6745 63.9301 48.7151 63.931 48.7661L63.9521 50.0241C63.9521 50.0496 63.9429 50.0732 63.9264 50.0912C63.909 50.1092 63.8861 50.1195 63.8613 50.1195H62.9583C62.9565 50.2093 62.9537 50.3435 62.9491 50.5297C62.9418 50.7849 62.9409 51.0221 62.9436 51.2348C62.9473 51.4474 62.961 51.6743 62.9849 51.9087C63.0078 52.1327 63.0555 52.3122 63.1288 52.4417C63.2122 52.591 63.3039 52.6081 63.3653 52.6081C63.4919 52.6081 63.5753 52.5438 63.6276 52.4067C63.6871 52.247 63.7064 52.041 63.6835 51.7934C63.6596 51.5344 63.6303 51.3095 63.5964 51.1252C63.5625 50.9399 63.5249 50.7764 63.4845 50.6394C63.4763 50.612 63.4809 50.5817 63.4974 50.5581C63.5139 50.5345 63.5395 50.5203 63.568 50.5193C63.568 50.5193 64.9047 50.4664 64.9056 50.4664C64.9468 50.4664 64.9826 50.4948 64.9936 50.5363C65.0843 50.8974 65.1339 51.2773 65.1412 51.6667C65.1485 52.057 65.1073 52.4417 65.0193 52.8103C64.9294 53.1893 64.7497 53.5097 64.4866 53.763C64.2198 54.0191 63.8797 54.1637 63.4744 54.193C63.4268 54.1959 63.3809 54.1977 63.3351 54.1977V54.1968Z" fill="#F6B519"/>
<path d="M51.6686 53.9411C51.6008 53.9411 51.5421 53.8882 51.5338 53.8173L50.6858 46.3867C50.6812 46.3489 50.6922 46.3121 50.7151 46.2828C50.7381 46.2535 50.7711 46.2346 50.8077 46.2308L52.0693 46.1032C52.0693 46.1032 52.0784 46.1032 52.083 46.1032C52.1499 46.1032 52.2077 46.1533 52.2178 46.2232L52.2792 46.6476C52.4809 46.452 52.711 46.3055 52.9686 46.2128C53.1878 46.1334 53.4087 46.0938 53.6269 46.0938C53.7525 46.0938 53.879 46.107 54.0037 46.1334C54.3356 46.2043 54.6491 46.3338 54.9379 46.52C55.235 46.7109 55.4678 46.9859 55.6301 47.3356C55.7915 47.6844 55.8556 48.0643 55.819 48.4651C55.8052 49.0113 55.6347 49.4962 55.3129 49.896C54.9902 50.2967 54.5868 50.5453 54.1156 50.6322C53.9991 50.654 53.8781 50.6644 53.7562 50.6644C53.4545 50.6644 53.1346 50.5973 52.8027 50.4649L53.1199 53.6405C53.1272 53.7171 53.0741 53.7861 52.9998 53.7946L51.686 53.9439C51.6805 53.9439 51.6759 53.9439 51.6704 53.9439L51.6686 53.9411ZM52.6239 48.9187C52.8705 49.0671 53.1107 49.1418 53.3381 49.1418C53.3555 49.1418 53.3729 49.1418 53.3894 49.1408C53.6498 49.1276 53.8634 49.0454 54.0413 48.8866C54.21 48.7373 54.2888 48.5747 54.2833 48.3895C54.2778 48.2099 54.199 48.0568 54.0431 47.9226C53.8772 47.7798 53.6929 47.692 53.494 47.6608C53.45 47.6541 53.406 47.6504 53.3619 47.6504C53.2125 47.6504 53.0612 47.692 52.9109 47.7742C52.7303 47.8734 52.612 48.035 52.5506 48.2675L52.623 48.9187H52.6239Z" fill="#221F1F"/>
<path d="M57.965 53.8384C57.7487 53.8384 57.5286 53.8128 57.3104 53.7627C56.9401 53.6777 56.6054 53.5302 56.3166 53.3261C56.0251 53.1191 55.7794 52.8365 55.5878 52.4849C55.3952 52.1334 55.2871 51.7326 55.2651 51.2931C55.2009 50.1987 55.5419 49.3415 56.279 48.7451C56.7769 48.3359 57.3453 48.1279 57.9669 48.1279C58.0549 48.1279 58.1456 48.1317 58.2364 48.1402C58.9671 48.2158 59.519 48.5419 59.8793 49.109C60.2369 49.6732 60.3194 50.3943 60.125 51.2534C60.1122 51.312 60.0636 51.3555 60.0058 51.3612L56.9456 51.6655C57.0161 51.9009 57.1509 52.0719 57.3535 52.1853C57.503 52.2694 57.6689 52.312 57.8449 52.312C57.9595 52.312 58.0824 52.294 58.2098 52.2591C58.5408 52.1674 58.8415 51.9661 59.1055 51.6617C59.1321 51.6305 59.1697 51.6145 59.2073 51.6145C59.2311 51.6145 59.255 51.6211 59.2761 51.6334L60.3515 52.2836C60.3845 52.3035 60.4074 52.3366 60.4156 52.3744C60.4239 52.4122 60.4156 52.4528 60.3946 52.4849C60.1507 52.8479 59.8481 53.1456 59.4961 53.3715C59.145 53.5974 58.781 53.742 58.4161 53.8015C58.2667 53.8261 58.1145 53.8384 57.9641 53.8384H57.965ZM58.0558 49.7091C57.7377 49.7091 57.459 49.7791 57.227 49.9152C57.051 50.0182 56.9419 50.1798 56.8942 50.4076L58.6893 50.2705C58.6425 49.9114 58.4381 49.7318 58.0558 49.7091Z" fill="#221F1F"/>
<path d="M62.8815 53.7748C62.5771 53.7748 62.3048 53.7087 62.0701 53.5782C61.7996 53.427 61.5906 53.2191 61.4476 52.9592C61.3119 52.7125 61.201 52.4346 61.1194 52.1341C61.0378 51.8335 60.9892 51.5254 60.9754 51.2183C60.9617 50.9186 60.958 50.6408 60.9653 50.3922C60.9718 50.1484 60.9809 49.9442 60.991 49.7845C60.9929 49.7524 60.9947 49.725 60.9956 49.7013C60.9956 49.7013 60.3566 49.7098 60.3557 49.7098C60.2842 49.7098 60.2255 49.6531 60.22 49.5794L60.1375 48.3961C60.1347 48.3574 60.1476 48.3186 60.1732 48.2903C60.1989 48.2619 60.2347 48.2458 60.2732 48.2458H60.9626L60.9433 46.8206C60.9433 46.7828 60.9571 46.7469 60.9828 46.7204C61.0084 46.694 61.0433 46.6788 61.0799 46.6788H62.4038C62.479 46.6788 62.5395 46.7412 62.5395 46.8178L62.5487 48.1608H63.3857C63.46 48.1608 63.5205 48.2222 63.5214 48.2988L63.5425 49.5567C63.5425 49.5945 63.5287 49.6304 63.503 49.6579C63.4774 49.6843 63.4425 49.6994 63.4059 49.6994H62.5477C62.5459 49.7873 62.5432 49.9074 62.5395 50.0643C62.5331 50.3185 62.5312 50.5557 62.5349 50.7674C62.5386 50.9791 62.5514 51.205 62.5752 51.4375C62.5973 51.6549 62.6431 51.8279 62.7128 51.9526C62.7834 52.0793 62.8558 52.0953 62.9099 52.0953C62.986 52.0953 63.0722 52.0745 63.129 51.9233C63.1868 51.7702 63.2042 51.5717 63.1822 51.3317C63.1583 51.0737 63.129 50.8506 63.096 50.6672C63.0621 50.4839 63.0254 50.3213 62.986 50.1862C62.9741 50.1446 62.9814 50.0992 63.0052 50.0643C63.03 50.0293 63.0685 50.0076 63.1107 50.0057C63.1107 50.0057 64.4483 49.9527 64.4501 49.9527C64.5115 49.9527 64.5665 49.9962 64.5821 50.0576C64.6738 50.4225 64.7242 50.8062 64.7316 51.1993C64.7389 51.5935 64.6967 51.9829 64.6087 52.3543C64.5161 52.7418 64.3328 53.0707 64.0623 53.3297C63.7882 53.5924 63.438 53.7417 63.0226 53.772C62.9731 53.7748 62.9264 53.7767 62.8805 53.7767L62.8815 53.7748Z" fill="#221F1F"/>
<path d="M51.668 53.8014L50.8199 46.3708L52.0814 46.2432L52.185 46.9578C52.4124 46.6667 52.6884 46.4616 53.012 46.3444C53.3356 46.2272 53.6565 46.2026 53.9737 46.2697C54.2909 46.3378 54.5871 46.4597 54.863 46.6374C55.139 46.815 55.3526 47.0674 55.5039 47.3944C55.6551 47.7214 55.7138 48.073 55.6799 48.4501C55.6661 48.9765 55.5075 49.4274 55.2041 49.8045C54.9006 50.1816 54.5284 50.4103 54.0874 50.4925C53.6464 50.5738 53.1633 50.4906 52.6398 50.242L52.9808 53.6539L51.668 53.8033V53.8014ZM52.4949 49.0039C52.8048 49.2034 53.1046 49.295 53.3943 49.2809C53.684 49.2667 53.9288 49.1703 54.1287 48.9926C54.3285 48.8149 54.4248 48.6127 54.4184 48.3849C54.411 48.1647 54.3148 47.9747 54.1287 47.814C53.9425 47.6534 53.7372 47.556 53.5135 47.521C53.2898 47.4851 53.067 47.5286 52.8461 47.6486C52.6251 47.7696 52.4803 47.9719 52.4115 48.2563L52.494 49.003L52.4949 49.0039Z" fill="#F6B519"/>
<path d="M56.3631 48.8543C56.9077 48.4063 57.5283 48.2144 58.2242 48.2787C58.9136 48.3496 59.427 48.652 59.7653 49.1851C60.1027 49.7181 60.1788 50.3967 59.9927 51.2218L56.7766 51.5413C56.8389 51.8966 57.0094 52.1527 57.2881 52.3087C57.5678 52.4656 57.8859 52.4939 58.2444 52.3938C58.6028 52.2945 58.9237 52.0809 59.2061 51.7539L60.2815 52.4042C60.0468 52.7529 59.7607 53.0355 59.4234 53.2519C59.086 53.4684 58.7422 53.6054 58.3947 53.6621C58.0472 53.7188 57.6952 53.7065 57.3404 53.6243C56.9856 53.543 56.6702 53.4041 56.3943 53.2085C56.1183 53.0128 55.8891 52.7482 55.7067 52.4146C55.5242 52.0809 55.4224 51.7038 55.4014 51.2842C55.339 50.2323 55.6599 49.4223 56.3631 48.8533V48.8543ZM57.1598 49.7928C56.9049 49.9421 56.7628 50.1982 56.7362 50.5602L58.8357 50.4005C58.8219 49.875 58.5634 49.5971 58.0601 49.5688C57.7154 49.5688 57.4156 49.6435 57.1607 49.7928H57.1598Z" fill="#F6B519"/>
<path d="M60.3559 49.569L60.2734 48.3857H61.1004L61.0793 46.8187H62.4031L62.4132 48.3007H63.385L63.4061 49.5586H62.4132C62.4132 49.6371 62.4096 49.8034 62.4031 50.0595C62.3958 50.3157 62.3949 50.552 62.3976 50.7684C62.4013 50.9848 62.4151 51.2126 62.4389 51.4508C62.4627 51.6889 62.515 51.8789 62.5938 52.0216C62.6727 52.1643 62.7781 52.2352 62.9092 52.2352C63.0742 52.2352 63.1898 52.1483 63.2558 51.9744C63.3209 51.8005 63.342 51.5812 63.3181 51.3184C63.2943 51.0557 63.2649 50.8298 63.2301 50.6417C63.1953 50.4537 63.1577 50.2883 63.1164 50.1456L64.4504 50.0926C64.5402 50.448 64.5879 50.8175 64.5952 51.2013C64.6016 51.585 64.5622 51.9583 64.476 52.3203C64.3899 52.6823 64.2212 52.9847 63.969 53.2267C63.7169 53.4686 63.3988 53.6038 63.0128 53.6321C62.6745 53.6538 62.3821 53.5943 62.1336 53.4563C61.8852 53.3174 61.6954 53.1293 61.5652 52.8911C61.4341 52.653 61.3287 52.3883 61.2498 52.0972C61.171 51.8061 61.1242 51.5113 61.1105 51.2126C61.0967 50.9139 61.093 50.6417 61.1004 50.397C61.1068 50.1522 61.116 49.9509 61.126 49.7949C61.1361 49.639 61.138 49.5605 61.1315 49.5605L60.3559 49.5709V49.569Z" fill="#F6B519"/>
<path d="M2.80592 49.481L2.69959 49.4833C2.68896 49.4836 2.68053 49.4927 2.68076 49.5036L2.72127 51.4331C2.7215 51.4441 2.73031 51.4527 2.74094 51.4525L2.84726 51.4501C2.85789 51.4499 2.86632 51.4408 2.86609 51.4299L2.82558 49.5004C2.82535 49.4894 2.81655 49.4807 2.80592 49.481Z" fill="white"/>
<path d="M2.74456 49.3743C2.78456 49.3743 2.81699 49.3409 2.81699 49.2996C2.81699 49.2584 2.78456 49.225 2.74456 49.225C2.70456 49.225 2.67213 49.2584 2.67213 49.2996C2.67213 49.3409 2.70456 49.3743 2.74456 49.3743Z" fill="white"/>
<path d="M5.64405 53.0956L5.74204 53.0908C5.75165 53.0903 5.75907 53.0819 5.75862 53.072L5.67764 51.3019C5.67719 51.292 5.66903 51.2843 5.65942 51.2848L5.56143 51.2896C5.55182 51.29 5.5444 51.2984 5.54485 51.3083L5.62583 53.0785C5.62628 53.0884 5.63444 53.096 5.64405 53.0956Z" fill="white"/>
<path d="M5.70415 53.3308C5.74061 53.3308 5.77016 53.3001 5.77016 53.2622C5.77016 53.2243 5.74061 53.1936 5.70415 53.1936C5.6677 53.1936 5.63815 53.2243 5.63815 53.2622C5.63815 53.3001 5.6677 53.3308 5.70415 53.3308Z" fill="white"/>
<path d="M39.4088 51.9992L39.5307 51.996C39.5429 51.9956 39.5525 51.9852 39.5522 51.9727L39.496 49.7637C39.4957 49.7512 39.4856 49.7413 39.4735 49.7417L39.3516 49.745C39.3394 49.7453 39.3298 49.7557 39.3302 49.7682L39.3863 51.9772C39.3866 51.9897 39.3967 51.9996 39.4088 51.9992Z" fill="white"/>
<path d="M39.4852 52.2898C39.5308 52.2898 39.5678 52.2517 39.5678 52.2047C39.5678 52.1577 39.5308 52.1196 39.4852 52.1196C39.4397 52.1196 39.4027 52.1577 39.4027 52.2047C39.4027 52.2517 39.4397 52.2898 39.4852 52.2898Z" fill="white"/>
<path d="M51.7976 53.0197L51.9187 53.0051C51.9308 53.0036 51.9395 52.9924 51.938 52.9799L51.6887 50.7852C51.6873 50.7728 51.6764 50.7639 51.6643 50.7653L51.5432 50.7799C51.5311 50.7814 51.5225 50.7927 51.5239 50.8051L51.7732 52.9998C51.7746 53.0123 51.7856 53.0212 51.7976 53.0197Z" fill="white"/>
<path d="M51.8878 53.3087C51.9333 53.3087 51.9703 53.2706 51.9703 53.2236C51.9703 53.1766 51.9333 53.1385 51.8878 53.1385C51.8422 53.1385 51.8053 53.1766 51.8053 53.2236C51.8053 53.2706 51.8422 53.3087 51.8878 53.3087Z" fill="white"/>
<path d="M61.2908 48.1108L61.3485 48.1105C61.3546 48.1105 61.3595 48.1054 61.3595 48.0991L61.3553 47.0321C61.3553 47.0258 61.3504 47.0208 61.3443 47.0208L61.2865 47.021C61.2804 47.0211 61.2755 47.0262 61.2756 47.0324L61.2797 48.0995C61.2797 48.1057 61.2847 48.1108 61.2908 48.1108Z" fill="white"/>
<path d="M61.326 48.2505C61.3483 48.2505 61.3664 48.2317 61.3664 48.2085C61.3664 48.1854 61.3483 48.1666 61.326 48.1666C61.3038 48.1666 61.2857 48.1854 61.2857 48.2085C61.2857 48.2317 61.3038 48.2505 61.326 48.2505Z" fill="white"/>
<path d="M40.683 53.0024L40.781 52.9997C40.7906 52.9995 40.7982 52.9912 40.798 52.9813L40.7528 51.2042C40.7526 51.1942 40.7446 51.1864 40.735 51.1867L40.6369 51.1893C40.6273 51.1896 40.6197 51.1978 40.6199 51.2077L40.6651 52.9849C40.6653 52.9948 40.6733 53.0026 40.683 53.0024Z" fill="white"/>
<path d="M40.7441 53.2372C40.781 53.2372 40.811 53.2061 40.811 53.1677C40.811 53.1293 40.781 53.0981 40.7441 53.0981C40.7071 53.0981 40.6771 53.1293 40.6771 53.1677C40.6771 53.2061 40.7071 53.2372 40.7441 53.2372Z" fill="white"/>
<path d="M19.6537 51.2728L19.5557 51.2776C19.5461 51.2781 19.5387 51.2865 19.5391 51.2964L19.6201 53.0665C19.6206 53.0764 19.6287 53.0841 19.6383 53.0836L19.7363 53.0788C19.7459 53.0784 19.7534 53.07 19.7529 53.0601L19.6719 51.2899C19.6715 51.28 19.6633 51.2724 19.6537 51.2728Z" fill="white"/>
<path d="M19.5955 51.1749C19.632 51.1749 19.6615 51.1442 19.6615 51.1063C19.6615 51.0684 19.632 51.0377 19.5955 51.0377C19.5591 51.0377 19.5295 51.0684 19.5295 51.1063C19.5295 51.1442 19.5591 51.1749 19.5955 51.1749Z" fill="white"/>
<path d="M27.8622 49.1419L27.7305 49.1606C27.7174 49.1624 27.7083 49.1748 27.7101 49.1883L28.028 51.5712C28.0298 51.5846 28.0418 51.594 28.0548 51.5922L28.1865 51.5735C28.1996 51.5717 28.2087 51.5593 28.2069 51.5458L27.889 49.1629C27.8872 49.1495 27.8752 49.1401 27.8622 49.1419Z" fill="white"/>
<path d="M27.758 49.0179C27.8077 49.0179 27.8479 48.9764 27.8479 48.9253C27.8479 48.8741 27.8077 48.8326 27.758 48.8326C27.7084 48.8326 27.6682 48.8741 27.6682 48.9253C27.6682 48.9764 27.7084 49.0179 27.758 49.0179Z" fill="white"/>
<path d="M48.9951 49.0235L48.8634 49.0427C48.8504 49.0446 48.8413 49.057 48.8432 49.0705L49.1707 51.452C49.1726 51.4654 49.1846 51.4748 49.1977 51.4729L49.3293 51.4536C49.3423 51.4517 49.3514 51.4393 49.3495 51.4259L49.022 49.0443C49.0202 49.0309 49.0081 49.0215 48.9951 49.0235Z" fill="white"/>
<path d="M48.8898 48.9001C48.9395 48.9001 48.9797 48.8586 48.9797 48.8075C48.9797 48.7563 48.9395 48.7148 48.8898 48.7148C48.8402 48.7148 48.8 48.7563 48.8 48.8075C48.8 48.8586 48.8402 48.9001 48.8898 48.9001Z" fill="white"/>
<path d="M59.5125 51.0811L59.5017 50.954C59.5006 50.9415 59.49 50.9323 59.4779 50.9334L57.3114 51.1284C57.2993 51.1295 57.2904 51.1405 57.2914 51.1529L57.3022 51.28C57.3033 51.2925 57.3139 51.3018 57.326 51.3007L59.4924 51.1057C59.5046 51.1046 59.5135 51.0936 59.5125 51.0811Z" fill="white"/>
<path d="M59.7107 51.0776C59.7573 51.0776 59.795 51.0387 59.795 50.9906C59.795 50.9426 59.7573 50.9037 59.7107 50.9037C59.6641 50.9037 59.6263 50.9426 59.6263 50.9906C59.6263 51.0387 59.6641 51.0776 59.7107 51.0776Z" fill="white"/>
<path d="M30.6913 50.3142L30.5485 50.3069C30.5343 50.3061 30.5223 50.3174 30.5216 50.332L30.3964 52.925C30.3957 52.9396 30.4066 52.952 30.4207 52.9528L30.5636 52.9601C30.5777 52.9608 30.5898 52.9496 30.5905 52.935L30.7157 50.3419C30.7164 50.3273 30.7055 50.3149 30.6913 50.3142Z" fill="white"/>
<path d="M30.6224 50.1644C30.6761 50.1644 30.7196 50.1195 30.7196 50.0642C30.7196 50.0088 30.6761 49.964 30.6224 49.964C30.5687 49.964 30.5252 50.0088 30.5252 50.0642C30.5252 50.1195 30.5687 50.1644 30.6224 50.1644Z" fill="white"/>
<path d="M12.8194 49.8892L12.7214 49.8915C12.7118 49.8917 12.7041 49.8999 12.7043 49.9098L12.7421 51.6815C12.7424 51.6914 12.7503 51.6992 12.7599 51.699L12.858 51.6968C12.8676 51.6966 12.8753 51.6884 12.875 51.6785L12.8372 49.9068C12.837 49.8969 12.8291 49.889 12.8194 49.8892Z" fill="white"/>
<path d="M12.7588 49.7912C12.7953 49.7912 12.8248 49.7605 12.8248 49.7226C12.8248 49.6848 12.7953 49.6541 12.7588 49.6541C12.7224 49.6541 12.6928 49.6848 12.6928 49.7226C12.6928 49.7605 12.7224 49.7912 12.7588 49.7912Z" fill="white"/>
<path d="M45.731 28.062H45.7283C45.7182 28.062 45.7081 28.0639 45.6989 28.0686C45.6898 28.0715 45.6815 28.0771 45.6751 28.0847C45.6678 28.0913 45.6623 28.0998 45.6595 28.1093C45.6549 28.1187 45.6522 28.1282 45.6531 28.1395L45.6558 28.1603C45.6595 28.1735 45.6659 28.1849 45.6751 28.1943L45.6907 28.2066C45.7026 28.2132 45.7154 28.217 45.7292 28.217H45.7319C45.742 28.217 45.7521 28.2151 45.7613 28.2104C45.7705 28.2076 45.7787 28.2019 45.7851 28.1943C45.7925 28.1877 45.798 28.1792 45.8007 28.1698C45.8053 28.1603 45.808 28.1509 45.8071 28.1395L45.8044 28.1187C45.8007 28.1055 45.7943 28.0941 45.7851 28.0847L45.7695 28.0724C45.7576 28.0658 45.7448 28.062 45.731 28.062Z" fill="black"/>
<path d="M57.5105 41.9425C57.5105 42.3423 57.1923 43.5634 56.0445 43.5993C54.8958 43.6352 49.383 43.7817 46.6977 43.6721C44.0124 43.5624 38.7647 44.6559 37.935 43.1986C37.5096 42.4538 38.1431 41.5418 39.4284 40.8509C39.4504 40.4209 39.654 39.7716 39.8988 39.1308C40.0399 38.2017 38.0532 36.7273 37.6828 33.9335C37.4509 32.1841 37.6178 30.0822 37.6957 29.9631C36.3159 29.0964 35.8254 27.692 35.8502 26.4425C35.8969 24.0145 37.5343 23.2367 37.5343 23.2367C37.5343 23.2367 37.5875 19.9457 38.3649 19.4788C39.1424 19.012 40.8678 21.5317 40.8678 21.5317C40.8678 21.5317 43.544 21.4428 45.2318 23.6478C45.2318 23.6478 47.8172 23.128 48.2526 23.6629C48.6881 24.1969 46.9453 26.796 46.7564 26.9652C46.7564 26.9652 46.7903 27.6419 46.5676 28.4509C46.7078 28.4622 52.6175 28.9471 55.1543 34.2511C57.7223 39.6175 57.5105 41.5427 57.5105 41.9434V41.9425Z" fill="white"/>
<path d="M57.3974 41.9426C57.3946 42.3471 57.2039 42.7885 56.9371 43.0786C56.7474 43.2846 56.5026 43.4189 56.2312 43.4661C56.0671 43.4945 55.8956 43.4888 55.7297 43.4935C54.7322 43.5219 53.7347 43.5446 52.7373 43.5625C51.4198 43.5861 50.1015 43.6022 48.784 43.5965C47.671 43.5918 46.5562 43.52 45.445 43.572C44.1689 43.6315 42.8973 43.7704 41.6211 43.8262C41.0362 43.8517 40.4485 43.864 39.8645 43.8224C39.4244 43.7912 38.9633 43.7374 38.5535 43.5597C38.2133 43.4122 37.9264 43.1429 37.9172 42.7355C37.9025 42.0843 38.5278 41.5626 39.0027 41.2432C39.088 41.1855 39.1741 41.1307 39.2622 41.0787C39.3355 41.0353 39.4822 40.988 39.5271 40.9105C39.5619 40.85 39.55 40.747 39.5592 40.6789C39.5739 40.5769 39.595 40.4757 39.6179 40.3765C39.6674 40.1648 39.7306 39.9559 39.7985 39.7489C39.8342 39.6403 39.8718 39.5325 39.9103 39.4257C39.9461 39.3265 39.9993 39.2244 40.0139 39.1195C40.0634 38.7679 39.8471 38.4012 39.6775 38.1158C39.4061 37.6564 39.098 37.2217 38.8285 36.7614C38.4838 36.1745 38.1913 35.5554 38.0006 34.8967C37.7696 34.099 37.7063 33.2616 37.6843 32.4328C37.666 31.7494 37.677 31.0595 37.7421 30.379C37.7504 30.2958 37.7586 30.2117 37.7724 30.1295C37.7769 30.1021 37.7824 30.0747 37.7879 30.0473C37.7898 30.0369 37.7934 30.0274 37.7953 30.018C37.8008 29.9991 37.7815 30.0435 37.7934 30.0236C37.8255 29.9688 37.8044 29.8979 37.7531 29.8649C37.1636 29.4915 36.6786 28.9727 36.366 28.3347C36.0937 27.7799 35.9635 27.1561 35.9626 26.5361C35.9626 25.4644 36.3192 24.3869 37.1196 23.6734C37.2617 23.5467 37.4203 23.422 37.5927 23.3397C37.6284 23.3227 37.6477 23.2774 37.6486 23.2396C37.6596 22.5506 37.7155 21.855 37.8237 21.1754C37.8934 20.7397 37.9759 20.2719 38.1812 19.8796C38.2463 19.7549 38.3325 19.6169 38.4609 19.5621C38.5773 19.5129 38.7258 19.5517 38.8459 19.6046C39.2392 19.7795 39.5656 20.1254 39.8544 20.4411C40.1432 20.7567 40.3871 21.0611 40.6282 21.3909C40.6759 21.4561 40.7199 21.5251 40.7694 21.5884C40.8225 21.6555 40.8739 21.648 40.9463 21.6489C41.2296 21.6527 41.5138 21.6858 41.7925 21.7368C42.9174 21.9428 43.9892 22.4627 44.7932 23.3095C44.9206 23.4437 45.0398 23.5845 45.1526 23.731C45.1783 23.7641 45.225 23.7679 45.2617 23.7613C45.6678 23.68 46.0804 23.6214 46.492 23.5807C46.8166 23.5486 47.1439 23.5278 47.4693 23.5439C47.6765 23.5543 47.9653 23.5675 48.1285 23.7017C48.1835 23.7471 48.2009 23.7906 48.2074 23.8605C48.2165 23.9616 48.1982 24.0646 48.1744 24.162C48.1056 24.4493 47.9828 24.7225 47.8535 24.9861C47.5784 25.5475 47.253 26.0863 46.8973 26.5966C46.8404 26.6789 46.79 26.7507 46.7341 26.8206C46.6864 26.8792 46.6451 26.9199 46.6451 27.0011C46.6451 27.4832 46.5846 27.9567 46.459 28.4217C46.4379 28.4992 46.4957 28.5625 46.5672 28.5682C46.7597 28.5833 46.8927 28.6041 47.0733 28.6334C47.495 28.7024 47.9131 28.7969 48.3247 28.9112C49.6055 29.2675 50.8386 29.8271 51.9323 30.6039C52.5979 31.0765 53.2076 31.6332 53.7393 32.2617C54.3802 33.0206 54.8569 33.8741 55.2777 34.7776C56.0414 36.4164 56.7547 38.1177 57.1645 39.8926C57.3149 40.5447 57.4148 41.1893 57.3992 41.8613C57.3992 41.8887 57.3974 41.9161 57.3974 41.9445C57.3974 42.0938 57.622 42.0938 57.622 41.9445C57.622 41.7621 57.6284 41.5806 57.6192 41.3982C57.5991 40.9984 57.5395 40.6005 57.4615 40.2083C57.1361 38.5657 56.5081 36.9845 55.8361 35.4647C55.3978 34.4733 54.9477 33.4875 54.305 32.6152C53.7907 31.9167 53.1883 31.2939 52.5154 30.758C51.4052 29.8724 50.1253 29.2278 48.7849 28.8063C48.0799 28.5842 47.3492 28.4103 46.614 28.3404C46.5984 28.3385 46.5828 28.3375 46.5663 28.3366L46.6745 28.4831C46.8056 27.9982 46.8918 27.4728 46.867 26.9671L46.834 27.0493C46.9339 26.9558 47.0119 26.8263 47.0898 26.7138C47.2346 26.5059 47.3712 26.2932 47.5042 26.0778C47.8168 25.5674 48.1221 25.0334 48.3192 24.4625C48.3871 24.266 48.4512 24.0457 48.4283 23.834C48.4072 23.6375 48.2899 23.5089 48.1166 23.4333C47.8929 23.336 47.639 23.3171 47.3987 23.3086C47.0999 23.2991 46.8001 23.318 46.5021 23.3464C46.0657 23.3889 45.6293 23.4503 45.1993 23.5363L45.3084 23.5666C44.3201 22.285 42.7946 21.5535 41.2259 21.4306C41.1058 21.4211 40.9848 21.4136 40.8647 21.4174L40.9619 21.475C40.7391 21.1499 40.4943 20.8371 40.2395 20.5375C39.8636 20.0951 39.4235 19.5904 38.8798 19.3712C38.6827 19.2918 38.4545 19.2738 38.2729 19.4024C38.0813 19.5375 37.9695 19.7662 37.8842 19.9817C37.6458 20.5819 37.567 21.2539 37.5028 21.8946C37.4579 22.3407 37.4267 22.7906 37.4194 23.2386L37.4753 23.1384C37.3149 23.215 37.1673 23.3303 37.0307 23.4446C36.7015 23.7197 36.4274 24.0665 36.223 24.4484C35.6133 25.5853 35.5766 27.055 36.0735 28.2411C36.3944 29.0057 36.9518 29.6295 37.6367 30.0643L37.5963 29.9055C37.5642 29.9603 37.5578 30.0321 37.5487 30.0936C37.5303 30.2174 37.5175 30.3431 37.5065 30.4678C37.4726 30.8639 37.457 31.2618 37.4515 31.6587C37.4386 32.6549 37.4671 33.686 37.7008 34.6576C37.8989 35.4789 38.2537 36.2473 38.6827 36.9656C38.9981 37.4929 39.3813 37.9891 39.65 38.5449C39.7426 38.7377 39.8352 38.973 39.7627 39.1667C39.561 39.7017 39.3474 40.2735 39.3135 40.8519L39.3694 40.7517C38.8881 41.0126 38.4077 41.3358 38.0639 41.7772C37.82 42.0891 37.6394 42.4756 37.7036 42.8849C37.8008 43.5077 38.3774 43.7893 38.9138 43.9188C39.6619 44.0993 40.4531 44.0937 41.2159 44.0719C42.1473 44.0455 43.076 43.9661 44.0048 43.8961C44.8445 43.8328 45.6889 43.7648 46.5315 43.7837C47.3428 43.8016 48.1542 43.8262 48.9665 43.8281C50.7891 43.8328 52.6108 43.8016 54.4333 43.7591C54.9697 43.7468 55.5069 43.7374 56.0442 43.7156C56.4613 43.6986 56.85 43.5285 57.1297 43.2053C57.3515 42.9491 57.5028 42.6259 57.578 42.2923C57.6036 42.1779 57.6229 42.0598 57.6238 41.9426C57.6247 41.7932 57.4001 41.7932 57.3992 41.9426H57.3974Z" fill="black"/>
<path d="M51.9798 39.5753C51.7735 41.9268 48.9378 40.0904 44.9094 39.8314C44.7884 39.8229 44.6646 39.8173 44.5409 39.8125C44.319 39.804 44.099 39.8012 43.8826 39.805C42.0912 39.8333 40.5225 40.2634 39.426 40.8522" fill="white"/>
<path d="M51.867 39.5754C51.8432 39.8306 51.7845 40.1056 51.6195 40.3069C51.4783 40.4799 51.2775 40.5687 51.0667 40.6103C50.7898 40.6651 50.4983 40.6443 50.2205 40.6132C49.8455 40.5716 49.4733 40.495 49.1038 40.4175C48.154 40.2181 47.2097 39.9969 46.2489 39.858C45.0754 39.6888 43.8872 39.6274 42.7073 39.7663C41.5558 39.9015 40.4034 40.1992 39.3711 40.7511C39.2427 40.8201 39.3564 41.0205 39.4847 40.9515C41.5127 39.8665 43.9303 39.7597 46.1526 40.0763C47.1309 40.2153 48.0926 40.4411 49.0589 40.6434C49.7098 40.7804 50.4194 40.9553 51.0859 40.8409C51.3481 40.7965 51.6039 40.6812 51.7799 40.4704C51.9881 40.2209 52.0642 39.8958 52.0935 39.5754C52.1072 39.427 51.8817 39.428 51.8689 39.5754H51.867Z" fill="black"/>
<path d="M40.0059 39.1621C40.104 38.8975 40.116 38.5979 40.1132 38.3172C40.1095 37.959 40.0701 37.6017 40.0215 37.2482C39.9289 36.5838 39.7905 35.927 39.6301 35.2767C39.5961 35.1378 39.5604 34.9989 39.5228 34.8599C39.4852 34.721 39.2661 34.7777 39.3055 34.9214C39.4091 35.2956 39.4971 35.6746 39.5787 36.0546C39.7272 36.7492 39.8593 37.4581 39.8858 38.1707C39.8968 38.4788 39.8987 38.8077 39.7905 39.0997C39.7382 39.2396 39.9564 39.3001 40.0078 39.1612L40.0059 39.1621Z" fill="black"/>
<path d="M46.2723 36.0593C46.2723 36.0593 44.1591 37.4751 44.9127 39.8426L46.2723 36.0593Z" fill="white"/>
<path d="M46.2153 35.9593C45.9522 36.136 45.7166 36.3704 45.5103 36.6114C45.0739 37.1227 44.7558 37.7437 44.666 38.4232C44.6009 38.9119 44.6577 39.4052 44.8044 39.873C44.8484 40.0148 45.0657 39.9543 45.0217 39.8116C44.7879 39.0659 44.8163 38.2758 45.1528 37.5688C45.3783 37.0953 45.7102 36.6804 46.0998 36.3411C46.1869 36.2655 46.2346 36.2239 46.3299 36.1597C46.451 36.0784 46.3382 35.8771 46.2163 35.9593H46.2153Z" fill="black"/>
<path d="M43.4268 39.7687C43.4268 39.7687 44.725 38.3274 44.0649 36.9305L43.4268 39.7687Z" fill="white"/>
<path d="M43.5069 39.8512C43.9864 39.3162 44.3458 38.5601 44.3641 37.8277C44.3724 37.495 44.3008 37.1727 44.1624 36.8731C44.1001 36.7379 43.9057 36.8561 43.968 36.9903C44.2458 37.5923 44.1514 38.269 43.8782 38.8541C43.7398 39.1508 43.5647 39.4448 43.3465 39.6877C43.2484 39.7973 43.407 39.9618 43.506 39.8521L43.5069 39.8512Z" fill="black"/>
<path d="M41.3778 30.96C44.9762 31.7151 46.1717 29.8778 46.5659 28.4507L41.3778 30.96Z" fill="white"/>
<path d="M41.3488 31.072C42.4187 31.2941 43.5923 31.3763 44.6273 30.9472C45.3213 30.6589 45.8934 30.1476 46.2693 29.4813C46.4463 29.1685 46.5792 28.8292 46.6755 28.4814C46.7158 28.3377 46.4985 28.2763 46.4582 28.4199C46.2904 29.022 46.0062 29.5938 45.5735 30.0399C44.9968 30.6334 44.2129 30.9283 43.4107 31.0001C42.7405 31.0597 42.0658 30.986 41.4084 30.8489C41.2673 30.8196 41.2067 31.0427 41.3488 31.0729V31.072Z" fill="black"/>
<path d="M41.1429 26.1773C41.1429 26.1773 40.7028 25.2766 40.844 25.0706C40.9852 24.8645 41.131 24.7672 41.6746 25.0545C42.2183 25.3418 42.1981 25.6575 42.1266 25.8011C42.056 25.9439 41.1429 26.1773 41.1429 26.1773Z" fill="black"/>
<path d="M41.1108 26.0013C41.0163 26.1969 40.9219 26.3926 40.8275 26.5882C40.7825 26.6808 40.799 26.7669 40.811 26.867C40.8614 27.2706 41.0072 27.7375 41.3785 27.9426C41.681 28.1099 42.0358 28.0447 42.3402 27.9171C42.4585 27.867 42.4062 27.6666 42.287 27.7176C42.0505 27.8169 41.7672 27.8953 41.5206 27.7847C41.3455 27.7063 41.229 27.5475 41.1493 27.3727C41.0787 27.2196 41.0365 27.039 41.0127 26.8651C41.0081 26.8358 41.0154 26.8869 41.0117 26.8576C41.0108 26.8491 41.0099 26.8415 41.009 26.833C41.0081 26.8207 41.0062 26.8084 41.0053 26.7952C41.0026 26.7697 41.0007 26.7442 40.9989 26.7187C40.9989 26.7083 41.0007 26.6931 40.9971 26.6827C40.9897 26.6619 40.9659 26.7536 40.9916 26.7111C41.0557 26.6043 41.1025 26.4814 41.1566 26.369L41.2849 26.1034C41.3427 25.9843 41.1694 25.8794 41.1117 25.9985L41.1108 26.0013Z" fill="black"/>
<path d="M40.8258 26.6052C40.5718 26.8793 40.1079 27.1571 39.7394 26.9133C39.5377 26.7791 39.4139 26.5381 39.3259 26.316C39.2782 26.1941 39.0829 26.247 39.1324 26.3708C39.2892 26.7706 39.5578 27.195 40.0199 27.2157C40.3124 27.229 40.5892 27.074 40.8129 26.8925C40.867 26.849 40.9202 26.8027 40.9679 26.7517C41.0577 26.6553 40.9156 26.5088 40.8258 26.6052Z" fill="black"/>
<path d="M42.7068 25.3502C42.7123 25.3474 42.7187 25.3446 42.7242 25.3417C42.7306 25.3389 42.7371 25.3361 42.7435 25.3332C42.7187 25.3446 42.7472 25.3313 42.7563 25.3285C42.8141 25.3058 42.8737 25.2897 42.9342 25.2803C42.9901 25.2708 43.0882 25.2699 43.1551 25.2812C43.2532 25.2983 43.344 25.337 43.4274 25.3937C43.5585 25.4835 43.6575 25.6158 43.7364 25.7547C43.7905 25.8502 43.9344 25.7632 43.8803 25.6678C43.7391 25.4192 43.5319 25.2 43.2532 25.1272C43.0836 25.0837 42.9012 25.095 42.7361 25.1536C42.6976 25.1669 42.6591 25.1829 42.6234 25.2028C42.529 25.2557 42.6133 25.4041 42.7077 25.3512L42.7068 25.3502Z" fill="black"/>
<path d="M40.9163 24.3626C40.875 24.0309 40.644 23.7407 40.3396 23.6273C40.1755 23.5659 39.9949 23.5564 39.8225 23.5734C39.7776 23.5782 39.7391 23.6093 39.7391 23.6594C39.7391 23.7029 39.7776 23.7502 39.8225 23.7454C39.9637 23.7313 40.1077 23.7341 40.2443 23.7757C40.3405 23.805 40.4368 23.8579 40.5056 23.9203C40.5743 23.9827 40.6147 24.0356 40.6605 24.1169C40.6697 24.1329 40.6779 24.149 40.6853 24.166C40.6889 24.1736 40.6926 24.1821 40.6963 24.1896C40.6981 24.1934 40.6999 24.1972 40.7008 24.201C40.6944 24.1859 40.7054 24.2114 40.7008 24.201C40.7118 24.2293 40.7219 24.2586 40.7302 24.2879C40.7366 24.3106 40.7421 24.3342 40.7467 24.3569C40.7485 24.3683 40.754 24.4099 40.7485 24.3617C40.754 24.408 40.7824 24.4477 40.8319 24.4477C40.8723 24.4477 40.9209 24.408 40.9154 24.3617L40.9163 24.3626Z" fill="black"/>
<path d="M39.9315 21.9895C39.9315 21.9895 38.8644 20.3063 38.4885 20.2893C38.1126 20.2723 38.0035 23.0244 38.0035 23.0244C38.0035 23.0244 38.7544 22.2079 39.9315 21.9895Z" fill="#E669A0"/>
<path d="M45.6418 24.5102C45.6418 24.5102 47.4937 23.8788 47.799 24.1075C48.1034 24.3353 46.5247 26.5582 46.5247 26.5582C46.5247 26.5582 46.4311 25.4364 45.6418 24.5102Z" fill="#E669A0"/>
<path d="M37.7951 30.0096C37.7951 30.0096 42.9071 32.2779 45.2083 30.64C45.2083 30.64 43.5141 32.9149 37.7135 30.7156C37.7135 30.7156 37.7382 30.2213 37.796 30.0087L37.7951 30.0096Z" fill="#E669A0"/>
<path d="M7.00823 31.6663C8.22757 32.704 9.81638 32.428 10.5104 31.309C10.5104 31.309 10.6048 31.5859 10.9578 31.5396C10.9578 31.5396 10.4765 33.0471 10.9239 34.0782C11.3713 35.1084 10.7451 35.9533 10.7451 35.9533C10.7451 35.9533 9.64036 35.8305 9.59635 37.4154C9.59635 37.4154 8.13406 38.0921 9.06002 39.7064C9.06002 39.7064 8.46319 41.1354 9.28372 41.7668C9.28372 41.7668 9.08936 43.5351 11.1027 43.743C13.1159 43.95 14.9514 42.59 14.9285 41.6675C14.9055 40.7451 15.5482 40.3217 14.9514 39.4919C14.9514 39.4919 15.5482 38.3842 14.9816 38.0146C14.9816 38.0146 15.6527 36.8474 14.9816 36.6622C14.9816 36.6622 15.3841 36.1849 15.2796 35.5554C15.2796 35.5554 18.2372 37.0194 21.5331 37.0988C21.5441 37.1933 21.5478 37.2935 21.5441 37.4003C21.5441 37.4003 20.8134 37.5232 20.7382 38.507C20.664 39.4919 21.1269 39.7678 21.1269 39.7678C21.1269 39.7678 20.7098 40.1525 20.8427 40.7527C20.8427 40.7527 20.1579 41.6288 21.0078 42.2129C21.0078 42.2129 20.5906 42.659 20.7841 43.1514C20.9775 43.6438 21.9621 44.0899 23.5143 43.951C24.487 43.864 25.2901 43.4444 25.6055 42.9529C25.9878 43.038 27.5207 43.3451 28.0928 42.8896C28.7492 42.3669 28.1817 41.66 28.1817 41.66C28.6291 40.661 28.0469 39.5996 28.0469 39.5996C29.1508 38.0146 28.1221 37.3852 28.1221 37.3852C28.763 36.4467 27.749 36.0327 27.749 36.0327C27.749 35.2473 27.9424 35.3551 28.1359 34.3249C28.3312 33.2947 27.7334 32.9875 27.7334 32.9875C28.6135 31.8808 27.3447 30.9584 27.3447 30.9584C27.837 30.466 27.7334 29.5274 27.7334 29.5274C27.7334 29.5274 27.2667 28.3536 27.7334 27.7336C30.6965 27.4898 31.3383 26.2592 31.3383 26.2592C33.0297 26.3471 32.8831 24.9701 32.8831 24.9701C32.8831 24.9701 33.6431 24.6166 33.6431 23.6545C33.6431 23.3577 33.5487 23.1167 33.4194 22.9248C34.0593 23.0543 34.1712 22.5487 34.1712 22.5487C34.1712 22.5487 37.3158 22.4154 37.4075 19.5517C37.4991 16.6889 34.9064 14.7542 34.9064 14.7542C35.495 12.9973 33.8393 13.1362 33.8393 13.1362C34.5993 10.9114 32.7611 10.9246 32.7611 10.9246C33.2874 8.54857 30.823 9.31885 30.823 9.31885C30.603 6.14513 27.991 7.43522 27.991 7.43522C27.1329 4.89379 25.3901 6.86626 25.3901 6.86626C24.0286 4.90702 23.1824 6.80293 23.1824 6.80293C21.9081 5.22364 21.258 6.98062 21.258 6.98062C18.9642 6.01943 18.8423 8.09208 18.8423 8.09208C17.468 7.14507 17.0389 8.90205 17.0389 8.90205C15.7774 9.07784 16.0827 10.419 16.0827 10.419C14.7955 10.4568 14.9422 11.9236 14.9422 11.9236C13.2507 11.9614 13.655 13.9972 13.655 13.9972C13.655 13.9972 10.7112 15.6653 11.0302 18.926C11.3154 21.8455 13.3497 23.2868 15.6032 23.3218C15.485 24.558 17.2663 25.0428 17.2663 25.0428C17.3946 25.7914 18.1033 25.66 18.1033 25.66C18.7378 27.2525 20.068 26.2734 20.068 26.2734C20.068 26.2734 20.3321 26.4898 20.9353 26.7582C20.6383 28.0389 19.6637 27.9538 19.6637 27.9538C19.6637 27.9538 15.3236 27.4992 11.4749 29.9131C11.4749 29.9131 11.4079 29.7514 11.1467 29.7902C11.1467 29.7902 11.5711 28.1977 10.878 27.8177C10.184 27.4368 10.0951 26.4671 8.50628 26.6977C6.91838 26.9284 6.41506 28.0483 6.38114 28.4273C6.34813 28.8082 5.78888 30.6304 7.00823 31.6681V31.6663Z" fill="white"/>
<path d="M6.91525 31.7617C7.49742 32.2475 8.22627 32.5263 8.97988 32.4289C9.65465 32.342 10.2515 31.963 10.6246 31.377L10.3835 31.3449C10.4734 31.5906 10.7163 31.6974 10.9583 31.6757L10.8309 31.5037C10.621 32.1652 10.5329 32.9251 10.6512 33.6122C10.697 33.8759 10.8116 34.1046 10.885 34.3579C10.9583 34.6112 10.9739 34.8844 10.9281 35.1471C10.8822 35.4099 10.7869 35.6735 10.6329 35.8843L10.7466 35.8172C10.5284 35.7945 10.2845 35.8692 10.1002 35.9854C9.62439 36.285 9.48504 36.8767 9.46487 37.4154L9.52996 37.2982C9.25859 37.4258 9.01381 37.6583 8.85061 37.9125C8.47289 38.5004 8.62325 39.2007 8.94596 39.7763V39.6393C8.65809 40.3349 8.54257 41.3443 9.19075 41.865L9.15224 41.7686C9.12199 42.0522 9.17791 42.3631 9.27601 42.6268C9.49696 43.2232 9.98653 43.6173 10.576 43.7846C11.4892 44.0426 12.5178 43.88 13.3741 43.4954C14.0104 43.209 14.7475 42.7251 15.0005 42.0191C15.0638 41.8433 15.0528 41.677 15.0656 41.4936C15.0821 41.2375 15.1619 40.9955 15.2352 40.7526C15.3819 40.2659 15.3617 39.8491 15.0665 39.4238V39.5608C15.3214 39.0835 15.5836 38.2736 15.0491 37.8974L15.0968 38.0836C15.3443 37.6498 15.6964 36.7434 15.0179 36.5308L15.0766 36.7585C15.3581 36.4192 15.4699 35.9561 15.4085 35.5195L15.2141 35.6735C16.5334 36.3247 17.9957 36.7538 19.4314 37.0128C20.1263 37.1385 20.8286 37.216 21.5345 37.2349L21.4025 37.0988C21.4126 37.1999 21.4163 37.2992 21.4135 37.4003L21.5107 37.2689C21.022 37.3559 20.7021 37.8624 20.6287 38.3322C20.5554 38.8019 20.5911 39.5958 21.0624 39.885L21.0358 39.6714C20.7388 39.9512 20.6407 40.3944 20.7177 40.7885L20.7516 40.6562C20.6132 40.8349 20.5114 41.0541 20.471 41.28C20.3922 41.7214 20.5976 42.0824 20.9432 42.331L20.9166 42.1174C20.6764 42.3792 20.5325 42.7799 20.6397 43.1334C20.7333 43.4415 21.0046 43.6494 21.276 43.7836C21.6968 43.9916 22.169 44.0757 22.6319 44.1031C23.2352 44.1399 23.8614 44.0927 24.438 43.8999C24.9276 43.7364 25.4245 43.4689 25.7216 43.0219L25.5721 43.0842C26.2735 43.2402 27.0949 43.3905 27.7981 43.1825C28.1795 43.0701 28.5178 42.761 28.5416 42.3319C28.5572 42.0569 28.4435 41.7752 28.2776 41.5635L28.2987 41.7289C28.5948 41.0362 28.5215 40.1912 28.1639 39.5315V39.6686C28.5095 39.1639 28.8396 38.4919 28.6287 37.8624C28.5508 37.6309 28.3995 37.3974 28.1923 37.268L28.24 37.4541C28.4738 37.0997 28.5691 36.665 28.3024 36.3002C28.1731 36.1225 27.987 35.9845 27.7871 35.9013L27.8843 36.0327C27.888 35.3352 28.2703 34.7303 28.3079 34.0319C28.3299 33.6179 28.196 33.0773 27.8036 32.8703L27.8302 33.0839C28.1859 32.6208 28.2877 32.0707 28.0126 31.5377C27.8733 31.2664 27.6578 31.0198 27.4149 30.8411L27.4415 31.0547C27.6881 30.7958 27.8082 30.4536 27.854 30.0992C27.8788 29.9102 27.9072 29.6805 27.8641 29.4906C27.8174 29.2883 27.7367 29.0974 27.7 28.8904C27.6349 28.5246 27.6285 28.1154 27.8513 27.8035L27.7376 27.8706C28.6131 27.796 29.4969 27.6362 30.2991 27.2535C30.6732 27.0748 31.05 26.8385 31.3223 26.5134C31.37 26.4558 31.4204 26.3953 31.4561 26.3282L31.3425 26.3953C31.9109 26.4199 32.5471 26.2875 32.8515 25.7384C32.9753 25.5154 33.0459 25.2281 33.0193 24.97L32.9542 25.0872C33.7454 24.713 34.0103 23.5826 33.5382 22.8558L33.3888 23.0562C33.7555 23.1214 34.2029 23.0117 34.3028 22.5855L34.1754 22.6857C35.1967 22.6403 36.3198 22.1744 36.956 21.3323C37.5923 20.4902 37.6418 19.4742 37.4621 18.5073C37.2824 17.5404 36.7882 16.6057 36.1694 15.8298C35.8201 15.3931 35.424 14.9716 34.9776 14.638L35.0381 14.792C35.2214 14.2287 35.2636 13.5256 34.6952 13.1872C34.4477 13.0398 34.1286 12.9783 33.8435 13.001L33.9709 13.173C34.2001 12.4897 34.3166 11.5956 33.684 11.1004C33.43 10.9019 33.0853 10.7875 32.7653 10.7885L32.8928 10.9605C33.022 10.3585 33.0358 9.60236 32.4481 9.25266C32.0548 9.01922 31.5607 9.03717 31.1279 9.11089C31.0152 9.1298 30.9024 9.15342 30.7924 9.18745L30.9592 9.31882C30.8987 8.50224 30.6576 7.55617 29.8627 7.19324C29.3713 6.9683 28.802 7.01556 28.2987 7.17339C28.1731 7.21309 28.0466 7.25846 27.9283 7.31705L28.1227 7.39833C27.9063 6.77172 27.5249 6.05059 26.8015 6.00239C26.3386 5.9712 25.8994 6.23678 25.5538 6.52882C25.4658 6.60349 25.3787 6.68288 25.3007 6.76983L25.5079 6.79724C25.1165 6.24245 24.4775 5.57897 23.7605 5.95513C23.4616 6.11202 23.2132 6.42202 23.072 6.73391L23.2792 6.7065C22.8978 6.24245 22.2863 5.75571 21.7014 6.16589C21.441 6.3483 21.2467 6.64318 21.1348 6.94467L21.2971 6.84922C20.7094 6.60727 19.9641 6.42769 19.392 6.81236C19.0583 7.03635 18.852 7.40873 18.7603 7.80096C18.7383 7.89641 18.72 7.99471 18.7135 8.093L18.9125 7.9758C18.4147 7.64028 17.8077 7.53821 17.3631 8.0155C17.1495 8.24516 16.9909 8.558 16.9148 8.86705L17.0074 8.7716C16.5105 8.84815 16.0997 9.14775 15.9705 9.66285C15.9072 9.91614 15.9017 10.2006 15.9586 10.4558L16.086 10.2838C15.5561 10.3065 15.1197 10.5758 14.9253 11.0947C14.83 11.3508 14.7869 11.6504 14.8135 11.9245L14.9455 11.7884C14.257 11.8111 13.717 12.1948 13.5501 12.8971C13.463 13.2619 13.4594 13.6654 13.5318 14.034L13.5923 13.88C13.2687 14.0633 12.9707 14.3091 12.6957 14.5605C12.0915 15.1105 11.5808 15.7853 11.26 16.5509C10.4422 18.5026 10.973 21.062 12.6058 22.4021C13.4584 23.1015 14.5256 23.438 15.6074 23.4588L15.4754 23.3227C15.3966 24.3198 16.4188 24.9502 17.2357 25.1751L17.1431 25.0797C17.2393 25.5768 17.6574 25.8783 18.1424 25.7913L17.9929 25.729C18.224 26.2913 18.6659 26.7573 19.2985 26.7024C19.5909 26.6769 19.8971 26.5663 20.1383 26.3906L19.9778 26.3688C20.2446 26.5843 20.5636 26.7355 20.8717 26.8745L20.8112 26.7204C20.6782 27.2657 20.3134 27.8177 19.7119 27.8177C19.5148 27.8177 19.3168 27.7922 19.1197 27.7865C17.6354 27.7478 16.1328 27.9434 14.7025 28.3498C13.5492 28.6768 12.4353 29.156 11.4112 29.7949L11.5918 29.844C11.5148 29.6767 11.3086 29.638 11.1499 29.6531L11.2774 29.8251C11.4268 29.2599 11.5506 28.4405 11.1985 27.932C11.0904 27.7761 10.9391 27.7109 10.7951 27.6003C10.6705 27.5049 10.5641 27.3858 10.4578 27.2695C10.2148 27.0021 9.96269 26.7592 9.62164 26.6325C9.13024 26.4501 8.55357 26.5163 8.05942 26.6514C7.60468 26.7762 7.17196 27.0039 6.83274 27.3442C6.60079 27.5757 6.40826 27.8621 6.30375 28.1787C6.23224 28.3961 6.21757 28.6154 6.17906 28.8488C6.00579 29.8922 6.07913 31.032 6.91708 31.7636C7.04635 31.876 7.2343 31.6842 7.10411 31.5708C6.40276 30.9593 6.28358 30.0255 6.40184 29.1342C6.46694 28.6428 6.51553 28.1778 6.81532 27.7723C7.35715 27.0399 8.41972 26.6684 9.28976 26.8225C9.63723 26.8839 9.90768 27.0701 10.1488 27.3262C10.3551 27.5446 10.5439 27.7685 10.8016 27.9254C11.149 28.1371 11.1628 28.6088 11.1426 28.9811C11.1289 29.2401 11.0894 29.5009 11.0234 29.7514C11.0023 29.8299 11.0638 29.9319 11.1509 29.9234C11.2169 29.9168 11.3296 29.9026 11.3645 29.9792C11.3947 30.0453 11.4882 30.0633 11.5451 30.0283C13.2824 28.9452 15.271 28.3385 17.2852 28.1324C17.9022 28.0691 18.5238 28.0417 19.1444 28.0587C19.3406 28.0644 19.5396 28.0946 19.7358 28.088C20.4472 28.0663 20.9056 27.4557 21.0679 26.7913C21.0807 26.7384 21.0606 26.6618 21.0074 26.6372C20.7873 26.538 20.5701 26.4312 20.3629 26.3036C20.3097 26.2715 20.2574 26.2374 20.2061 26.2015C20.1942 26.193 20.1117 26.1288 20.1667 26.1741C20.1236 26.1392 20.0576 26.1155 20.0062 26.1524C19.8174 26.2904 19.5827 26.3877 19.3544 26.4208C18.7878 26.503 18.4275 26.0872 18.2221 25.5881C18.1983 25.5296 18.1259 25.5163 18.0727 25.5258C18.113 25.5182 18.0351 25.5286 18.0094 25.5296C17.9388 25.5314 17.8683 25.5248 17.7995 25.5059C17.5602 25.4398 17.4447 25.2441 17.3979 25.0041C17.3888 24.9587 17.3475 24.9209 17.3053 24.9086C16.6003 24.7149 15.6707 24.1884 15.7394 23.3189C15.7449 23.2442 15.6744 23.1838 15.6074 23.1828C14.686 23.1649 13.772 22.9097 13.0074 22.3691C12.2428 21.8285 11.6569 20.9637 11.3782 20.0204C11.0729 18.9874 11.05 17.8731 11.4222 16.8552C11.6991 16.0963 12.1777 15.4271 12.7479 14.8761C13.0431 14.5907 13.3695 14.3157 13.7252 14.1125C13.7793 14.0822 13.7977 14.017 13.7857 13.9584C13.7344 13.6947 13.7298 13.3441 13.7857 13.0511C13.8316 12.812 13.9205 12.5757 14.0865 12.3961C14.312 12.1532 14.6283 12.0682 14.9455 12.0578C15.0115 12.0559 15.0849 11.9973 15.0775 11.9217C15.0564 11.7071 15.0821 11.4813 15.1426 11.2752C15.2774 10.8187 15.6285 10.573 16.0851 10.5531C16.1731 10.5494 16.2327 10.469 16.2125 10.3811C16.1731 10.2035 16.1713 9.9823 16.2116 9.78949C16.306 9.33205 16.6434 9.09861 17.0771 9.0315C17.1201 9.02489 17.1587 8.97763 17.1697 8.93605C17.2292 8.69788 17.3429 8.45592 17.496 8.26785C17.8573 7.82175 18.3468 7.91626 18.7796 8.20736C18.8685 8.26785 18.9721 8.18656 18.9785 8.09016C18.9831 8.01644 18.9968 7.93989 19.0253 7.83025C19.0757 7.63272 19.1573 7.44086 19.2801 7.27925C19.7587 6.65263 20.6095 6.85489 21.2274 7.10913C21.298 7.13843 21.3668 7.07605 21.3897 7.01367C21.3988 6.9891 21.3823 7.0269 21.4062 6.97492C21.43 6.92294 21.4566 6.87001 21.485 6.81897C21.5666 6.67343 21.6666 6.5326 21.7949 6.42769C22.2735 6.0383 22.7814 6.51559 23.0931 6.89553C23.1454 6.95885 23.2664 6.94373 23.3003 6.86812C23.4085 6.62806 23.5836 6.38894 23.7999 6.24339C24.3895 5.84739 24.9533 6.46928 25.2797 6.93144C25.3273 6.99855 25.4245 7.02974 25.4869 6.95885C25.7197 6.69611 26.0296 6.46172 26.356 6.34263C26.6063 6.2519 26.8776 6.23394 27.1188 6.36437C27.5157 6.57891 27.7248 7.05525 27.8669 7.46733C27.8971 7.55522 27.9796 7.5883 28.0612 7.54861C28.0658 7.54577 28.0713 7.54294 28.0759 7.54105C28.1199 7.52498 28.0768 7.5401 28.1034 7.52876C28.163 7.50419 28.2226 7.48056 28.2831 7.45977C28.4729 7.39455 28.6691 7.34446 28.868 7.32178C29.4007 7.26129 29.937 7.404 30.2661 7.86711C30.5604 8.28108 30.6558 8.81413 30.6934 9.31409C30.6998 9.39916 30.7731 9.47288 30.8602 9.44547C31.3956 9.27913 32.3023 9.18367 32.6031 9.79894C32.7644 10.1288 32.7094 10.538 32.6361 10.8839C32.6177 10.969 32.6737 11.0569 32.7635 11.056C33.0019 11.056 33.2797 11.1353 33.4933 11.2885C34.0663 11.6996 33.9077 12.5181 33.7142 13.0955C33.6876 13.1749 33.7591 13.2742 33.8417 13.2675C34.0599 13.2496 34.3001 13.2855 34.4981 13.3828C35.0124 13.6352 34.9345 14.2429 34.7814 14.7136C34.7612 14.775 34.796 14.8327 34.8419 14.8676C34.8841 14.8988 34.8676 14.8865 34.8978 14.9111C34.9675 14.9678 35.0362 15.0264 35.1032 15.0869C35.3241 15.2854 35.5341 15.4971 35.7312 15.7201C36.3335 16.4016 36.8313 17.204 37.0899 18.0914C37.3567 19.0092 37.3988 20.0942 36.8964 20.9363C36.538 21.5374 35.9402 21.9353 35.3039 22.163C34.94 22.2935 34.5513 22.3899 34.1735 22.4069C34.1167 22.4097 34.0599 22.4475 34.0461 22.507C33.9856 22.766 33.694 22.8303 33.4566 22.7878C33.353 22.7698 33.2375 22.8804 33.3072 22.9881C33.7051 23.6015 33.4832 24.5315 32.8176 24.8462C32.78 24.8642 32.7479 24.9209 32.7525 24.9634C32.7727 25.16 32.7305 25.3755 32.6443 25.5503C32.3995 26.0475 31.8311 26.1382 31.3406 26.1165C31.2957 26.1146 31.248 26.1439 31.2269 26.1836C31.1673 26.296 31.0665 26.3981 30.9473 26.5059C30.6255 26.7979 30.2276 27.0021 29.8279 27.1533C29.5043 27.2761 29.1706 27.3669 28.8332 27.4368C28.6186 27.4812 28.4023 27.5162 28.1841 27.5436C28.0108 27.5653 27.7229 27.5266 27.6083 27.6759C27.2462 28.1475 27.3947 28.9188 27.5662 29.4386C27.5772 29.4717 27.5882 29.5047 27.6001 29.5369C27.6193 29.5851 27.5982 29.4972 27.6047 29.5331C27.6212 29.6267 27.6138 29.7316 27.6111 29.8261C27.5982 30.1956 27.5121 30.5841 27.2535 30.8544C27.1894 30.9215 27.2114 31.0179 27.2801 31.068C27.4167 31.1681 27.6184 31.3874 27.7294 31.5717C27.9934 32.0084 27.9512 32.4809 27.6413 32.8826C27.5918 32.9469 27.5854 33.0527 27.6679 33.0962C28.0557 33.3013 28.0777 33.8939 28.0099 34.2795C27.9512 34.6112 27.8513 34.9241 27.7385 35.2388C27.6478 35.494 27.6193 35.7529 27.6175 36.0232C27.6175 36.0884 27.6597 36.1319 27.7147 36.1546C27.6606 36.1319 27.7156 36.1546 27.7303 36.1631C27.7605 36.1792 27.7899 36.1952 27.8192 36.2123C27.9072 36.2661 27.9888 36.3304 28.0557 36.4107C28.295 36.6924 28.196 37.0251 28.009 37.3077C27.9686 37.3691 27.9989 37.4579 28.0566 37.4938C28.1062 37.5241 28.1126 37.5326 28.1648 37.5865C28.2574 37.6819 28.3289 37.7982 28.372 37.9258C28.5627 38.4843 28.2373 39.0798 27.9338 39.5221C27.9072 39.5618 27.9118 39.6194 27.9338 39.6591C28.2418 40.2271 28.3244 40.9823 28.0686 41.5824C28.042 41.6439 28.0484 41.6959 28.0897 41.7478C28.0823 41.7384 28.0961 41.7573 28.1117 41.7809C28.1392 41.8244 28.1648 41.8679 28.1878 41.9142C28.251 42.0456 28.2932 42.1968 28.2758 42.3442C28.229 42.7468 27.8284 42.9141 27.4901 42.9633C26.8822 43.0521 26.2368 42.9463 25.6418 42.8139C25.5804 42.8007 25.5272 42.8243 25.4924 42.8763C25.1935 43.3252 24.6379 43.5653 24.1437 43.6957C23.5157 43.8621 22.8171 43.8819 22.1781 43.7723C21.783 43.7052 21.3237 43.5852 21.033 43.2799C20.7663 43.0001 20.8579 42.5673 21.1018 42.3017C21.1641 42.2336 21.1458 42.1382 21.0752 42.0881C20.6407 41.7752 20.6452 41.2989 20.9157 40.8745C20.9258 40.8585 20.9377 40.8434 20.9487 40.8263C20.9212 40.8698 20.9661 40.8065 20.9707 40.7819C20.9863 40.7054 20.9533 40.6222 20.9505 40.5447C20.9478 40.4672 20.9551 40.3831 20.9735 40.3046C21.012 40.1402 21.0981 39.9729 21.221 39.8576C21.2843 39.7981 21.265 39.6865 21.1944 39.644C21.1403 39.6109 21.0468 39.4881 20.9982 39.3916C20.8442 39.0826 20.8304 38.6819 20.8909 38.3463C20.957 37.9796 21.1962 37.5931 21.5795 37.525C21.6372 37.5146 21.6748 37.4494 21.6766 37.3937C21.6785 37.2925 21.6757 37.1924 21.6656 37.0922C21.6583 37.0175 21.6115 36.958 21.5336 36.9561C19.5515 36.9031 17.5675 36.3947 15.7404 35.6102C15.6083 35.5535 15.4754 35.4949 15.3461 35.4316C15.2352 35.3768 15.1353 35.4666 15.1518 35.5856C15.1995 35.9202 15.0894 36.3172 14.8877 36.5601C14.8236 36.6376 14.8456 36.7567 14.9464 36.7878C15.3892 36.9268 15.0152 37.6819 14.8676 37.9409C14.8291 38.008 14.8557 38.0855 14.9152 38.1271C15.2975 38.3964 15.0115 39.0939 14.8373 39.4181C14.8162 39.4578 14.8098 39.5164 14.8373 39.5552C15.0454 39.8538 15.1188 40.1449 15.028 40.5031C14.9537 40.7961 14.8447 41.0749 14.8107 41.3773C14.7814 41.6306 14.8071 41.8405 14.6842 42.0711C14.5614 42.3017 14.3853 42.4898 14.1946 42.657C13.6867 43.1013 13.0431 43.3867 12.395 43.5275C11.7468 43.6683 10.9611 43.6948 10.3349 43.4018C9.70874 43.1088 9.40711 42.4964 9.4117 41.8102C9.41261 41.6581 9.29068 41.608 9.20175 41.4945C9.03397 41.28 8.97988 41.0012 8.98172 40.7318C8.98263 40.5012 9.02297 40.2734 9.08257 40.0523C9.10274 39.9786 9.12566 39.9049 9.15133 39.8321C9.15866 39.8113 9.16691 39.7905 9.17425 39.7697C9.19533 39.712 9.17425 39.7952 9.17975 39.7546C9.20358 39.5863 9.04131 39.3935 8.98538 39.2338C8.93221 39.0826 8.89279 38.9238 8.88637 38.7622C8.87537 38.5051 8.94046 38.2594 9.0789 38.0448C9.21733 37.8303 9.43187 37.6366 9.6629 37.5288C9.70507 37.509 9.72708 37.456 9.72799 37.4116C9.74541 36.9447 9.86093 36.3985 10.3065 36.1745C10.4037 36.1253 10.521 36.0941 10.6191 36.0866C10.6778 36.0818 10.7576 36.0988 10.8107 36.0677C10.9033 36.0128 10.9666 35.8427 11.0088 35.752C11.1197 35.51 11.1894 35.253 11.2105 34.9855C11.2398 34.6103 11.1389 34.287 11.0115 33.9421C10.8969 33.6311 10.8612 33.2975 10.8648 32.9667C10.8703 32.4998 10.9428 32.0178 11.0839 31.5727C11.1087 31.4933 11.0408 31.3931 10.9565 31.4006C10.8584 31.4092 10.7585 31.4073 10.6833 31.3326C10.665 31.3146 10.6255 31.2409 10.6365 31.2702C10.5962 31.1596 10.4605 31.1351 10.3954 31.2381C10.0663 31.7551 9.52721 32.0906 8.93221 32.1615C8.26845 32.2409 7.61477 31.997 7.10136 31.5679C6.97026 31.4583 6.78232 31.6502 6.91433 31.7607L6.91525 31.7617Z" fill="black"/>
<path d="M19.6207 18.2883C19.6253 18.293 19.629 18.2987 19.6335 18.3044C19.6381 18.3101 19.6427 18.3157 19.6464 18.3214C19.6666 18.3469 19.6317 18.2997 19.6528 18.3299C19.6941 18.3876 19.7335 18.4471 19.7692 18.5085C19.8793 18.6957 19.9636 18.8989 20.0085 19.1134C20.0672 19.3884 20.0489 19.6748 19.9498 19.9376C19.8884 20.102 19.794 20.257 19.684 20.3912C19.5345 20.5736 19.3576 20.705 19.1816 20.8562C19.1128 20.9148 19.1128 20.9876 19.0908 21.0708C19.055 21.205 19.0101 21.325 18.9606 21.4327C18.7708 21.8486 18.4802 22.2125 18.119 22.4818C17.3966 23.0224 16.4798 23.1935 15.6033 23.184C15.4337 23.1822 15.4328 23.4544 15.6033 23.4562C16.5769 23.4666 17.5937 23.2578 18.372 22.6236C18.7892 22.2833 19.1128 21.8259 19.2934 21.3099C19.3273 21.2135 19.3594 21.1123 19.375 21.0103L19.3145 21.0916C19.8307 20.7163 20.268 20.1946 20.3037 19.5179C20.3257 19.1021 20.1891 18.6843 19.9746 18.3356C19.9242 18.2533 19.8692 18.1711 19.8059 18.0974C19.6931 17.9651 19.507 18.1588 19.6189 18.2902L19.6207 18.2883Z" fill="black"/>
<path d="M15.7621 23.3198C15.7639 23.3037 15.7657 23.2867 15.7676 23.2706L15.7621 23.3141C15.763 23.3065 15.7639 23.299 15.7648 23.2924C15.7712 23.2706 15.7722 23.2489 15.7676 23.2281C15.7667 23.2064 15.7602 23.1865 15.7492 23.1676C15.7392 23.1487 15.7263 23.1336 15.7089 23.1223C15.6933 23.1081 15.6759 23.0986 15.6557 23.093L15.6136 23.0873C15.5851 23.0873 15.5585 23.0948 15.5347 23.109L15.5026 23.1345C15.4834 23.1544 15.4696 23.179 15.4623 23.2064C15.4568 23.2442 15.4522 23.2829 15.4476 23.3207C15.4476 23.3434 15.4513 23.3642 15.4614 23.3831C15.4678 23.403 15.4788 23.4209 15.4935 23.4351C15.5081 23.4512 15.5246 23.4625 15.5439 23.4682C15.5622 23.4786 15.5824 23.4833 15.6044 23.4823L15.6466 23.4767C15.6731 23.4691 15.6961 23.4549 15.7162 23.4351L15.741 23.402C15.7557 23.3765 15.7621 23.3491 15.7621 23.3207V23.3198Z" fill="black"/>
<path d="M33.5348 22.8551C33.3285 22.5574 33.0324 22.3136 32.6996 22.1822L32.7922 22.3495C32.9645 21.8335 32.993 21.2739 32.7738 20.7683C32.6877 20.5689 32.5584 20.3581 32.3897 20.2201L32.4236 20.3524C32.5795 19.8648 32.6528 19.3109 32.463 18.8213C32.3888 18.6304 32.2788 18.4405 32.1183 18.3148C31.9826 18.2089 31.8515 18.4452 31.9854 18.5501C31.9441 18.518 31.9707 18.5378 31.9891 18.5558C32.0129 18.5803 32.0358 18.604 32.0569 18.6304C32.1082 18.6928 32.177 18.811 32.2155 18.9121C32.386 19.3516 32.3081 19.844 32.1688 20.2797C32.155 20.3213 32.1688 20.3836 32.2027 20.412C32.7298 20.8458 32.7408 21.6662 32.5373 22.2767C32.5125 22.3514 32.5666 22.4194 32.6299 22.444C32.6382 22.4468 32.6592 22.4572 32.6262 22.4421C32.6437 22.4506 32.662 22.4582 32.6794 22.4667C32.7399 22.4969 32.7995 22.53 32.8573 22.5669C33.0315 22.6774 33.1882 22.8192 33.3074 22.9912C33.4055 23.133 33.6347 22.9969 33.5357 22.8542L33.5348 22.8551Z" fill="black"/>
<path d="M31.503 18.6729C31.4563 18.6985 31.4499 18.6994 31.3958 18.7193C31.2931 18.7561 31.1849 18.7826 31.0767 18.7911C30.7256 18.8175 30.4175 18.6616 30.2048 18.3743C30.1682 18.3242 30.1077 18.2968 30.0499 18.3327C29.5897 18.6115 28.8966 18.809 28.4098 18.4915C28.1686 18.3336 28.0238 18.0681 27.9349 17.7959C27.9055 17.707 27.7753 17.674 27.7277 17.7685C27.6406 17.9414 27.5058 18.103 27.3307 18.1957C26.8677 18.4404 26.4515 17.8838 26.2314 17.5416C26.181 17.4632 26.0472 17.466 26.0242 17.569C25.9344 17.984 25.6529 18.5368 25.168 18.4972C24.8975 18.4754 24.65 18.2968 24.4483 18.1248C24.3868 18.0728 24.2787 18.0832 24.2594 18.1758C24.1677 18.603 23.8083 18.9631 23.3435 18.9461C23.0419 18.9347 22.754 18.8034 22.4936 18.6559C22.4478 18.6295 22.3946 18.6389 22.3561 18.6739C22.2131 18.8081 22.0132 18.9451 21.8042 19.0094C21.6713 19.051 21.5237 19.0614 21.4054 18.9744C21.212 18.8308 21.1606 18.5265 21.1331 18.3015C21.1157 18.1541 20.8883 18.1522 20.9067 18.3015C20.9534 18.6918 21.0836 19.206 21.5319 19.2684C21.8161 19.3081 22.1013 19.1568 22.3268 18.9924C22.3919 18.9451 22.457 18.895 22.5166 18.8393L22.379 18.8572C22.8099 19.1011 23.3481 19.3043 23.8285 19.086C24.0971 18.964 24.2924 18.7202 24.407 18.4461C24.4354 18.379 24.462 18.3091 24.4776 18.2372L24.2887 18.2883C24.6454 18.5936 25.134 18.8828 25.5943 18.638C25.884 18.4839 26.0609 18.1664 26.1728 17.863C26.2003 17.7874 26.2259 17.7099 26.2434 17.6305L26.0362 17.6579C26.2754 18.0293 26.6394 18.5085 27.1253 18.4877C27.4132 18.4745 27.6479 18.2845 27.8157 18.0567C27.8551 18.0029 27.8945 17.9461 27.9248 17.8857L27.7176 17.8583C27.8863 18.3743 28.2337 18.792 28.7774 18.8686C29.1679 18.9234 29.5649 18.8166 29.9216 18.6578C30.0041 18.621 30.0866 18.5822 30.1645 18.535L30.0096 18.4934C30.2599 18.8308 30.6119 19.0444 31.0318 19.0283C31.2307 19.0208 31.4407 18.9725 31.6176 18.8761C31.7469 18.8062 31.6323 18.6049 31.503 18.6748V18.6729Z" fill="black"/>
<path d="M21.5335 37.2937C21.5464 37.2946 21.5592 37.2946 21.5729 37.2946C21.5995 37.2956 21.6234 37.2899 21.6463 37.2776C21.6701 37.27 21.6903 37.2559 21.7077 37.237C21.726 37.219 21.7398 37.1982 21.7471 37.1736C21.7591 37.15 21.7646 37.1245 21.7636 37.098L21.7572 37.046C21.7481 37.013 21.7315 36.9837 21.7077 36.9591L21.6692 36.9279C21.639 36.9099 21.6069 36.9014 21.5729 36.9014C21.5601 36.9014 21.5473 36.9014 21.5335 36.9005C21.5069 36.8995 21.4831 36.9052 21.4602 36.9175C21.4363 36.9251 21.4162 36.9392 21.3988 36.9581C21.3804 36.9761 21.3667 36.9969 21.3593 37.0215C21.3474 37.0451 21.3419 37.0706 21.3428 37.0971L21.3492 37.1491C21.3584 37.1821 21.3749 37.2114 21.3988 37.236L21.4373 37.2672C21.4675 37.2852 21.4996 37.2937 21.5335 37.2937Z" fill="black"/>
<path d="M26.5887 34.0772C26.5337 35.1849 25.9617 36.1876 25.1292 36.8719C25.0925 36.9022 25.0174 36.9617 24.9532 37.0033C24.8734 37.0553 24.8615 37.1895 24.9532 37.2386C25.1989 37.37 25.3557 37.5826 25.3116 37.8766C25.2915 38.0146 25.2466 38.1384 25.1741 38.2527C25.1329 38.3179 25.165 38.3983 25.2218 38.4389C25.5518 38.6799 25.3841 39.1789 25.2044 39.4672C25.1631 39.5334 25.1952 39.6128 25.2521 39.6534C25.7022 39.9823 25.7856 40.5636 25.716 41.0919C25.6866 41.3102 25.6334 41.5247 25.5665 41.7336C25.5436 41.8026 25.5188 41.8716 25.4932 41.9396C25.4886 41.951 25.484 41.9614 25.4803 41.9727C25.4968 41.933 25.4849 41.9614 25.4813 41.9699C25.4785 41.9765 25.4758 41.9822 25.473 41.9888C25.4547 42.0294 25.4437 42.0861 25.473 42.1258C25.6545 42.3706 25.6509 42.6258 25.4923 42.8829C25.4006 43.0313 25.6289 43.1674 25.7205 43.0199C25.925 42.6901 25.9369 42.3054 25.7013 41.9888V42.1258C25.9717 41.5181 26.134 40.7176 25.8911 40.0778C25.7884 39.8065 25.616 39.5863 25.3859 39.4181L25.4336 39.6043C25.7022 39.1723 25.8177 38.54 25.3557 38.2036L25.4033 38.3898C25.5023 38.231 25.5628 38.0372 25.5803 37.8501C25.6142 37.4739 25.4024 37.1725 25.087 37.0033V37.2386C25.3006 37.0997 25.495 36.9192 25.6729 36.7358C26.0735 36.3209 26.3971 35.8294 26.6052 35.2841C26.7529 34.8985 26.8326 34.4902 26.8528 34.0772C26.861 33.9023 26.597 33.9023 26.5887 34.0772Z" fill="black"/>
<path d="M22.0169 34.1909C21.6529 34.3053 21.3513 34.6285 21.211 34.9848C21.0708 35.3411 21.0717 35.7267 21.145 36.0878C21.2138 36.4289 21.3605 36.7493 21.4008 37.0971C21.421 37.2692 21.685 37.2711 21.6649 37.0971C21.6273 36.7777 21.5182 36.4838 21.4375 36.1747C21.3486 35.8392 21.3256 35.4772 21.4347 35.1436C21.5063 34.9234 21.6484 34.7268 21.8336 34.5935C21.895 34.5491 21.9592 34.5113 22.027 34.4782C22.0582 34.4631 22.0233 34.4782 22.0628 34.4631C22.071 34.4603 22.0793 34.4565 22.0875 34.4546C22.2498 34.4036 22.1801 34.1408 22.0169 34.1918V34.1909Z" fill="black"/>
<path d="M27.2595 24.1821C27.2595 24.1821 26.4224 24.2388 26.4499 23.4525C26.4774 22.6652 27.2503 22.618 27.7096 22.6085C28.1698 22.5991 28.8043 22.8835 28.8134 23.3958C28.8226 23.908 28.4458 24.1453 28.0864 24.1831C28.0864 24.1831 28.3349 25.0082 29.2269 24.4487C29.2269 24.4487 29.5304 24.3192 29.5918 24.4836C29.6532 24.6481 29.5368 25.0781 29.0711 25.1537C28.6053 25.2293 28.0103 24.7747 27.9241 24.7747C27.838 24.7747 26.8331 25.3881 26.0291 25.3938C25.226 25.4004 24.8208 24.5914 25.2077 24.3825C25.5936 24.1736 25.545 24.787 26.3362 24.6982C27.1274 24.6093 27.2191 24.4581 27.2595 24.1831V24.1821Z" fill="black"/>
<path d="M23.06 21.139C23.06 21.139 23.0646 21.1324 23.0673 21.1286C23.0985 21.0852 23.0435 21.157 23.06 21.1381C23.0893 21.1031 23.1168 21.0653 23.1471 21.0313C23.2489 20.9131 23.3607 20.8045 23.4808 20.7043C23.4909 20.6958 23.501 20.6873 23.512 20.6788C23.5092 20.6816 23.4872 20.6977 23.5074 20.6825C23.5276 20.6674 23.5459 20.6532 23.5651 20.6391C23.6092 20.6069 23.6532 20.5767 23.699 20.5474C23.7934 20.4878 23.8915 20.433 23.9933 20.3886C24.0575 20.3602 24.195 20.3139 24.2913 20.2913C24.4141 20.262 24.5104 20.2497 24.6406 20.2478C24.9734 20.2431 25.2942 20.3432 25.5876 20.5011C25.8361 20.6343 26.057 20.2468 25.8076 20.1126C25.2356 19.8045 24.5782 19.6958 23.9594 19.9227C23.5459 20.0739 23.1755 20.3395 22.8775 20.6693C22.8088 20.7459 22.7419 20.8271 22.6832 20.9131C22.6153 21.0124 22.6658 21.1636 22.7611 21.2213C22.8702 21.2874 22.9912 21.2402 23.06 21.1409V21.139Z" fill="black"/>
<path d="M31.1298 20.7827C30.7805 20.2732 30.179 19.9037 29.5684 19.9094C29.2577 19.9122 28.9606 20.0095 28.6865 20.156C28.4371 20.2893 28.6581 20.6778 28.9065 20.5445C29.155 20.4112 29.4172 20.3413 29.6959 20.364C29.8866 20.38 30.0874 20.4566 30.2616 20.5634C30.3046 20.5899 30.3468 20.6182 30.3872 20.6485C30.3927 20.6522 30.4458 20.6929 30.4266 20.6777C30.4073 20.6626 30.4568 20.7033 30.4614 20.707C30.5228 20.759 30.5806 20.8148 30.6365 20.8734C30.675 20.914 30.7108 20.9575 30.7465 21.001C30.7896 21.0539 30.7172 20.9566 30.7539 21.0104C30.8217 21.1097 30.9446 21.156 31.0527 21.0908C31.1481 21.0331 31.1994 20.8828 31.1307 20.7827H31.1298Z" fill="black"/>
<path d="M13.716 14.1184C13.716 14.1184 11.061 15.7091 11.1499 18.4717C11.2388 21.2342 12.9835 23.0489 15.325 23.1632C17.6665 23.2767 18.8153 22.2295 19.1251 20.8931C19.1251 20.8931 20.1556 20.2475 20.0309 19.3062C19.9053 18.3649 19.3167 17.9849 19.3167 17.9849C19.3167 17.9849 19.7733 16.0191 18.5365 15.78C18.5365 15.78 18.3486 14.2196 17.1778 14.1402C16.0071 14.0608 15.6752 14.5617 15.6752 14.5617C15.6752 14.5617 14.6631 13.4909 13.716 14.1175V14.1184Z" fill="#E669A0"/>
<path d="M32.0542 18.2641C32.0542 18.2641 31.6233 16.9088 32.5951 16.579C32.5951 16.579 32.4622 15.907 32.982 15.8163C32.982 15.8163 32.695 14.7691 33.5009 14.5063C34.3077 14.2445 34.8211 14.8589 34.8211 14.8589C34.8211 14.8589 36.6712 16.2558 37.1644 18.3889C37.6577 20.522 36.6418 22.2072 34.0922 22.4255C34.0922 22.4255 34.029 22.8527 33.4926 22.7988C33.4926 22.7988 33.2048 22.4066 32.827 22.2441C32.827 22.2441 33.1974 20.9748 32.4402 20.2801C32.4402 20.2801 32.9224 18.887 32.0533 18.2641H32.0542Z" fill="#E669A0"/>
<path d="M21.0642 26.7858C21.0642 26.7858 24.5315 27.9993 27.6542 27.6364C27.6542 27.6364 27.2673 27.9303 27.4158 28.8575C27.4158 28.8575 22.1717 28.7847 20.4875 27.78C20.4875 27.78 20.8818 27.5097 21.0642 26.7858Z" fill="#E669A0"/>
<path d="M48.2005 11.305V13.4797C48.2005 13.6082 48.0997 13.7122 47.975 13.7122H46.0451C45.9204 13.7122 45.8196 13.8162 45.8196 13.9447V15.9323C45.8196 16.0608 45.7188 16.1648 45.5941 16.1648H43.4863C43.3617 16.1648 43.2608 16.0608 43.2608 15.9323V13.9447C43.2608 13.8162 43.16 13.7122 43.0353 13.7122H41.1054C40.9807 13.7122 40.8799 13.6082 40.8799 13.4797V11.305C40.8799 11.1764 40.9807 11.0725 41.1054 11.0725H43.0353C43.16 11.0725 43.2608 10.9685 43.2608 10.84V8.85237C43.2608 8.72384 43.3617 8.61987 43.4863 8.61987H45.5941C45.7188 8.61987 45.8196 8.72384 45.8196 8.85237V10.84C45.8196 10.9685 45.9204 11.0725 46.0451 11.0725H47.975C48.0997 11.0725 48.2005 11.1764 48.2005 11.305Z" fill="white"/>
<path d="M39.4849 40.844C39.4849 40.844 39.0778 42.9762 39.9442 43.8873C39.9442 43.8873 37.9639 43.9241 37.8053 42.7389C37.6458 41.5547 39.4849 40.843 39.4849 40.843V40.844Z" fill="black"/>
<path d="M37.3675 41.6951C37.3675 41.6951 36.4791 43.7866 39.0645 43.9501C39.0645 43.9501 36.9825 43.4029 37.9112 41.9682L37.3675 41.6951Z" fill="#F6B519"/>
</svg>
