<svg width="14" height="14" viewBox="0 0 14 14" fill="none" xmlns="http://www.w3.org/2000/svg">
<path d="M7.13766 0.490723C3.43268 0.490723 0.561401 3.13559 0.561401 6.70799C0.561401 8.5765 1.34748 10.1912 2.62702 11.3066C2.84794 11.5007 2.80244 11.6132 2.84001 12.8115C2.84296 12.8955 2.8669 12.9774 2.90974 13.0503C2.95257 13.1231 3.013 13.1846 3.08574 13.2294C3.15849 13.2741 3.24135 13.3009 3.3271 13.3072C3.41284 13.3135 3.49887 13.2992 3.57767 13.2656C4.97759 12.6635 4.99558 12.6159 5.23291 12.679C9.28873 13.7693 13.6848 11.234 13.6848 6.70799C13.6848 3.13559 10.8429 0.490723 7.13766 0.490723ZM11.0863 5.2752L9.15485 8.26198C9.08192 8.37429 8.98602 8.47068 8.87316 8.5451C8.76031 8.61952 8.63294 8.67037 8.49902 8.69446C8.36511 8.71855 8.22755 8.71537 8.09495 8.68511C7.96236 8.65485 7.8376 8.59817 7.72848 8.51861L6.19177 7.39518C6.12307 7.34485 6.03951 7.31764 5.95364 7.31764C5.86777 7.31764 5.78421 7.34485 5.71551 7.39518L3.64196 8.93134C3.36521 9.13628 3.00273 8.81245 3.18926 8.52636L5.12073 5.53958C5.19364 5.42724 5.28953 5.33083 5.40238 5.25638C5.51523 5.18194 5.64261 5.13108 5.77654 5.10698C5.91046 5.08289 6.04803 5.08608 6.18063 5.11636C6.31324 5.14664 6.438 5.20336 6.5471 5.28295L8.08328 6.40613C8.15198 6.45646 8.23554 6.48366 8.32141 6.48366C8.40728 6.48366 8.49084 6.45646 8.55954 6.40613L10.6341 4.87152C10.9104 4.66529 11.2729 4.98885 11.0863 5.2752V5.2752Z" fill="#0074BB"/>
</svg>
