<svg width="17" height="12" viewBox="0 0 17 12" fill="none" xmlns="http://www.w3.org/2000/svg">
<path d="M16.3271 1.81346C16.1427 1.11175 15.5991 0.559107 14.909 0.371559C13.6582 0.0307617 8.64242 0.0307617 8.64242 0.0307617C8.64242 0.0307617 3.62668 0.0307617 2.37581 0.371559C1.68571 0.559136 1.14219 1.11175 0.957724 1.81346C0.622559 3.08535 0.622559 5.73904 0.622559 5.73904C0.622559 5.73904 0.622559 8.39272 0.957724 9.66461C1.14219 10.3663 1.68571 10.8959 2.37581 11.0835C3.62668 11.4243 8.64242 11.4243 8.64242 11.4243C8.64242 11.4243 13.6582 11.4243 14.909 11.0835C15.5991 10.8959 16.1427 10.3663 16.3271 9.66461C16.6623 8.39272 16.6623 5.73904 16.6623 5.73904C16.6623 5.73904 16.6623 3.08535 16.3271 1.81346V1.81346ZM7.00198 8.14838V3.32969L11.1942 5.7391L7.00198 8.14838V8.14838Z" fill="#0074BB"/>
</svg>
