<svg width="17" height="16" viewBox="0 0 17 16" fill="none" xmlns="http://www.w3.org/2000/svg">
<path opacity="0.2" d="M2.61883 0.429688H14.2172C15.486 0.429688 16.5147 1.43447 16.5147 2.67375V13.1359C16.5147 14.3752 15.486 15.38 14.2172 15.38H2.61883C1.35001 15.38 0.321289 14.3752 0.321289 13.1359V2.67439C0.321289 1.43447 1.35001 0.429688 2.61883 0.429688Z" fill="#0074BB"/>
<path opacity="0.9" d="M5.21762 15.4565C5.20006 15.3358 5.07643 15.3148 5.00225 15.2423C4.82201 15.0625 4.63462 14.8902 4.44722 14.7212C4.0477 14.3621 3.6625 13.9858 3.25583 13.6337C3.23436 13.6064 3.21679 13.5784 3.20312 13.5473C4.10431 13.7202 4.98468 13.6026 5.85073 13.3433C6.14419 13.2568 6.43764 13.1704 6.73435 13.098C6.93606 13.0465 7.14818 13.0566 7.34209 13.1253C9.58302 13.8778 11.796 13.8091 13.9738 12.8768C14.8613 12.4935 15.6708 11.9546 16.3566 11.2815C16.3917 11.2472 16.4164 11.1951 16.4802 11.1919C16.5121 11.2402 16.4945 11.2923 16.4945 11.3438V13.3636C16.5017 14.5172 15.5543 15.4559 14.3733 15.4667H14.3557C13.083 15.4737 11.8103 15.4667 10.5376 15.4667H5.42909C5.35882 15.4603 5.2879 15.4565 5.21762 15.4565Z" fill="#0074BB"/>
<path d="M5.21763 15.4561C4.25268 15.4561 3.28382 15.4872 2.31886 15.4529C1.17692 15.4078 0.303711 14.4723 0.303711 13.3569C0.303711 9.75606 0.310868 6.15455 0.303711 2.54985C0.303711 1.31693 1.29014 0.457703 2.42492 0.426563C3.61241 0.395422 4.8038 0.419572 5.99519 0.419572C6.01666 0.419572 6.04464 0.409403 6.05505 0.443722C6.0479 0.506003 5.98413 0.512994 5.94574 0.537144C5.24561 0.937524 4.60599 1.41735 4.06853 2.01156C3.18101 2.99218 2.56612 4.11769 2.35725 5.42623C1.98962 7.73637 2.72814 9.69696 4.40038 11.3341C4.69709 11.6277 4.73613 11.8552 4.49928 12.2492C4.21298 12.7221 3.77833 13.0436 3.31505 13.3366C3.2656 13.3639 3.21615 13.3989 3.16669 13.43C3.09252 13.4923 3.13871 13.5235 3.20183 13.5508C3.21615 13.5819 3.23371 13.6093 3.25454 13.6372C3.66121 13.9893 4.04641 14.3655 4.44593 14.7246C4.63332 14.8936 4.82072 15.0697 5.00095 15.2457C5.07578 15.3112 5.19941 15.3322 5.21763 15.4561ZM5.76875 7.72874C6.30231 7.72874 6.80463 7.72556 7.30305 7.72874C7.58219 7.73192 7.73445 7.84631 7.76243 8.06366C7.79432 8.3363 7.63165 8.51933 7.32778 8.52315C6.75518 8.53014 6.18584 8.52632 5.61324 8.52632C5.44732 8.52632 5.28465 8.53331 5.11808 8.52315C4.91311 8.51298 4.7114 8.47167 4.6125 8.26449C4.5136 8.05731 4.58452 7.8711 4.71856 7.70141C5.26318 7.02458 5.81105 6.34457 6.35892 5.66773C6.3908 5.62642 6.42269 5.58512 6.45457 5.54698C6.41943 5.48852 6.36998 5.51584 6.32704 5.51267C5.94509 5.50949 5.55989 5.51267 5.17794 5.50949C5.08945 5.50949 5.00095 5.49932 4.91637 5.48216C4.71466 5.43704 4.59103 5.24066 4.63723 5.04683C4.66911 4.91591 4.77517 4.8085 4.90921 4.77736C4.9938 4.75639 5.08229 4.74622 5.17078 4.74622C5.79999 4.74305 6.4331 4.74305 7.0623 4.74622C7.17552 4.74305 7.28483 4.75639 7.3948 4.78435C7.6349 4.8638 7.73771 5.08115 7.64206 5.3093C7.55747 5.50631 7.42278 5.67536 7.28874 5.84441C6.82546 6.42083 6.36282 6.99407 5.89954 7.56414C5.8605 7.60799 5.82536 7.65311 5.76875 7.72874ZM12.0081 6.50663C12.0081 7.04174 12.0114 7.57685 12.0081 8.11196C12.0114 8.35727 11.8136 8.56064 11.5624 8.56763C11.5201 8.56763 11.4739 8.56446 11.4316 8.55365C11.2546 8.50853 11.1206 8.3255 11.1206 8.10815V5.36395C11.1206 5.20189 11.1173 5.04301 11.1206 4.88032C11.1238 4.61467 11.2976 4.44181 11.5591 4.44181C11.8279 4.43863 12.0081 4.61086 12.0081 4.88731C12.012 5.42623 12.0081 5.96834 12.0081 6.50663ZM15.324 7.04555C15.296 6.18251 14.6381 5.59211 13.737 5.61943C12.8885 5.64358 12.2912 6.30644 12.3191 7.19363C12.3048 8.05667 13.0368 8.70935 13.9595 8.61975C14.8047 8.53713 15.3526 7.91876 15.324 7.04555ZM14.2744 7.601C14.0766 7.84631 13.709 7.88762 13.4578 7.69442C13.4188 7.66709 13.3869 7.63214 13.3589 7.59401C13.2529 7.45229 13.2034 7.28324 13.2067 7.11037C13.2067 6.68203 13.4754 6.39541 13.8573 6.41638C14.0233 6.41956 14.1788 6.50281 14.2783 6.63373C14.4794 6.89684 14.4794 7.34234 14.2744 7.601ZM10.7321 6.07511C10.7289 5.79865 10.4673 5.62261 10.1875 5.6779C10.0424 5.70523 9.95392 5.80564 9.86933 5.91241C9.42752 5.53618 8.93951 5.51203 8.45866 5.79166C7.8789 6.12341 7.66353 6.66169 7.73771 7.29341C7.80863 7.87682 8.0663 8.35664 8.6955 8.55683C9.08786 8.68139 9.45224 8.63627 9.77368 8.38079C9.85827 8.31533 9.88299 8.32931 9.94351 8.40176C10.06 8.55047 10.2617 8.60195 10.4387 8.53649C10.6118 8.48501 10.7321 8.32613 10.7321 8.14628C10.7393 7.4561 10.7425 6.76592 10.7321 6.07511ZM9.69299 7.59083C9.50235 7.83932 9.13797 7.89143 8.87965 7.70459C8.83735 7.67345 8.79831 7.63532 8.76318 7.59083C8.67468 7.47008 8.62523 7.32518 8.61807 7.17329C8.61482 6.68648 8.8868 6.39287 9.272 6.41384C9.43793 6.42083 9.59344 6.50027 9.69299 6.635C9.8908 6.89366 9.8908 7.32836 9.69299 7.59083Z" fill="#0074BB"/>
</svg>
